{
.appVersion = "1038";
copyright = "Copyright 2017 The Hip Hop Project Authors (https://github.com/googlefonts/HipHopFont)";
customParameters = (
{
name = license;
value = "This Font Software is licensed under the SIL Open Font License, Version 1.1. This license is available with a FAQ at: http://scripts.sil.org/OFL";
},
{
name = licenseURL;
value = "http://scripts.sil.org/OFL";
},
{
name = vendorID;
value = GOOG;
},
{
name = fsType;
value = (
);
},
{
name = "Use Typo Metrics";
value = 1;
},
{
name = "Disable Last Change";
value = 1;
},
{
name = "Use Line Breaks";
value = 1;
}
);
date = "2017-07-09 08:50:36 +0000";
designer = "Pedro Vergani & Kevin Burke";
designerURL = "http://www.google.com/doodles";
disablesNiceNames = 1;
familyName = "Hip Hop";
featurePrefixes = (
{
automatic = 1;
code = "languagesystem DFLT dflt;
languagesystem latn dflt;
languagesystem latn CRT;
languagesystem latn TAT;
languagesystem latn KAZ;
languagesystem latn CAT;
languagesystem latn AZE;
languagesystem latn TRK;
";
name = Languagesystems;
}
);
features = (
{
automatic = 1;
code = "feature ccmp;
feature locl;
";
name = aalt;
},
{
automatic = 1;
code = "lookup ccmp_Other_1 {
	@CombiningTopAccents = [acutecomb gravecomb hookabovecomb tildecomb];
	@CombiningNonTopAccents = [dotbelowcomb slashlongcomb];
	sub [i]' @CombiningTopAccents by [idotless];
	sub [i]' @CombiningNonTopAccents @CombiningTopAccents by [idotless];
} ccmp_Other_1;

lookup ccmp_Other_2 {
	lookupflag 0;
	sub uni0302 gravecomb by uni0302_gravecomb;
	sub uni0302 acutecomb by uni0302_acutecomb;
	sub uni0302 tildecomb by uni0302_tildecomb;
	sub uni0302 hookabovecomb by uni0302_hookabovecomb;
	sub uni0306 gravecomb by uni0306_gravecomb;
	sub uni0306 acutecomb by uni0306_acutecomb;
	sub uni0306 tildecomb by uni0306_tildecomb;
	sub uni0306 hookabovecomb by uni0306_hookabovecomb;
} ccmp_Other_2;
";
name = ccmp;
},
{
automatic = 1;
code = "script latn;
language CRT;
sub i by i.loclTRK;
language TAT;
sub i by i.loclTRK;
language KAZ;

glyphs = (
{
glyphname = A;
layers = (
{
layerId = "4E44DDC3-06E7-48B7-B703-88785A848E58";
paths = (
{
closed = 1;
nodes = (
"277 479 OFFCURVE",
"318 579 OFFCURVE",
"357 647 CURVE",
"360 582 OFFCURVE",
"363 518 OFFCURVE",
"367.11 413.91 CURVE",
"323.07 413.78 OFFCURVE",
"280.32 410.35 OFFCURVE",
"238.21 403.53 CURVE"
);
},
{
closed = 1;
nodes = (
"473.79 287.84 OFFCURVE",
"468 581 OFFCURVE",
"458 829 CURVE SMOOTH",
"456 877 OFFCURVE",
"348 845 OFFCURVE",
"348 806 CURVE SMOOTH",
"348 805 OFFCURVE",
"349 803 OFFCURVE",
"349 801 CURVE",
"345 798 OFFCURVE",
"343 796 OFFCURVE",
"341 793 CURVE SMOOTH",
"258 661 OFFCURVE",
"207 540 OFFCURVE",
"108.33 371.18 CURVE",
"80.44 361.78 OFFCURVE",
"52.53 350.88 OFFCURVE",
"24.39 338.27 CURVE SMOOTH",
"-34.81 311.75 OFFCURVE",
"-19.03 261.17 OFFCURVE",
"44.33 284.24 CURVE SMOOTH",
"49.9 286.27 OFFCURVE",
"55.27 288.01 OFFCURVE",
"60.78 289.94 CURVE",
"11.1 204.87 OFFCURVE",
"-38.24 119.66 OFFCURVE",
"-87.1 34.48 CURVE SMOOTH",
"-114.27 -12.89 OFFCURVE",
"-1.93 6.32 OFFCURVE",
"18.08 39.06 CURVE SMOOTH",
"76.67 134.9 OFFCURVE",
"135.22 231.13 OFFCURVE",
"193.1 327.83 CURVE",
"250.65 340.01 OFFCURVE",
"308.7 345.87 OFFCURVE",
"372.39 344.76 CURVE",
"382.14 230.61 OFFCURVE",
"397.37 117.12 OFFCURVE",
"425.26 5.19 CURVE SMOOTH",
"435.89 -37.49 OFFCURVE",
"548.95 0.38 OFFCURVE",
"536.92 46.4 CURVE SMOOTH"
);
}
);
width = 633;
},
{
layerId = "AF926F6A-8B43-44FC-95BD-7483A33A85BE";
paths = (
{
closed = 1;
nodes = (
"326 394 OFFCURVE",
"282 371 OFFCURVE",
"249 318 CURVE",
"290 391 OFFCURVE",
"332 464 OFFCURVE",
"369 539 CURVE",
"382 477 OFFCURVE",
"398 416 OFFCURVE",
"415 355 CURVE",
"404 361 OFFCURVE",
"392 367 OFFCURVE",
"379 372 CURVE SMOOTH"
);
},
{
closed = 1;
nodes = (
"519 586 OFFCURVE",
"502 658 OFFCURVE",
"489 732 CURVE SMOOTH",
"480 779 OFFCURVE",
"470 826 OFFCURVE",
"412 796 CURVE SMOOTH",
"363 771 OFFCURVE",
"335 716 OFFCURVE",
"313 669 CURVE SMOOTH",
"283 604 OFFCURVE",
"256 538 OFFCURVE",
"225 474 CURVE SMOOTH",
"187 395 OFFCURVE",
"145 317 OFFCURVE",
"104 239 CURVE SMOOTH",
"87 207 OFFCURVE",
"2 79 OFFCURVE",
"34 45 CURVE SMOOTH",
"68 11 OFFCURVE",
"129 84 OFFCURVE",
"144 111 CURVE SMOOTH",
"180 176 OFFCURVE",
"208 245 OFFCURVE",
"245 310 CURVE",
"206 236 OFFCURVE",
"353 191 OFFCURVE",
"397 162 CURVE SMOOTH",
"451 126 OFFCURVE",
"533 27 OFFCURVE",
"605 65 CURVE SMOOTH",
"634 80 OFFCURVE",
"668 116 OFFCURVE",
"674 149 CURVE SMOOTH",
"680 185 OFFCURVE",
"650 225 OFFCURVE",
"636 255 CURVE SMOOTH",
"597 338 OFFCURVE",
"565 425 OFFCURVE",
"539 514 CURVE SMOOTH"
);
}
);
width = 679;
}
);
unicode = 0041;
},
{
glyphname = AE;
layers = (
{
layerId = "4E44DDC3-06E7-48B7-B703-88785A848E58";
paths = (
{
closed = 1;
nodes = (
"884 98 OFFCURVE",
"873 101 OFFCURVE",
"863 104 CURVE",
"850 107 OFFCURVE",
"837 110 OFFCURVE",
"824 112 CURVE",
"797 117 OFFCURVE",
"770 120 OFFCURVE",
"743 122 CURVE",
"688 125 OFFCURVE",
"632 125 OFFCURVE",
"578 119 CURVE",
"547 115 OFFCURVE",
"516 109 OFFCURVE",
"487 99 CURVE",
"485 198 OFFCURVE",
"483 296 OFFCURVE",
"480 395 CURVE",
"519 394 OFFCURVE",
"559 394 OFFCURVE",
"598 394 CURVE",
"618 394 OFFCURVE",
"638 394 OFFCURVE",
"658 394 CURVE",
"677 394 OFFCURVE",
"695 394 OFFCURVE",
"712 403 CURVE",
"725 409 OFFCURVE",
"740 419 OFFCURVE",
"744 433 CURVE",
"749 449 OFFCURVE",
"739 460 OFFCURVE",
"723 464 CURVE",
"705 467 OFFCURVE",
"685 465 OFFCURVE",
"667 465 CURVE",
"646 465 OFFCURVE",
"626 465 OFFCURVE",
"605 465 CURVE",
"563 465 OFFCURVE",
"520 468 OFFCURVE",
"478 460 CURVE",
"477 523 OFFCURVE",
"475 586 OFFCURVE",
"474 649 CURVE",
"474 664 OFFCURVE",
"473 679 OFFCURVE",
"473 694 CURVE",
"473 698 OFFCURVE",
"473 701 OFFCURVE",
"473 705 CURVE",
"473 707 OFFCURVE",
"472 710 OFFCURVE",
"473 711 CURVE",
"474 714 OFFCURVE",
"473 712 OFFCURVE",
"476 713 CURVE",
"483 715 OFFCURVE",
"493 714 OFFCURVE",
"501 714 CURVE",
"532 715 OFFCURVE",
"564 716 OFFCURVE",
"595 718 CURVE",
"626 719 OFFCURVE",
"657 720 OFFCURVE",
"688 722 CURVE",
"716 723 OFFCURVE",
"745 724 OFFCURVE",
"769 740 CURVE",
"778 747 OFFCURVE",
"786 755 OFFCURVE",
"788 767 CURVE",
"791 780 OFFCURVE",
"780 789 OFFCURVE",
"768 791 CURVE",
"755 794 OFFCURVE",
"739 793 OFFCURVE",
"726 792 CURVE",
"710 792 OFFCURVE",
"694 792 OFFCURVE",
"678 791 CURVE",
"643 790 OFFCURVE",
"608 788 OFFCURVE",
"574 786 CURVE",
"540 785 OFFCURVE",
"505 785 OFFCURVE",
"471 781 CURVE",
"471 796 OFFCURVE",
"471 811 OFFCURVE",
"471 826 CURVE",
"470 837 OFFCURVE",
"471 847 OFFCURVE",
"460 853 CURVE",
"459 854 OFFCURVE",
"455 855 OFFCURVE",
"454 856 CURVE",
"453 857 OFFCURVE",
"453 862 OFFCURVE",
"453 864 CURVE",
"451 870 OFFCURVE",
"447 874 OFFCURVE",
"442 877 CURVE",
"433 882 OFFCURVE",
"422 882 OFFCURVE",
"411 881 CURVE",
"389 878 OFFCURVE",
"367 867 OFFCURVE",
"355 848 CURVE",
"340 823 OFFCURVE",
"327 795 OFFCURVE",
"314 769 CURVE",
"259 660 OFFCURVE",
"205 551 OFFCURVE",
"151 442 CURVE",
"96 332 OFFCURVE",
"41 222 OFFCURVE",
"-13 112 CURVE",
"-19 99 OFFCURVE",
"-25 87 OFFCURVE",
"-32 74 CURVE",
"-37 62 OFFCURVE",
"-43 49 OFFCURVE",
"-49 37 CURVE",
"-55 28 OFFCURVE",
"-57 15 OFFCURVE",
"-45 9 CURVE",
"-35 4 OFFCURVE",
"-20 6 OFFCURVE",
"-9 9 CURVE",
"13 14 OFFCURVE",
"37 24 OFFCURVE",
"49 43 CURVE",
"65 67 OFFCURVE",
"77 93 OFFCURVE",
"90 119 CURVE",
"117 173 OFFCURVE",
"144 227 OFFCURVE",
"171 281 CURVE",
"173 285 OFFCURVE",
"174 288 OFFCURVE",
"176 292 CURVE",
"179 296 OFFCURVE",
"179 296 OFFCURVE",
"184 295 CURVE",
"191 293 OFFCURVE",
"198 292 OFFCURVE",
"205 291 CURVE",
"219 289 OFFCURVE",
"233 287 OFFCURVE",
"247 286 CURVE",
"277 284 OFFCURVE",
"306 285 OFFCURVE",
"336 288 CURVE",
"350 290 OFFCURVE",
"364 293 OFFCURVE",
"378 296 CURVE",
"379 228 OFFCURVE",
"380 160 OFFCURVE",
"381 92 CURVE",
"382 83 OFFCURVE",
"382 75 OFFCURVE",
"382 66 CURVE",
"382 60 OFFCURVE",
"382 54 OFFCURVE",
"384 48 CURVE",
"387 43 OFFCURVE",
"391 40 OFFCURVE",
"396 37 CURVE",
"399 36 OFFCURVE",
"401 35 OFFCURVE",
"404 34 CURVE",
"408 34 OFFCURVE",
"408 33 OFFCURVE",
"411 31 CURVE",
"422 24 OFFCURVE",
"436 25 OFFCURVE",
"448 27 CURVE",
"456 29 OFFCURVE",
"463 33 OFFCURVE",
"471 35 CURVE",
"479 36 OFFCURVE",
"487 36 OFFCURVE",
"495 38 CURVE",
"492 38 OFFCURVE",
"490 37 OFFCURVE",
"487 36 CURVE",
"545 52 OFFCURVE",
"605 55 OFFCURVE",
"665 54 CURVE",
"695 53 OFFCURVE",
"725 50 OFFCURVE",
"755 46 CURVE",
"770 44 OFFCURVE",
"785 42 OFFCURVE",
"800 38 CURVE",
"813 35 OFFCURVE",
"825 33 OFFCURVE",
"838 37 CURVE",
"851 40 OFFCURVE",
"863 45 OFFCURVE",
"873 53 CURVE",
"882 60 OFFCURVE",
"894 75 OFFCURVE",
"888 88 CURVE"
);
},
{
closed = 1;
nodes = (
"299 355 OFFCURVE",
"257 359 OFFCURVE",
"215 370 CURVE",
"267 473 OFFCURVE",
"318 577 OFFCURVE",
"370 681 CURVE",
"371 622 OFFCURVE",
"372 563 OFFCURVE",
"373 505 CURVE",
"374 476 OFFCURVE",
"375 447 OFFCURVE",
"375 418 CURVE",
"376 403 OFFCURVE",
"376 389 OFFCURVE",
"376 374 CURVE",
"376 372 OFFCURVE",
"376 370 OFFCURVE",
"376 367 CURVE",
"378 364 OFFCURVE",
"377 363 OFFCURVE",
"373 364 CURVE",
"371 362 OFFCURVE",
"367 362 OFFCURVE",
"364 362 CURVE",
"356 360 OFFCURVE",
"349 359 OFFCURVE",
"342 358 CURVE"
);
}
);
width = 1000;
},
{
layerId = "AF926F6A-8B43-44FC-95BD-7483A33A85BE";
paths = (
{
closed = 1;
nodes = (
"841 463 OFFCURVE",
"731 464 OFFCURVE",
"620 464 CURVE",
"617 542 OFFCURVE",
"612 619 OFFCURVE",
"606 696 CURVE",
"693 698 OFFCURVE",
"780 705 OFFCURVE",
"865 723 CURVE",
"963 743 OFFCURVE",
"1000 863 OFFCURVE",
"874 849 CURVE",
"721 833 OFFCURVE",
"576 825 OFFCURVE",
"424 838 CURVE",
"381 842 OFFCURVE",
"261 778 OFFCURVE",
"317 725 CURVE",
"340 703 OFFCURVE",
"208 454 OFFCURVE",
"192 420 CURVE",
"138 319 OFFCURVE",
"75 225 OFFCURVE",
"7 133 CURVE",
"-18 101 OFFCURVE",
"29 88 OFFCURVE",
"51 86 CURVE",
"87 82 OFFCURVE",
"142 105 OFFCURVE",
"166 132 CURVE",
"225 203 OFFCURVE",
"277 279 OFFCURVE",
"325 357 CURVE",
"363 357 OFFCURVE",
"402 356 OFFCURVE",
"442 355 CURVE",
"443 257 OFFCURVE",
"441 159 OFFCURVE",
"437 61 CURVE",
"434 -15 OFFCURVE",
"617 35 OFFCURVE",
"619 100 CURVE",
"619 100 OFFCURVE",
"619 100 OFFCURVE",
"619 100 CURVE",
"691 100 OFFCURVE",
"764 99 OFFCURVE",
"836 101 CURVE",
"872 101 OFFCURVE",
"923 122 OFFCURVE",
"943 153 CURVE",
"961 177 OFFCURVE",
"951 202 OFFCURVE",
"917 204 CURVE",
"819 207 OFFCURVE",
"720 206 OFFCURVE",
"621 203 CURVE",
"622 253 OFFCURVE",
"622 303 OFFCURVE",
"621 351 CURVE",
"706 350 OFFCURVE",
"789 351 OFFCURVE",
"873 354 CURVE",
"918 356 OFFCURVE",
"1052 455 OFFCURVE",
"952 459 CURVE"
);
},
{
closed = 1;
nodes = (
"385 469 OFFCURVE",
"388 474 OFFCURVE",
"391 480 CURVE",
"401 501 OFFCURVE",
"419 531 OFFCURVE",
"436 568 CURVE",
"438 532 OFFCURVE",
"439 498 OFFCURVE",
"440 463 CURVE",
"421 463 OFFCURVE",
"402 463 OFFCURVE",
"382 463 CURVE"
);
}
);
width = 988;
}
);
unicode = 00C6;
},
{
glyphname = B;
layers = (
{
layerId = "4E44DDC3-06E7-48B7-B703-88785A848E58";
paths = (
{
closed = 1;
nodes = (
"489.82 89.76 OFFCURVE",
"345.45 77.87 OFFCURVE",
"209.87 73.25 CURVE",
"209.97 73.68 OFFCURVE",
"210.22 74.09 OFFCURVE",
"210.3 74.53 CURVE SMOOTH",
"231.56 190.65 OFFCURVE",
"254.18 306.61 OFFCURVE",
"278.4 422.24 CURVE",
"377.79 469.35 OFFCURVE",
"497.77 465.67 OFFCURVE",
"593.87 408.85 CURVE SMOOTH",
"699.12 346.62 OFFCURVE",
"690.14 240.75 OFFCURVE",
"597.57 170.99 CURVE SMOOTH"
);
},
{
closed = 1;
nodes = (
"523.78 610.49 OFFCURVE",
"388.98 543.45 OFFCURVE",
"299.55 521.2 CURVE",
"316.59 599.26 OFFCURVE",
"334.48 677.12 OFFCURVE",
"353.25 754.74 CURVE",
"418.94 778.12 OFFCURVE",
"491.69 781.87 OFFCURVE",
"506.04 705.22 CURVE SMOOTH"
);
},
{
closed = 1;
nodes = (
"585.65 510.76 OFFCURVE",
"530.68 523.03 OFFCURVE",
"475.36 525.48 CURVE",
"566.48 582.04 OFFCURVE",
"637.16 663.29 OFFCURVE",
"602.98 755.7 CURVE SMOOTH",
"567.11 852.69 OFFCURVE",
"463.43 857.24 OFFCURVE",
"365.41 828.58 CURVE",
"349.38 849.99 OFFCURVE",
"269.9 828 OFFCURVE",
"260.98 793.02 CURVE SMOOTH",
"260.21 790.02 OFFCURVE",
"259.49 787 OFFCURVE",
"258.73 783.99 CURVE",
"232.26 769.41 OFFCURVE",
"209.28 753.76 OFFCURVE",
"192.21 738.97 CURVE SMOOTH",
"147.16 699.97 OFFCURVE",
"198.12 688.84 OFFCURVE",
"237.33 698.2 CURVE",
"186.5 490.21 OFFCURVE",
"142.33 280.07 OFFCURVE",
"103.35 69.69 CURVE",
"71.7 66.54 OFFCURVE",
"0 5.42 OFFCURVE",
"59.81 2.02 CURVE SMOOTH",
"278.13 -10.41 OFFCURVE",
"603.56 12.47 OFFCURVE",
"738.6 213.52 CURVE SMOOTH",
"816.42 329.39 OFFCURVE",
"754.65 435.17 OFFCURVE",
"637.24 487.68 CURVE SMOOTH"
);
}
);
width = 786;
},
{
layerId = "AF926F6A-8B43-44FC-95BD-7483A33A85BE";
paths = (
{
closed = 1;
nodes = (
"540.64 335.04 OFFCURVE",
"461.18 281.77 OFFCURVE",
"397.94 239.81 CURVE SMOOTH",
"327.64 193.17 OFFCURVE",
"252.07 155.47 OFFCURVE",
"173.9 125.9 CURVE",
"185.92 201.23 OFFCURVE",
"187.8 276.55 OFFCURVE",
"189.12 351.91 CURVE SMOOTH",
"190.3 418.98 OFFCURVE",
"236.16 445.85 OFFCURVE",
"294.68 476.33 CURVE SMOOTH",
"372.98 517.11 OFFCURVE",
"629.66 572.15 OFFCURVE",
"568.4 408.99 CURVE SMOOTH"
);
},
{
closed = 1;
nodes = (
"200.89 660.56 OFFCURVE",
"186.18 668.22 OFFCURVE",
"218.94 689.75 CURVE SMOOTH",
"252.28 711.66 OFFCURVE",
"292.12 723.05 OFFCURVE",
"329.85 732.23 CURVE",
"293.64 664.62 OFFCURVE",
"241.74 606.6 OFFCURVE",
"196.84 544.52 CURVE",
"198.23 571.84 OFFCURVE",
"201.42 599.2 OFFCURVE",
"201.19 626.48 CURVE SMOOTH"
);
},
{
closed = 1;
nodes = (
"496.03 667.35 OFFCURVE",
"406.68 640.83 OFFCURVE",
"328.8 601.79 CURVE",
"366.49 655.2 OFFCURVE",
"462.72 765.99 OFFCURVE",
"438.99 835.65 CURVE SMOOTH",
"413.74 909.76 OFFCURVE",
"260.7 821.03 OFFCURVE",
"219.89 792.26 CURVE SMOOTH",
"202.96 780.32 OFFCURVE",
"181.58 754.36 OFFCURVE",
"163.4 746.19 CURVE SMOOTH",
"157.17 743.39 OFFCURVE",
"142.8 746.87 OFFCURVE",
"132.98 743.27 CURVE SMOOTH",
"113.19 736.01 OFFCURVE",
"97.8 714.28 OFFCURVE",
"86.82 697.23 CURVE SMOOTH",
"70.51 671.92 OFFCURVE",
"42.18 623.34 OFFCURVE",
"50.26 593.03 CURVE SMOOTH",
"52.2 585.77 OFFCURVE",
"65.59 575.31 OFFCURVE",
"69.32 568.91 CURVE SMOOTH",
"75.25 558.74 OFFCURVE",
"78.98 542.16 OFFCURVE",
"80.98 530.46 CURVE SMOOTH",
"88.32 487.35 OFFCURVE",
"79.6 431.87 OFFCURVE",
"77.57 387.47 CURVE SMOOTH",
"75.09 333.18 OFFCURVE",
"71.05 278.86 OFFCURVE",
"67.11 224.56 CURVE SMOOTH",
"64.26 185.22 OFFCURVE",
"71.91 123.81 OFFCURVE",
"57.65 86.44 CURVE SMOOTH",
"46.82 58.08 OFFCURVE",
"0.02 22.45 OFFCURVE",
"17.83 -11.9 CURVE SMOOTH",
"46.95 -68.08 OFFCURVE",
"212.7 19.84 OFFCURVE",
"250.02 38.92 CURVE SMOOTH",
"335.72 82.73 OFFCURVE",
"418.48 136.91 OFFCURVE",
"491.64 200.49 CURVE SMOOTH",
"568.07 266.91 OFFCURVE",
"638.71 348.38 OFFCURVE",
"669.88 444.94 CURVE SMOOTH",
"700.73 540.5 OFFCURVE",
"688.29 634.16 OFFCURVE",
"580.29 652.81 CURVE SMOOTH"
);
}
);
width = 663;
}
);
unicode = 0042;
},
{
glyphname = C;
layers = (
{
layerId = "4E44DDC3-06E7-48B7-B703-88785A848E58";
paths = (
{
closed = 1;
nodes = (
"432.64 822.21 OFFCURVE",
"431.4 817.69 OFFCURVE",
"430.08 813.2 CURVE",
"388.09 834 OFFCURVE",
"335.96 814.55 OFFCURVE",
"299.01 790.85 CURVE SMOOTH",
"175.81 711.83 OFFCURVE",
"103.2 530.62 OFFCURVE",
"65.78 396.55 CURVE SMOOTH",
"35.7 288.74 OFFCURVE",
"0 125.6 OFFCURVE",
"108.75 48.44 CURVE SMOOTH",
"227.24 -35.63 OFFCURVE",
"377.32 72.01 OFFCURVE",
"451.36 165.61 CURVE SMOOTH",
"455.57 170.94 OFFCURVE",
"463.47 184.35 OFFCURVE",
"458.57 191.91 CURVE SMOOTH",
"454.21 198.64 OFFCURVE",
"449.85 205.37 OFFCURVE",
"445.5 212.1 CURVE SMOOTH",
"422.4 247.76 OFFCURVE",
"323.98 205.98 OFFCURVE",
"343.99 174.64 CURVE SMOOTH",
"346.04 171.43 OFFCURVE",
"348.09 168.23 OFFCURVE",
"350.13 165.02 CURVE",
"319.97 131.56 OFFCURVE",
"279.43 90.98 OFFCURVE",
"235.04 92.31 CURVE SMOOTH",
"191.81 93.6 OFFCURVE",
"162.6 136.4 OFFCURVE",
"150.82 173 CURVE SMOOTH",
"126.55 248.41 OFFCURVE",
"150.5 340.86 OFFCURVE",
"171.15 414.33 CURVE SMOOTH",
"196.79 505.56 OFFCURVE",
"235.32 594.11 OFFCURVE",
"288.98 672.43 CURVE SMOOTH",
"298.33 686.08 OFFCURVE",
"339.17 753.81 OFFCURVE",
"357.33 750.22 CURVE SMOOTH",
"396.18 742.54 OFFCURVE",
"380.83 645.39 OFFCURVE",
"376.34 625.41 CURVE SMOOTH",
"366.7 582.54 OFFCURVE",
"468.18 609.42 OFFCURVE",
"478.54 645.86 CURVE SMOOTH",
"497.76 713.48 OFFCURVE",
"517.82 780.87 OFFCURVE",
"536.56 848.63 CURVE SMOOTH",
"546.8 885.67 OFFCURVE",
"444.59 862.46 OFFCURVE",
"433.99 826.69 CURVE SMOOTH"
);
}
);
width = 517;
},
{
layerId = "AF926F6A-8B43-44FC-95BD-7483A33A85BE";
paths = (
{
closed = 1;
nodes = (
"266.36 575.97 OFFCURVE",
"265.89 575.55 OFFCURVE",
"264.46 575.09 CURVE",
"264.93 575.5 OFFCURVE",
"265.39 575.92 OFFCURVE",
"265.86 576.33 CURVE"
);
},
{
closed = 1;
nodes = (
"427.11 305.96 OFFCURVE",
"407.48 284.36 OFFCURVE",
"394.32 264.63 CURVE SMOOTH",
"377.21 238.98 OFFCURVE",
"382.01 219.28 OFFCURVE",
"375.04 194.34 CURVE",
"383.07 187.18 OFFCURVE",
"381.92 182.38 OFFCURVE",
"371.57 179.95 CURVE",
"363.12 174.86 OFFCURVE",
"354.42 170.27 OFFCURVE",
"345.48 166.18 CURVE SMOOTH",
"327.6 157.87 OFFCURVE",
"308.56 150.85 OFFCURVE",
"289.52 146.53 CURVE SMOOTH",
"258.42 139.48 OFFCURVE",
"216.46 134.63 OFFCURVE",
"190.66 154.52 CURVE SMOOTH",
"143.08 191.2 OFFCURVE",
"175.31 300.34 OFFCURVE",
"186.86 351.23 CURVE SMOOTH",
"204.16 427.41 OFFCURVE",
"231.92 502.57 OFFCURVE",
"271.02 571.72 CURVE",
"306.56 535.43 OFFCURVE",
"318.64 373.02 OFFCURVE",
"379.29 379.1 CURVE SMOOTH",
"456.47 386.85 OFFCURVE",
"475.59 514.55 OFFCURVE",
"481.24 569.77 CURVE SMOOTH",
"486.23 618.56 OFFCURVE",
"489.07 667.51 OFFCURVE",
"489.89 716.26 CURVE SMOOTH",
"490.44 748.63 OFFCURVE",
"498.82 800.05 OFFCURVE",
"485.75 830.47 CURVE SMOOTH",
"470.22 866.6 OFFCURVE",
"437.7 858.4 OFFCURVE",
"410.76 833.92 CURVE SMOOTH",
"378.51 804.63 OFFCURVE",
"365.66 762.83 OFFCURVE",
"360.37 722.18 CURVE",
"246.2 773.38 OFFCURVE",
"145.28 521.2 OFFCURVE",
"117.04 450.7 CURVE SMOOTH",
"71.61 337.26 OFFCURVE",
"-0.01 159.48 OFFCURVE",
"49.48 43.49 CURVE SMOOTH",
"103.1 -82.21 OFFCURVE",
"300.66 5.04 OFFCURVE",
"384.94 61.49 CURVE SMOOTH",
"435.47 95.34 OFFCURVE",
"493.26 139.08 OFFCURVE",
"516.31 197.25 CURVE SMOOTH",
"531.8 236.34 OFFCURVE",
"510.46 343.01 OFFCURVE",
"449.2 315.76 CURVE SMOOTH"
);
}
);
width = 537;
}
);
unicode = 0043;
},
{
glyphname = D;
layers = (
{
layerId = "4E44DDC3-06E7-48B7-B703-88785A848E58";
paths = (
{
closed = 1;
nodes = (
"579.6 356.98 OFFCURVE",
"494.05 304.1 OFFCURVE",
"435.25 268.81 CURVE SMOOTH",
"345.63 215.01 OFFCURVE",
"249.81 174.74 OFFCURVE",
"153.14 136.29 CURVE",
"188.06 333.07 OFFCURVE",
"215.21 531.16 OFFCURVE",
"247.97 728.32 CURVE",
"324.64 693.55 OFFCURVE",
"399.42 654.31 OFFCURVE",
"466.77 605.66 CURVE SMOOTH",
"520.34 566.96 OFFCURVE",
"594.03 507.91 OFFCURVE",
"586.9 433.33 CURVE SMOOTH"
);
},
{
closed = 1;
nodes = (
"464.02 737.24 OFFCURVE",
"309.3 799.51 OFFCURVE",
"163.35 859.47 CURVE SMOOTH",
"127.62 874.15 OFFCURVE",
"35.39 816.51 OFFCURVE",
"84.12 797.08 CURVE SMOOTH",
"106.75 788.05 OFFCURVE",
"129.55 778.83 OFFCURVE",
"152.37 769.46 CURVE",
"151.67 767.74 OFFCURVE",
"150.93 766.03 OFFCURVE",
"150.62 764.25 CURVE SMOOTH",
"112.53 546.41 OFFCURVE",
"79.52 327.7 OFFCURVE",
"42.53 109.66 CURVE SMOOTH",
"41.37 102.82 OFFCURVE",
"43.19 97.81 OFFCURVE",
"46.73 94.08 CURVE",
"32.46 88.37 OFFCURVE",
"18.2 82.66 OFFCURVE",
"3.99 76.81 CURVE SMOOTH",
"-57.14 51.63 OFFCURVE",
"-38.19 0 OFFCURVE",
"24.97 19.96 CURVE SMOOTH",
"189.01 71.81 OFFCURVE",
"358.47 140.72 OFFCURVE",
"504.13 233.47 CURVE SMOOTH",
"577.62 280.26 OFFCURVE",
"669.73 345.25 OFFCURVE",
"688.06 437.22 CURVE SMOOTH",
"704.38 519.11 OFFCURVE",
"646.69 587.64 OFFCURVE",
"587.41 636.2 CURVE SMOOTH"
);
}
);
width = 697;
},
{
layerId = "AF926F6A-8B43-44FC-95BD-7483A33A85BE";
paths = (
{
closed = 1;
nodes = (
"5 823 OFFCURVE",
"-50 773 OFFCURVE",
"-29 737 CURVE",
"-25 730 OFFCURVE",
"-18 725 OFFCURVE",
"-13 719 CURVE",
"-6 711 OFFCURVE",
"-1 701 OFFCURVE",
"5 693 CURVE",
"20 671 OFFCURVE",
"35 649 OFFCURVE",
"48 626 CURVE",
"47 630 OFFCURVE",
"45 632 OFFCURVE",
"44 634 CURVE",
"68 595 OFFCURVE",
"93 552 OFFCURVE",
"111 508 CURVE",
"118 490 OFFCURVE",
"114 469 OFFCURVE",
"112 450 CURVE",
"111 426 OFFCURVE",
"109 402 OFFCURVE",
"107 378 CURVE",
"105 330 OFFCURVE",
"101 281 OFFCURVE",
"97 233 CURVE",
"96 215 OFFCURVE",
"95 197 OFFCURVE",
"95 179 CURVE",
"94 162 OFFCURVE",
"93 160 OFFCURVE",
"77 156 CURVE",
"45 149 OFFCURVE",
"11 134 OFFCURVE",
"-11 108 CURVE",
"-29 89 OFFCURVE",
"-61 30 OFFCURVE",
"-19 21 CURVE",
"-5 16 OFFCURVE",
"12 22 OFFCURVE",
"26 25 CURVE",
"49 28 OFFCURVE",
"70 31 OFFCURVE",
"92 35 CURVE",
"111 39 OFFCURVE",
"131 42 OFFCURVE",
"150 46 CURVE",
"179 52 OFFCURVE",
"192 56 OFFCURVE",
"214 61 CURVE",
"304 82 OFFCURVE",
"393 107 OFFCURVE",
"480 140 CURVE",
"557 170 OFFCURVE",
"635 207 OFFCURVE",
"692 269 CURVE",
"722 300 OFFCURVE",
"746 338 OFFCURVE",
"753 380 CURVE",
"758 424 OFFCURVE",
"732 456 OFFCURVE",
"701 484 CURVE",
"633 543 OFFCURVE",
"545 579 OFFCURVE",
"467 622 CURVE",
"391 663 OFFCURVE",
"318 707 OFFCURVE",
"243 749 CURVE",
"214 766 OFFCURVE",
"185 783 OFFCURVE",
"155 799 CURVE",
"144 805 OFFCURVE",
"133 808 OFFCURVE",
"122 815 CURVE",
"114 821 OFFCURVE",
"106 829 OFFCURVE",
"98 834 CURVE",
"77 848 OFFCURVE",
"52 851 OFFCURVE",
"31 839 CURVE"
);
},
{
closed = 1;
nodes = (
"307 348 OFFCURVE",
"296 458 OFFCURVE",
"257 566 CURVE",
"322 525 OFFCURVE",
"388 486 OFFCURVE",
"453 446 CURVE",
"511 411 OFFCURVE",
"578 373 OFFCURVE",
"622 320 CURVE",
"574 284 OFFCURVE",
"517 266 OFFCURVE",
"461 248 CURVE",
"396 228 OFFCURVE",
"331 210 OFFCURVE",
"264 195 CURVE",
"268 209 OFFCURVE",
"271 223 OFFCURVE",
"275 236 CURVE"
);
}
);
width = 725;
}
);
unicode = 0044;
},
{
glyphname = Eth;
layers = (
{
components = (
{
name = D;
}
);
layerId = "4E44DDC3-06E7-48B7-B703-88785A848E58";
paths = (
{
closed = 1;
nodes = (
"199 456 OFFCURVE",
"133 459 OFFCURVE",
"67 461 CURVE",
"47 462 OFFCURVE",
"17 449 OFFCURVE",
"6 431 CURVE",
"-3 415 OFFCURVE",
"3 398 OFFCURVE",
"23 397 CURVE",
"89 391 OFFCURVE",
"155 386 OFFCURVE",
"221 385 CURVE",
"242 384 OFFCURVE",
"271 396 OFFCURVE",
"281 415 CURVE",
"290 431 OFFCURVE",
"285 449 OFFCURVE",
"264 450 CURVE"
);
}
);
width = 600;
},
{
components = (
{
name = D;
},
{
name = hyphen;
}
);
layerId = "AF926F6A-8B43-44FC-95BD-7483A33A85BE";
width = 725;
}
);
unicode = 00D0;
},
{
glyphname = E;
layers = (
{
layerId = "4E44DDC3-06E7-48B7-B703-88785A848E58";
paths = (
{
closed = 1;
nodes = (
"540.89 843.12 OFFCURVE",
"420.29 833.55 OFFCURVE",
"303.69 806.32 CURVE",
"298.88 841.65 OFFCURVE",
"212.47 821.66 OFFCURVE",
"200.56 788.82 CURVE SMOOTH",
"199.03 784.59 OFFCURVE",
"197.59 780.33 OFFCURVE",
"196.08 776.1 CURVE",
"189.83 774.06 OFFCURVE",
"183.56 772.04 OFFCURVE",
"177.34 769.92 CURVE SMOOTH",
"133.22 754.85 OFFCURVE",
"123.66 700.95 OFFCURVE",
"172.85 708.16 CURVE",
"110.07 516.13 OFFCURVE",
"67.98 317.32 OFFCURVE",
"31.71 118.66 CURVE",
"-6.3 102.7 OFFCURVE",
"-42.86 58.29 OFFCURVE",
"18.8 56.95 CURVE SMOOTH",
"19.4 56.94 OFFCURVE",
"20 56.95 OFFCURVE",
"20.59 56.94 CURVE",
"19.92 53.15 OFFCURVE",
"19.23 49.36 OFFCURVE",
"18.57 45.58 CURVE SMOOTH",
"11.55 5.84 OFFCURVE",
"101.32 23.01 OFFCURVE",
"124.76 57.04 CURVE",
"250.13 59.18 OFFCURVE",
"374.98 66.66 OFFCURVE",
"500.8 56.81 CURVE SMOOTH",
"523.61 55.02 OFFCURVE",
"558.34 61.33 OFFCURVE",
"571.53 82.91 CURVE SMOOTH",
"582.1 100.21 OFFCURVE",
"582.1 120.37 OFFCURVE",
"556.64 123.26 CURVE SMOOTH",
"419.06 138.89 OFFCURVE",
"279.52 135.38 OFFCURVE",
"141.01 128.69 CURVE",
"157.46 218.05 OFFCURVE",
"175.48 306.76 OFFCURVE",
"195.5 394.93 CURVE",
"266.08 409.45 OFFCURVE",
"336.11 418.91 OFFCURVE",
"408.77 424.54 CURVE SMOOTH",
"429.54 426.15 OFFCURVE",
"460.06 435.5 OFFCURVE",
"470.92 455.26 CURVE SMOOTH",
"479.54 470.95 OFFCURVE",
"475.81 487.36 OFFCURVE",
"454.12 488.72 CURVE SMOOTH",
"371.76 493.88 OFFCURVE",
"291.36 482.09 OFFCURVE",
"211.64 464.01 CURVE",
"233.59 555.32 OFFCURVE",
"257.96 646.1 OFFCURVE",
"285.23 736.48 CURVE",
"389.79 760.12 OFFCURVE",
"494.94 772.3 OFFCURVE",
"603.76 756.16 CURVE SMOOTH",
"640.47 750.72 OFFCURVE",
"720.75 811.29 OFFCURVE",
"659.36 822.16 CURVE SMOOTH"
);
}
);
width = 633;
},
{
layerId = "AF926F6A-8B43-44FC-95BD-7483A33A85BE";
paths = (
{
closed = 1;
nodes = (
"445 203 OFFCURVE",
"214 178 OFFCURVE",
"129 159 CURVE",
"140 192 OFFCURVE",
"145 239 OFFCURVE",
"162 268 CURVE",
"176 291 OFFCURVE",
"169 291 OFFCURVE",
"201 295 CURVE",
"220 298 OFFCURVE",
"238 300 OFFCURVE",
"256 302 CURVE",
"312 307 OFFCURVE",
"376 297 OFFCURVE",
"414 348 CURVE",
"441 384 OFFCURVE",
"460 444 OFFCURVE",
"405 449 CURVE",
"341 455 OFFCURVE",
"261 431 OFFCURVE",
"198 416 CURVE",
"209 469 OFFCURVE",
"217 523 OFFCURVE",
"221 576 CURVE",
"296 538 OFFCURVE",
"381 498 OFFCURVE",
"470 512 CURVE",
"504 517 OFFCURVE",
"536 531 OFFCURVE",
"558 558 CURVE",
"574 577 OFFCURVE",
"603 631 OFFCURVE",
"577 649 CURVE",
"562 660 OFFCURVE",
"542 644 OFFCURVE",
"525 641 CURVE",
"503 637 OFFCURVE",
"482 637 OFFCURVE",
"461 641 CURVE",
"407 651 OFFCURVE",
"360 679 OFFCURVE",
"314 706 CURVE",
"259 739 OFFCURVE",
"174 838 OFFCURVE",
"112 759 CURVE",
"92 734 OFFCURVE",
"72 693 OFFCURVE",
"87 663 CURVE",
"96 645 OFFCURVE",
"114 639 OFFCURVE",
"121 619 CURVE",
"129 598 OFFCURVE",
"127 568 OFFCURVE",
"126 544 CURVE",
"124 501 OFFCURVE",
"115 457 OFFCURVE",
"106 414 CURVE",
"98 373 OFFCURVE",
"63 339 OFFCURVE",
"65 297 CURVE",
"67 278 OFFCURVE",
"72 275 OFFCURVE",
"69 254 CURVE",
"65 232 OFFCURVE",
"56 209 OFFCURVE",
"49 188 CURVE",
"35 145 OFFCURVE",
"-4 87 OFFCURVE",
"-4 43 CURVE",
"-4 1 OFFCURVE",
"22 9 OFFCURVE",
"52 17 CURVE",
"98 30 OFFCURVE",
"142 35 OFFCURVE",
"189 37 CURVE",
"309 44 OFFCURVE",
"318 40 OFFCURVE",
"438 45 CURVE",
"483 47 OFFCURVE",
"518 54 OFFCURVE",
"545 95 CURVE",
"569 131 OFFCURVE",
"581 185 OFFCURVE",
"527 192 CURVE"
);
}
);
width = 567;
}
);
unicode = 0045;
},
{
glyphname = F;
layers = (
{
layerId = "4E44DDC3-06E7-48B7-B703-88785A848E58";
paths = (
{
closed = 1;
nodes = (
"454 866 OFFCURVE",
"314 841 OFFCURVE",
"179 776 CURVE SMOOTH",
"125 750 OFFCURVE",
"159 709 OFFCURVE",
"205 725 CURVE",
"176 636 OFFCURVE",
"152 546 OFFCURVE",
"131 456 CURVE",
"108 448 OFFCURVE",
"86 439 OFFCURVE",
"64 429 CURVE SMOOTH",
"4 402 OFFCURVE",
"16 351 OFFCURVE",
"81 375 CURVE SMOOTH",
"92 379 OFFCURVE",
"104 383 OFFCURVE",
"115 387 CURVE",
"90 274 OFFCURVE",
"70 160 OFFCURVE",
"52 45 CURVE SMOOTH",
"45 -1 OFFCURVE",
"159 27 OFFCURVE",
"165 69 CURVE SMOOTH",
"182 186 OFFCURVE",
"204 303 OFFCURVE",
"230 418 CURVE",
"296 432 OFFCURVE",
"362 440 OFFCURVE",
"437 435 CURVE SMOOTH",
"470 433 OFFCURVE",
"541 498 OFFCURVE",
"484 502 CURVE SMOOTH",
"401 508 OFFCURVE",
"323 504 OFFCURVE",
"246 488 CURVE",
"267 580 OFFCURVE",
"291 672 OFFCURVE",
"319 763 CURVE",
"399 785 OFFCURVE",
"478 795 OFFCURVE",
"564 797 CURVE SMOOTH",
"607 798 OFFCURVE",
"670 863 OFFCURVE",
"600 864 CURVE SMOOTH"
);
}
);
width = 483;
},
{
layerId = "AF926F6A-8B43-44FC-95BD-7483A33A85BE";
paths = (
{
closed = 1;
nodes = (
"414 878 OFFCURVE",
"315 838 OFFCURVE",
"224 795 CURVE SMOOTH",
"171 770 OFFCURVE",
"88 742 OFFCURVE",
"63 684 CURVE SMOOTH",
"39 628 OFFCURVE",
"95 600 OFFCURVE",
"112 553 CURVE SMOOTH",
"118 536 OFFCURVE",
"121 516 OFFCURVE",
"117 497 CURVE SMOOTH",
"111 468 OFFCURVE",
"88 465 OFFCURVE",
"63 447 CURVE SMOOTH",
"40 431 OFFCURVE",
"-27 370 OFFCURVE",
"8 340 CURVE SMOOTH",
"29 322 OFFCURVE",
"85 366 OFFCURVE",
"104 376 CURVE",
"96 305 OFFCURVE",
"87 233 OFFCURVE",
"80 161 CURVE SMOOTH",
"77 130 OFFCURVE",
"49 8 OFFCURVE",
"85 -9 CURVE SMOOTH",
"127 -29 OFFCURVE",
"176 57 OFFCURVE",
"188 84 CURVE SMOOTH",
"218 152 OFFCURVE",
"230 227 OFFCURVE",
"240 298 CURVE SMOOTH",
"245 333 OFFCURVE",
"251 368 OFFCURVE",
"253 403 CURVE SMOOTH",
"255 431 OFFCURVE",
"249 428 OFFCURVE",
"276 439 CURVE SMOOTH",
"291 445 OFFCURVE",
"311 446 OFFCURVE",
"327 448 CURVE SMOOTH",
"389 456 OFFCURVE",
"454 445 OFFCURVE",
"490 509 CURVE SMOOTH",
"566 645 OFFCURVE",
"300 560 OFFCURVE",
"252 542 CURVE",
"248 577 OFFCURVE",
"203 667 OFFCURVE",
"232 697 CURVE SMOOTH",
"247 713 OFFCURVE",
"296 718 OFFCURVE",
"317 724 CURVE SMOOTH",
"351 734 OFFCURVE",
"386 743 OFFCURVE",
"421 750 CURVE SMOOTH",
"464 759 OFFCURVE",
"486 735 OFFCURVE",
"521 778 CURVE SMOOTH",
"549 812 OFFCURVE",
"585 888 OFFCURVE",
"514 884 CURVE SMOOTH"
);
}
);
width = 517;
}
);
unicode = 0046;
},
{
glyphname = G;
layers = (
{
layerId = "4E44DDC3-06E7-48B7-B703-88785A848E58";
paths = (
{
closed = 1;
nodes = (
"501.95 383.36 OFFCURVE",
"432.55 371.95 OFFCURVE",
"363.41 359.25 CURVE SMOOTH",
"326.8 352.52 OFFCURVE",
"275.09 288.16 OFFCURVE",
"341.74 295.51 CURVE SMOOTH",
"363.9 297.96 OFFCURVE",
"386 300.83 OFFCURVE",
"408.08 303.85 CURVE",
"383.11 220.3 OFFCURVE",
"323.89 78.84 OFFCURVE",
"215.69 132.75 CURVE SMOOTH",
"179.49 150.79 OFFCURVE",
"158.51 191.2 OFFCURVE",
"153.36 229.79 CURVE SMOOTH",
"140.34 327.27 OFFCURVE",
"198.73 432.54 OFFCURVE",
"248.85 511.36 CURVE SMOOTH",
"304.65 599.13 OFFCURVE",
"375.07 686.73 OFFCURVE",
"459.11 749.1 CURVE SMOOTH",
"472.4 758.97 OFFCURVE",
"486.32 766.74 OFFCURVE",
"500.23 775.52 CURVE",
"512 763 OFFCURVE",
"517 749 OFFCURVE",
"510.6 708.26 CURVE SMOOTH",
"504.23 665.63 OFFCURVE",
"610.18 691.04 OFFCURVE",
"616.11 730.32 CURVE SMOOTH",
"628.78 814.17 OFFCURVE",
"589.45 865.45 OFFCURVE",
"501.15 840.57 CURVE SMOOTH",
"406.04 813.77 OFFCURVE",
"326.56 731.83 OFFCURVE",
"262.79 660.47 CURVE SMOOTH",
"157.4 542.52 OFFCURVE",
"-71.42 235.27 OFFCURVE",
"106.1 88.47 CURVE SMOOTH",
"173.42 32.81 OFFCURVE",
"280.81 40.85 OFFCURVE",
"353.19 81.77 CURVE SMOOTH",
"441.47 131.68 OFFCURVE",
"486.3 225.38 OFFCURVE",
"513.13 319.18 CURVE",
"515 320 OFFCURVE",
"480 15 OFFCURVE",
"480.04 14.53 CURVE SMOOTH",
"475.31 -29.98 OFFCURVE",
"579.29 -4.2 OFFCURVE",
"583.76 35.56 CURVE SMOOTH",
"596.3 147.12 OFFCURVE",
"606.98 258.89 OFFCURVE",
"620.15 370.39 CURVE SMOOTH",
"623.14 395.68 OFFCURVE",
"586.82 395.67 OFFCURVE",
"571.52 393.45 CURVE SMOOTH"
);
}
);
width = 644;
},
{
layerId = "AF926F6A-8B43-44FC-95BD-7483A33A85BE";
paths = (
{
closed = 1;
nodes = (
"550 170 OFFCURVE",
"553 217 OFFCURVE",
"558 263 CURVE SMOOTH",
"561 293 OFFCURVE",
"574 331 OFFCURVE",
"568 361 CURVE SMOOTH",
"554 429 OFFCURVE",
"414 383 OFFCURVE",
"366 376 CURVE SMOOTH",
"296 366 OFFCURVE",
"219 371 OFFCURVE",
"191 287 CURVE SMOOTH",
"180 254 OFFCURVE",
"185 234 OFFCURVE",
"219 231 CURVE SMOOTH",
"232 230 OFFCURVE",
"244 238 OFFCURVE",
"256 236 CURVE SMOOTH",
"281 232 OFFCURVE",
"286 222 OFFCURVE",
"295 195 CURVE",
"182 191 OFFCURVE",
"136 276 OFFCURVE",
"156 380 CURVE SMOOTH",
"172 464 OFFCURVE",
"216 600 OFFCURVE",
"292 655 CURVE SMOOTH",
"372 713 OFFCURVE",
"445 606 OFFCURVE",
"402 532 CURVE SMOOTH",
"388 508 OFFCURVE",
"337 460 OFFCURVE",
"362 428 CURVE SMOOTH",
"390 393 OFFCURVE",
"449 464 OFFCURVE",
"464 486 CURVE SMOOTH",
"519 567 OFFCURVE",
"554 677 OFFCURVE",
"510 763 CURVE SMOOTH",
"462 856 OFFCURVE",
"348 822 OFFCURVE",
"277 763 CURVE SMOOTH",
"198 697 OFFCURVE",
"141 604 OFFCURVE",
"99 513 CURVE SMOOTH",
"55 417 OFFCURVE",
"11 300 OFFCURVE",
"19 197 CURVE SMOOTH",
"28 79 OFFCURVE",
"135 14 OFFCURVE",
"249 38 CURVE SMOOTH",
"301 49 OFFCURVE",
"346 80 OFFCURVE",
"377 124 CURVE SMOOTH",
"393 147 OFFCURVE",
"406 174 OFFCURVE",
"413 201 CURVE SMOOTH",
"423 238 OFFCURVE",
"409 249 OFFCURVE",
"452 252 CURVE",
"441 192 OFFCURVE",
"434 131 OFFCURVE",
"432 70 CURVE SMOOTH",
"431 34 OFFCURVE",
"424 -57 OFFCURVE",
"459 -77 CURVE SMOOTH",
"493 -96 OFFCURVE",
"534 -48 OFFCURVE",
"550 -21 CURVE SMOOTH",
"578 26 OFFCURVE",
"556 74 OFFCURVE",
"553 125 CURVE SMOOTH"
);
}
);
width = 594;
}
);
unicode = 0047;
},
{
glyphname = Gcommaaccent;
layers = (
{
components = (
{
name = uni0326;
},
{
name = G;
}
);
layerId = "4E44DDC3-06E7-48B7-B703-88785A848E58";
width = 600;
},
{
components = (
{
name = uni0326;
transform = "{1, 0, 0, 1, -38, -37}";
}
);
layerId = "AF926F6A-8B43-44FC-95BD-7483A33A85BE";
paths = (
{
closed = 1;
nodes = (
"550 170 OFFCURVE",
"553 217 OFFCURVE",
"558 263 CURVE SMOOTH",
"561 293 OFFCURVE",
"574 331 OFFCURVE",
"568 361 CURVE SMOOTH",
"554 429 OFFCURVE",
"414 383 OFFCURVE",
"366 376 CURVE SMOOTH",
"296 366 OFFCURVE",
"219 371 OFFCURVE",
"191 287 CURVE SMOOTH",
"180 254 OFFCURVE",
"185 234 OFFCURVE",
"219 231 CURVE SMOOTH",
"232 230 OFFCURVE",
"244 238 OFFCURVE",
"256 236 CURVE SMOOTH",
"281 232 OFFCURVE",
"286 222 OFFCURVE",
"295 195 CURVE",
"182 191 OFFCURVE",
"136 276 OFFCURVE",
"156 380 CURVE SMOOTH",
"172 464 OFFCURVE",
"216 600 OFFCURVE",
"292 655 CURVE SMOOTH",
"372 713 OFFCURVE",
"445 606 OFFCURVE",
"402 532 CURVE SMOOTH",
"388 508 OFFCURVE",
"337 460 OFFCURVE",
"362 428 CURVE SMOOTH",
"390 393 OFFCURVE",
"449 464 OFFCURVE",
"464 486 CURVE SMOOTH",
"519 567 OFFCURVE",
"554 677 OFFCURVE",
"510 763 CURVE SMOOTH",
"462 856 OFFCURVE",
"348 822 OFFCURVE",
"277 763 CURVE SMOOTH",
"198 697 OFFCURVE",
"141 604 OFFCURVE",
"99 513 CURVE SMOOTH",
"55 417 OFFCURVE",
"11 300 OFFCURVE",
"19 197 CURVE SMOOTH",
"28 79 OFFCURVE",
"135 14 OFFCURVE",
"249 38 CURVE SMOOTH",
"301 49 OFFCURVE",
"346 80 OFFCURVE",
"377 124 CURVE SMOOTH",
"393 147 OFFCURVE",
"406 174 OFFCURVE",
"413 201 CURVE SMOOTH",
"423 238 OFFCURVE",
"409 249 OFFCURVE",
"452 252 CURVE",
"441 192 OFFCURVE",
"434 131 OFFCURVE",
"432 70 CURVE SMOOTH",
"431 34 OFFCURVE",
"424 -57 OFFCURVE",
"459 -77 CURVE SMOOTH",
"493 -96 OFFCURVE",
"534 -48 OFFCURVE",
"550 -21 CURVE SMOOTH",
"578 26 OFFCURVE",
"556 74 OFFCURVE",
"553 125 CURVE SMOOTH"
);
}
);
width = 594;
}
);
unicode = 0122;
},
{
glyphname = H;
layers = (
{
layerId = "4E44DDC3-06E7-48B7-B703-88785A848E58";
paths = (
{
closed = 1;
nodes = (
"476 711 OFFCURVE",
"436 596 OFFCURVE",
"402 478 CURVE",
"335 468 OFFCURVE",
"269 453 OFFCURVE",
"204 432 CURVE",
"235 561 OFFCURVE",
"273 689 OFFCURVE",
"322 813 CURVE",
"342 863 OFFCURVE",
"234 841 OFFCURVE",
"220 807 CURVE",
"163 673 OFFCURVE",
"120 531 OFFCURVE",
"87 388 CURVE",
"45 368 OFFCURVE",
"45 334 OFFCURVE",
"74 328 CURVE",
"56 240 OFFCURVE",
"41 152 OFFCURVE",
"28 65 CURVE",
"21 19 OFFCURVE",
"134 47 OFFCURVE",
"140 88 CURVE",
"154 179 OFFCURVE",
"169 269 OFFCURVE",
"188 358 CURVE",
"252 378 OFFCURVE",
"316 394 OFFCURVE",
"382 406 CURVE",
"351 287 OFFCURVE",
"327 165 OFFCURVE",
"310 43 CURVE",
"304 -1 OFFCURVE",
"416 26 OFFCURVE",
"422 67 CURVE",
"440 188 OFFCURVE",
"463 306 OFFCURVE",
"493 422 CURVE",
"497 423 OFFCURVE",
"500 423 OFFCURVE",
"504 424 CURVE",
"542 428 OFFCURVE",
"612 492 OFFCURVE",
"538 490 CURVE",
"529 490 OFFCURVE",
"520 489 OFFCURVE",
"511 489 CURVE",
"543 604 OFFCURVE",
"581 717 OFFCURVE",
"626 829 CURVE",
"646 878 OFFCURVE",
"540 857 OFFCURVE",
"525 823 CURVE"
);
}
);
width = 590;
},
{
layerId = "AF926F6A-8B43-44FC-95BD-7483A33A85BE";
paths = (
{
closed = 1;
nodes = (
"472 492 LINE",
"447 489 OFFCURVE",
"421 485 OFFCURVE",
"395 482 CURVE",
"394 510 OFFCURVE",
"393 538 OFFCURVE",
"392 566 CURVE",
"392 580 OFFCURVE",
"391 594 OFFCURVE",
"391 607 CURVE",
"389 646 OFFCURVE",
"387 687 OFFCURVE",
"389 726 CURVE",
"389 729 OFFCURVE",
"389 733 OFFCURVE",
"390 737 CURVE",
"392 758 OFFCURVE",
"395 785 OFFCURVE",
"380 802 CURVE",
"363 819 OFFCURVE",
"337 814 OFFCURVE",
"318 801 CURVE",
"318 801 LINE",
"287 779 OFFCURVE",
"269 744 OFFCURVE",
"267 699 CURVE",
"265 655 OFFCURVE",
"265 611 OFFCURVE",
"265 566 CURVE",
"265 564 LINE",
"266 529 OFFCURVE",
"266 493 OFFCURVE",
"266 458 CURVE",
"257 455 OFFCURVE",
"249 453 OFFCURVE",
"240 451 CURVE",
"234 449 LINE",
"219 445 OFFCURVE",
"203 441 OFFCURVE",
"187 435 CURVE",
"190 452 OFFCURVE",
"193 470 OFFCURVE",
"195 487 CURVE",
"200 522 OFFCURVE",
"203 558 OFFCURVE",
"205 592 CURVE",
"207 616 OFFCURVE",
"209 641 OFFCURVE",
"211 666 CURVE",
"212 671 LINE",
"214 692 OFFCURVE",
"217 721 OFFCURVE",
"196 742 CURVE",
"172 765 OFFCURVE",
"134 765 OFFCURVE",
"111 742 CURVE",
"111 742 LINE",
"93 724 OFFCURVE",
"92 700 OFFCURVE",
"91 681 CURVE",
"91 677 LINE",
"90 649 OFFCURVE",
"88 620 OFFCURVE",
"86 596 CURVE",
"82 546 OFFCURVE",
"75 494 OFFCURVE",
"66 441 CURVE",
"61 409 OFFCURVE",
"55 377 OFFCURVE",
"49 345 CURVE",
"34 271 OFFCURVE",
"19 195 OFFCURVE",
"14 118 CURVE",
"12 95 OFFCURVE",
"13 67 OFFCURVE",
"35 47 CURVE",
"48 35 OFFCURVE",
"64 29 OFFCURVE",
"81 29 CURVE",
"90 29 OFFCURVE",
"100 31 OFFCURVE",
"109 35 CURVE",
"132 46 OFFCURVE",
"147 69 OFFCURVE",
"147 95 CURVE",
"148 105 OFFCURVE",
"148 114 OFFCURVE",
"147 123 CURVE",
"147 139 OFFCURVE",
"147 155 OFFCURVE",
"149 171 CURVE",
"152 211 OFFCURVE",
"158 252 OFFCURVE",
"164 292 CURVE",
"167 293 OFFCURVE",
"170 295 OFFCURVE",
"172 296 CURVE",
"188 301 OFFCURVE",
"206 306 OFFCURVE",
"226 311 CURVE",
"239 313 OFFCURVE",
"252 316 OFFCURVE",
"265 318 CURVE",
"265 312 OFFCURVE",
"264 307 OFFCURVE",
"264 302 CURVE",
"264 294 LINE",
"263 223 OFFCURVE",
"261 149 OFFCURVE",
"271 77 CURVE",
"273 59 OFFCURVE",
"278 17 OFFCURVE",
"314 10 CURVE",
"318 9 OFFCURVE",
"321 9 OFFCURVE",
"325 9 CURVE",
"361 9 OFFCURVE",
"392 42 OFFCURVE",
"409 63 CURVE",
"437 99 OFFCURVE",
"446 142 OFFCURVE",
"451 182 CURVE",
"451 185 OFFCURVE",
"451 187 OFFCURVE",
"452 190 CURVE",
"454 205 OFFCURVE",
"457 223 OFFCURVE",
"448 240 CURVE",
"443 250 OFFCURVE",
"434 256 OFFCURVE",
"424 258 CURVE",
"417 260 OFFCURVE",
"409 260 OFFCURVE",
"402 258 CURVE",
"401 283 OFFCURVE",
"400 308 OFFCURVE",
"399 334 CURVE",
"400 334 OFFCURVE",
"401 334 OFFCURVE",
"402 334 CURVE",
"409 335 LINE",
"426 337 OFFCURVE",
"445 339 OFFCURVE",
"463 349 CURVE",
"488 365 OFFCURVE",
"508 394 OFFCURVE",
"515 426 CURVE",
"520 444 OFFCURVE",
"522 469 OFFCURVE",
"509 483 CURVE",
"502 491 OFFCURVE",
"491 495 OFFCURVE",
"479 493 CURVE"
);
}
);
width = 502;
}
);
unicode = 0048;
},
{
glyphname = Hbar;
layers = (
{
components = (
{
name = H;
}
);
layerId = "4E44DDC3-06E7-48B7-B703-88785A848E58";
paths = (
{
closed = 1;
nodes = (
"618 745 OFFCURVE",
"126 660 OFFCURVE",
"62 644 CURVE",
"43 640 OFFCURVE",
"17 620 OFFCURVE",
"11 600 CURVE",
"7 581 OFFCURVE",
"17 567 OFFCURVE",
"36 571 CURVE",
"102 582 OFFCURVE",
"593 666 OFFCURVE",
"657 682 CURVE",
"678 687 OFFCURVE",
"703 705 OFFCURVE",
"708 727 CURVE",
"712 744 OFFCURVE",
"703 761 OFFCURVE",
"682 756 CURVE"
);
}
);
width = 590;
},
{
components = (
{
name = H;
},
{
name = emdash;
transform = "{1, 0, 0, 1, 0, 285}";
}
);
layerId = "AF926F6A-8B43-44FC-95BD-7483A33A85BE";
width = 537;
}
);
unicode = 0126;
},
{
glyphname = I;
layers = (
{
layerId = "4E44DDC3-06E7-48B7-B703-88785A848E58";
paths = (
{
closed = 1;
nodes = (
"475.08 832.44 OFFCURVE",
"419.13 827.08 OFFCURVE",
"363.06 824.02 CURVE",
"360.74 824.03 OFFCURVE",
"358.34 823.87 OFFCURVE",
"355.9 823.66 CURVE SMOOTH",
"302.06 820.89 OFFCURVE",
"248.06 819.96 OFFCURVE",
"192.31 815.01 CURVE SMOOTH",
"168.06 812.86 OFFCURVE",
"82.16 763.95 OFFCURVE",
"143.45 753.89 CURVE SMOOTH",
"188.92 746.42 OFFCURVE",
"236.08 743.62 OFFCURVE",
"283.53 744.63 CURVE",
"263.22 532.26 OFFCURVE",
"212.68 320.27 OFFCURVE",
"160.05 113.89 CURVE",
"119.66 112.62 OFFCURVE",
"79.43 110.42 OFFCURVE",
"39.66 105.42 CURVE SMOOTH",
"17.2 102.6 OFFCURVE",
"-71.43 50.18 OFFCURVE",
"-9.2 44.3 CURVE SMOOTH",
"120.39 32.04 OFFCURVE",
"255.5 39.82 OFFCURVE",
"384.44 55.71 CURVE SMOOTH",
"424.94 60.7 OFFCURVE",
"467.75 129.21 OFFCURVE",
"403.85 122.92 CURVE SMOOTH",
"357.58 118.36 OFFCURVE",
"310.86 116.95 OFFCURVE",
"264.09 116.08 CURVE",
"318.78 322.97 OFFCURVE",
"368.42 538.9 OFFCURVE",
"388.83 752.93 CURVE",
"435.92 759.26 OFFCURVE",
"482.26 768.86 OFFCURVE",
"526.43 781.07 CURVE SMOOTH",
"544.6 786.09 OFFCURVE",
"582.06 799.58 OFFCURVE",
"581.1 824.19 CURVE SMOOTH",
"580.18 847.91 OFFCURVE",
"551.1 851.3 OFFCURVE",
"532.7 846.74 CURVE SMOOTH"
);
}
);
width = 537;
},
{
layerId = "AF926F6A-8B43-44FC-95BD-7483A33A85BE";
paths = (
{
closed = 1;
nodes = (
"67 718 OFFCURVE",
"75 716 OFFCURVE",
"83 715 CURVE",
"95 713 OFFCURVE",
"107 716 OFFCURVE",
"120 722 CURVE",
"154 738 OFFCURVE",
"184 771 OFFCURVE",
"197 808 CURVE",
"209 837 OFFCURVE",
"209 859 OFFCURVE",
"197 875 CURVE",
"178 898 OFFCURVE",
"145 892 OFFCURVE",
"121 878 CURVE",
"85 857 OFFCURVE",
"56 820 OFFCURVE",
"46 779 CURVE",
"41 756 OFFCURVE",
"46 735 OFFCURVE",
"61 724 CURVE"
);
},
{
closed = 1;
nodes = (
"146 157 OFFCURVE",
"145 159 OFFCURVE",
"144 162 CURVE",
"144 167 OFFCURVE",
"143 170 OFFCURVE",
"144 174 CURVE",
"146 192 OFFCURVE",
"148 210 OFFCURVE",
"150 229 CURVE",
"152 249 LINE",
"157 300 OFFCURVE",
"163 356 OFFCURVE",
"167 412 CURVE",
"172 467 OFFCURVE",
"173 522 OFFCURVE",
"176 573 CURVE",
"176 582 OFFCURVE",
"177 591 OFFCURVE",
"177 599 CURVE",
"177 613 OFFCURVE",
"178 627 OFFCURVE",
"179 641 CURVE",
"179 652 OFFCURVE",
"179 683 OFFCURVE",
"154 696 CURVE",
"137 705 OFFCURVE",
"109 706 OFFCURVE",
"71 668 CURVE",
"50 646 OFFCURVE",
"37 620 OFFCURVE",
"32 589 CURVE",
"32 585 OFFCURVE",
"32 582 OFFCURVE",
"31 579 CURVE",
"29 568 OFFCURVE",
"28 558 OFFCURVE",
"28 547 CURVE",
"28 537 OFFCURVE",
"31 530 OFFCURVE",
"34 526 CURVE",
"35 524 OFFCURVE",
"35 522 OFFCURVE",
"36 521 CURVE",
"37 518 OFFCURVE",
"36 509 OFFCURVE",
"35 503 CURVE",
"34 499 OFFCURVE",
"34 496 OFFCURVE",
"34 492 CURVE",
"33 477 OFFCURVE",
"31 462 OFFCURVE",
"30 447 CURVE",
"26 403 OFFCURVE",
"19 358 OFFCURVE",
"13 314 CURVE",
"4 252 OFFCURVE",
"-5 186 OFFCURVE",
"-8 121 CURVE",
"-8 118 OFFCURVE",
"-9 114 OFFCURVE",
"-8 110 CURVE",
"-11 83 OFFCURVE",
"-13 43 OFFCURVE",
"5 22 CURVE",
"12 15 OFFCURVE",
"21 11 OFFCURVE",
"31 10 CURVE",
"33 9 OFFCURVE",
"35 9 OFFCURVE",
"37 9 CURVE",
"95 9 OFFCURVE",
"128 74 OFFCURVE",
"138 112 CURVE",
"140 118 LINE",
"143 129 OFFCURVE",
"147 141 OFFCURVE",
"145 154 CURVE"
);
}
);
width = 181;
}
);
unicode = 0049;
},
{
glyphname = Iacute;
layers = (
{
components = (
{
name = I;
},
{
name = acutecomb;
transform = "{1, 0, 0, 1, 44, 329}";
}
);
layerId = "4E44DDC3-06E7-48B7-B703-88785A848E58";
width = 600;
},
{
components = (
{
name = acutecomb;
transform = "{1, 0, 0, 1, -169, 26}";
}
);
layerId = "AF926F6A-8B43-44FC-95BD-7483A33A85BE";
paths = (
{
closed = 1;
nodes = (
"118 242 OFFCURVE",
"130 319 OFFCURVE",
"133 389 CURVE SMOOTH",
"135 461 OFFCURVE",
"134 533 OFFCURVE",
"134 606 CURVE SMOOTH",
"134 644 OFFCURVE",
"145 751 OFFCURVE",
"73 701 CURVE SMOOTH",
"47 682 OFFCURVE",
"30 651 OFFCURVE",
"23 620 CURVE SMOOTH",
"16 589 OFFCURVE",
"24 570 OFFCURVE",
"27 542 CURVE SMOOTH",
"36 481 OFFCURVE",
"23 411 OFFCURVE",
"18 349 CURVE SMOOTH",
"12 272 OFFCURVE",
"5 195 OFFCURVE",
"5 117 CURVE SMOOTH",
"5 83 OFFCURVE",
"0 20 OFFCURVE",
"52 36 CURVE SMOOTH",
"98 50 OFFCURVE",
"132 130 OFFCURVE",
"126 173 CURVE SMOOTH"
);
}
);
width = 172;
}
);
unicode = 00CD;
},
{
glyphname = Ibreve;
layers = (
{
components = (
{
name = I;
},
{
name = breve;
transform = "{1, 0, 0, 1, 119, 349}";
}
);
layerId = "4E44DDC3-06E7-48B7-B703-88785A848E58";
width = 600;
},
{
components = (
{
name = breve;
transform = "{1, 0, 0, 1, -219, 148}";
}
);
layerId = "AF926F6A-8B43-44FC-95BD-7483A33A85BE";
paths = (
{
closed = 1;
nodes = (
"118 242 OFFCURVE",
"130 319 OFFCURVE",
"133 389 CURVE SMOOTH",
"135 461 OFFCURVE",
"134 533 OFFCURVE",
"134 606 CURVE SMOOTH",
"134 644 OFFCURVE",
"145 751 OFFCURVE",
"73 701 CURVE SMOOTH",
"47 682 OFFCURVE",
"30 651 OFFCURVE",
"23 620 CURVE SMOOTH",
"16 589 OFFCURVE",
"24 570 OFFCURVE",
"27 542 CURVE SMOOTH",
"36 481 OFFCURVE",
"23 411 OFFCURVE",
"18 349 CURVE SMOOTH",
"12 272 OFFCURVE",
"5 195 OFFCURVE",
"5 117 CURVE SMOOTH",
"5 83 OFFCURVE",
"0 20 OFFCURVE",
"52 36 CURVE SMOOTH",
"98 50 OFFCURVE",
"132 130 OFFCURVE",
"126 173 CURVE SMOOTH"
);
}
);
width = 180;
}
);
unicode = 012C;
},
{
glyphname = Icircumflex;
layers = (
{
components = (
{
name = I;
},
{
name = circumflex;
transform = "{1, 0, 0, 1, 88, 388}";
}
);
layerId = "4E44DDC3-06E7-48B7-B703-88785A848E58";
width = 600;
},
{
components = (
{
name = circumflex;
transform = "{1, 0, 0, 1, -191, 138}";
}
);
layerId = "AF926F6A-8B43-44FC-95BD-7483A33A85BE";
paths = (
{
closed = 1;
nodes = (
"118 242 OFFCURVE",
"130 319 OFFCURVE",
"133 389 CURVE SMOOTH",
"135 461 OFFCURVE",
"134 533 OFFCURVE",
"134 606 CURVE SMOOTH",
"134 644 OFFCURVE",
"145 751 OFFCURVE",
"73 701 CURVE SMOOTH",
"47 682 OFFCURVE",
"30 651 OFFCURVE",
"23 620 CURVE SMOOTH",
"16 589 OFFCURVE",
"24 570 OFFCURVE",
"27 542 CURVE SMOOTH",
"36 481 OFFCURVE",
"23 411 OFFCURVE",
"18 349 CURVE SMOOTH",
"12 272 OFFCURVE",
"5 195 OFFCURVE",
"5 117 CURVE SMOOTH",
"5 83 OFFCURVE",
"0 20 OFFCURVE",
"52 36 CURVE SMOOTH",
"98 50 OFFCURVE",
"132 130 OFFCURVE",
"126 173 CURVE SMOOTH"
);
}
);
width = 161;
}
);
unicode = 00CE;
},
{
glyphname = Idieresis;
layers = (
{
components = (
{
name = I;
},
{
name = dieresis;
transform = "{1, 0, 0, 1, 85, 343}";
}
);
layerId = "4E44DDC3-06E7-48B7-B703-88785A848E58";
width = 600;
},
{
components = (
{
name = dieresis;
transform = "{1, 0, 0, 1, -202, 176}";
}
);
layerId = "AF926F6A-8B43-44FC-95BD-7483A33A85BE";
paths = (
{
closed = 1;
nodes = (
"118 242 OFFCURVE",
"130 319 OFFCURVE",
"133 389 CURVE SMOOTH",
"135 461 OFFCURVE",
"134 533 OFFCURVE",
"134 606 CURVE SMOOTH",
"134 644 OFFCURVE",
"145 751 OFFCURVE",
"73 701 CURVE SMOOTH",
"47 682 OFFCURVE",
"30 651 OFFCURVE",
"23 620 CURVE SMOOTH",
"16 589 OFFCURVE",
"24 570 OFFCURVE",
"27 542 CURVE SMOOTH",
"36 481 OFFCURVE",
"23 411 OFFCURVE",
"18 349 CURVE SMOOTH",
"12 272 OFFCURVE",
"5 195 OFFCURVE",
"5 117 CURVE SMOOTH",
"5 83 OFFCURVE",
"0 20 OFFCURVE",
"52 36 CURVE SMOOTH",
"98 50 OFFCURVE",
"132 130 OFFCURVE",
"126 173 CURVE SMOOTH"
);
}
);
width = 161;
}
);
unicode = 00CF;
},
{
glyphname = Idotaccent;
layers = (
{
components = (
{
name = I;
},
{
name = dotaccent;
transform = "{1, 0, 0, 1, 61, 324}";
}
);
layerId = "4E44DDC3-06E7-48B7-B703-88785A848E58";
width = 600;
},
{
components = (
{
name = dotaccent;
transform = "{1, 0, 0, 1, -213, 152}";
}
);
layerId = "AF926F6A-8B43-44FC-95BD-7483A33A85BE";
paths = (
{
closed = 1;
nodes = (
"118 242 OFFCURVE",
"130 319 OFFCURVE",
"133 389 CURVE SMOOTH",
"135 461 OFFCURVE",
"134 533 OFFCURVE",
"134 606 CURVE SMOOTH",
"134 644 OFFCURVE",
"145 751 OFFCURVE",
"73 701 CURVE SMOOTH",
"47 682 OFFCURVE",
"30 651 OFFCURVE",
"23 620 CURVE SMOOTH",
"16 589 OFFCURVE",
"24 570 OFFCURVE",
"27 542 CURVE SMOOTH",
"36 481 OFFCURVE",
"23 411 OFFCURVE",
"18 349 CURVE SMOOTH",
"12 272 OFFCURVE",
"5 195 OFFCURVE",
"5 117 CURVE SMOOTH",
"5 83 OFFCURVE",
"0 20 OFFCURVE",
"52 36 CURVE SMOOTH",
"98 50 OFFCURVE",
"132 130 OFFCURVE",
"126 173 CURVE SMOOTH"
);
}
);
width = 171;
}
);
unicode = 0130;
},
{
glyphname = Igrave;
layers = (
{
components = (
{
name = I;
},
{
name = gravecomb;
transform = "{1, 0, 0, 1, 28, 325}";
}
);
layerId = "4E44DDC3-06E7-48B7-B703-88785A848E58";
width = 600;
},
{
components = (
{
name = gravecomb;
transform = "{1, 0, 0, 1, -228, -47}";
}
);
layerId = "AF926F6A-8B43-44FC-95BD-7483A33A85BE";
paths = (
{
closed = 1;
nodes = (
"118 242 OFFCURVE",
"130 319 OFFCURVE",
"133 389 CURVE SMOOTH",
"135 461 OFFCURVE",
"134 533 OFFCURVE",
"134 606 CURVE SMOOTH",
"134 644 OFFCURVE",
"145 751 OFFCURVE",
"73 701 CURVE SMOOTH",
"47 682 OFFCURVE",
"30 651 OFFCURVE",
"23 620 CURVE SMOOTH",
"16 589 OFFCURVE",
"24 570 OFFCURVE",
"27 542 CURVE SMOOTH",
"36 481 OFFCURVE",
"23 411 OFFCURVE",
"18 349 CURVE SMOOTH",
"12 272 OFFCURVE",
"5 195 OFFCURVE",
"5 117 CURVE SMOOTH",
"5 83 OFFCURVE",
"0 20 OFFCURVE",
"52 36 CURVE SMOOTH",
"98 50 OFFCURVE",
"132 130 OFFCURVE",
"126 173 CURVE SMOOTH"
);
}
);
width = 181;
}
);
unicode = 00CC;
},
{
glyphname = Imacron;
layers = (
{
components = (
{
name = I;
},
{
name = macron;
transform = "{0.9925, 0.1219, -0.1219, 0.9925, 148, 295}";
}
);
layerId = "4E44DDC3-06E7-48B7-B703-88785A848E58";
width = 537;
},
{
components = (
{
name = macron;
transform = "{1, 0, 0, 1, -79, 153}";
}
);
layerId = "AF926F6A-8B43-44FC-95BD-7483A33A85BE";
paths = (
{
closed = 1;
nodes = (
"244 242 OFFCURVE",
"256 319 OFFCURVE",
"259 389 CURVE SMOOTH",
"261 461 OFFCURVE",
"260 533 OFFCURVE",
"260 606 CURVE SMOOTH",
"260 644 OFFCURVE",
"271 751 OFFCURVE",
"199 701 CURVE SMOOTH",
"173 682 OFFCURVE",
"156 651 OFFCURVE",
"149 620 CURVE SMOOTH",
"142 589 OFFCURVE",
"150 570 OFFCURVE",
"153 542 CURVE SMOOTH",
"162 481 OFFCURVE",
"149 411 OFFCURVE",
"144 349 CURVE SMOOTH",
"138 272 OFFCURVE",
"131 195 OFFCURVE",
"131 117 CURVE SMOOTH",
"131 83 OFFCURVE",
"126 20 OFFCURVE",
"178 36 CURVE SMOOTH",
"224 50 OFFCURVE",
"258 130 OFFCURVE",
"252 173 CURVE SMOOTH"
);
}
);
width = 451;
}
);
unicode = 012A;
},
{
glyphname = Itilde;
layers = (
{
components = (
{
name = I;
},
{
name = tildecomb;
transform = "{1, 0, 0, 1, 27, 324}";
}
);
layerId = "4E44DDC3-06E7-48B7-B703-88785A848E58";
width = 540;
},
{
components = (
{
name = tildecomb;
transform = "{1, 0, 0, 1, -166, 147}";
}
);
layerId = "AF926F6A-8B43-44FC-95BD-7483A33A85BE";
paths = (
{
closed = 1;
nodes = (
"188 242 OFFCURVE",
"200 319 OFFCURVE",
"203 389 CURVE SMOOTH",
"205 461 OFFCURVE",
"204 533 OFFCURVE",
"204 606 CURVE SMOOTH",
"204 644 OFFCURVE",
"215 751 OFFCURVE",
"143 701 CURVE SMOOTH",
"117 682 OFFCURVE",
"100 651 OFFCURVE",
"93 620 CURVE SMOOTH",
"86 589 OFFCURVE",
"94 570 OFFCURVE",
"97 542 CURVE SMOOTH",
"106 481 OFFCURVE",
"93 411 OFFCURVE",
"88 349 CURVE SMOOTH",
"82 272 OFFCURVE",
"75 195 OFFCURVE",
"75 117 CURVE SMOOTH",
"75 83 OFFCURVE",
"70 20 OFFCURVE",
"122 36 CURVE SMOOTH",
"168 50 OFFCURVE",
"202 130 OFFCURVE",
"196 173 CURVE SMOOTH"
);
}
);
width = 316;
}
);
unicode = 0128;
},
{
glyphname = J;
layers = (
{
layerId = "4E44DDC3-06E7-48B7-B703-88785A848E58";
paths = (
{
closed = 1;
nodes = (
"537 815 OFFCURVE",
"422 810 OFFCURVE",
"298 799 CURVE SMOOTH",
"274 797 OFFCURVE",
"178 747 OFFCURVE",
"238 738 CURVE SMOOTH",
"291 730 OFFCURVE",
"347 730 OFFCURVE",
"404 735 CURVE",
"426 588 OFFCURVE",
"444 431 OFFCURVE",
"408 275 CURVE SMOOTH",
"389 194 OFFCURVE",
"348 90 OFFCURVE",
"247 101 CURVE SMOOTH",
"170 110 OFFCURVE",
"112 172 OFFCURVE",
"85 237 CURVE SMOOTH",
"70 274 OFFCURVE",
"-40 232 OFFCURVE",
"-26 199 CURVE SMOOTH",
"37 42 OFFCURVE",
"268 -50 OFFCURVE",
"432 121 CURVE SMOOTH",
"511 203 OFFCURVE",
"529 323 OFFCURVE",
"537 420 CURVE SMOOTH",
"545 534 OFFCURVE",
"533 643 OFFCURVE",
"520 751 CURVE",
"562 759 OFFCURVE",
"604 769 OFFCURVE",
"644 779 CURVE SMOOTH",
"663 785 OFFCURVE",
"703 798 OFFCURVE",
"707 823 CURVE SMOOTH",
"710 846 OFFCURVE",
"682 850 OFFCURVE",
"663 845 CURVE SMOOTH"
);
}
);
width = 604;
},
{
layerId = "AF926F6A-8B43-44FC-95BD-7483A33A85BE";
paths = (
{
closed = 1;
nodes = (
"615 864 OFFCURVE",
"614 864 OFFCURVE",
"612 863 CURVE",
"545 850 OFFCURVE",
"478 836 OFFCURVE",
"411 821 CURVE",
"382 815 OFFCURVE",
"353 805 OFFCURVE",
"324 797 CURVE",
"292 787 OFFCURVE",
"260 778 OFFCURVE",
"228 769 CURVE",
"216 764 OFFCURVE",
"205 756 OFFCURVE",
"196 746 CURVE",
"181 730 OFFCURVE",
"168 708 OFFCURVE",
"164 686 CURVE",
"161 675 OFFCURVE",
"161 664 OFFCURVE",
"165 653 CURVE",
"173 638 OFFCURVE",
"186 639 OFFCURVE",
"200 643 CURVE",
"244 655 OFFCURVE",
"288 666 OFFCURVE",
"332 677 CURVE",
"337 678 OFFCURVE",
"342 678 OFFCURVE",
"346 679 CURVE",
"346 672 OFFCURVE",
"347 665 OFFCURVE",
"350 660 CURVE",
"370 622 OFFCURVE",
"383 583 OFFCURVE",
"392 542 CURVE",
"399 504 OFFCURVE",
"402 466 OFFCURVE",
"406 427 CURVE",
"409 387 OFFCURVE",
"406 346 OFFCURVE",
"402 306 CURVE",
"397 269 OFFCURVE",
"392 232 OFFCURVE",
"381 196 CURVE",
"379 188 OFFCURVE",
"376 181 OFFCURVE",
"373 174 CURVE",
"371 174 OFFCURVE",
"369 174 OFFCURVE",
"367 175 CURVE",
"309 197 OFFCURVE",
"264 245 OFFCURVE",
"218 286 CURVE",
"192 311 OFFCURVE",
"166 335 OFFCURVE",
"140 360 CURVE",
"129 365 OFFCURVE",
"119 365 OFFCURVE",
"108 360 CURVE",
"86 351 OFFCURVE",
"67 330 OFFCURVE",
"54 310 CURVE",
"37 284 OFFCURVE",
"15 237 OFFCURVE",
"43 211 CURVE",
"79 179 OFFCURVE",
"115 147 OFFCURVE",
"150 115 CURVE",
"183 85 OFFCURVE",
"216 55 OFFCURVE",
"255 34 CURVE",
"277 23 OFFCURVE",
"302 17 OFFCURVE",
"327 16 CURVE",
"330 16 OFFCURVE",
"334 17 OFFCURVE",
"337 18 CURVE",
"348 18 OFFCURVE",
"357 21 OFFCURVE",
"365 27 CURVE",
"371 31 OFFCURVE",
"377 34 OFFCURVE",
"384 38 CURVE",
"393 46 OFFCURVE",
"402 55 OFFCURVE",
"412 64 CURVE",
"436 86 OFFCURVE",
"452 119 OFFCURVE",
"466 148 CURVE",
"479 174 OFFCURVE",
"489 205 OFFCURVE",
"497 233 CURVE",
"513 290 OFFCURVE",
"518 350 OFFCURVE",
"521 409 CURVE",
"523 438 OFFCURVE",
"523 467 OFFCURVE",
"521 496 CURVE",
"519 525 OFFCURVE",
"513 555 OFFCURVE",
"508 584 CURVE",
"502 624 OFFCURVE",
"491 664 OFFCURVE",
"477 702 CURVE",
"500 706 OFFCURVE",
"524 709 OFFCURVE",
"547 712 CURVE",
"586 717 OFFCURVE",
"615 754 OFFCURVE",
"629 788 CURVE",
"636 802 OFFCURVE",
"639 816 OFFCURVE",
"639 832 CURVE",
"638 843 OFFCURVE",
"632 864 OFFCURVE",
"616 864 CURVE"
);
}
);
width = 650;
}
);
unicode = 004A;
},
{
glyphname = K;
layers = (
{
layerId = "4E44DDC3-06E7-48B7-B703-88785A848E58";
paths = (
{
closed = 1;
nodes = (
"413.43 701.93 OFFCURVE",
"307.19 602.96 OFFCURVE",
"205.28 500.33 CURVE",
"220.3 606.44 OFFCURVE",
"229.13 713.65 OFFCURVE",
"228.26 823.72 CURVE SMOOTH",
"227.9 868.72 OFFCURVE",
"121.45 838.6 OFFCURVE",
"121.45 800.76 CURVE SMOOTH",
"121.45 634.83 OFFCURVE",
"100.1 476.53 OFFCURVE",
"69.32 318.31 CURVE",
"32.38 297.06 OFFCURVE",
"38.05 276.06 OFFCURVE",
"59 266.95 CURVE",
"43.93 193.98 OFFCURVE",
"27.16 120.86 OFFCURVE",
"9.76 46.83 CURVE SMOOTH",
"0 5.29 OFFCURVE",
"108.2 29.64 OFFCURVE",
"117.83 69.31 CURVE SMOOTH",
"136.51 146.23 OFFCURVE",
"154.28 222.48 OFFCURVE",
"169.93 298.72 CURVE",
"206.32 318.34 OFFCURVE",
"243.17 337.21 OFFCURVE",
"281.19 353.32 CURVE SMOOTH",
"301.14 361.77 OFFCURVE",
"347.61 387.5 OFFCURVE",
"371.32 381.26 CURVE SMOOTH",
"398.1 374.22 OFFCURVE",
"391.91 339.76 OFFCURVE",
"388.68 315.63 CURVE SMOOTH",
"376.3 223.34 OFFCURVE",
"326.7 124.08 OFFCURVE",
"359.39 30.87 CURVE SMOOTH",
"371.19 -2.76 OFFCURVE",
"432.01 20.15 OFFCURVE",
"449.28 34.45 CURVE SMOOTH",
"457.58 41.31 OFFCURVE",
"465.86 48.17 OFFCURVE",
"474.16 55.03 CURVE SMOOTH",
"508.83 83.72 OFFCURVE",
"488.5 99.06 OFFCURVE",
"459.05 100.86 CURVE",
"445.4 199.75 OFFCURVE",
"522.68 299.88 OFFCURVE",
"497.64 397.11 CURVE SMOOTH",
"469.32 507.1 OFFCURVE",
"308.16 445.83 OFFCURVE",
"189.62 385.26 CURVE",
"194.9 388.91 OFFCURVE",
"199.66 392.76 OFFCURVE",
"203.43 396.44 CURVE SMOOTH",
"334.3 524.16 OFFCURVE",
"465.65 651.35 OFFCURVE",
"596.7 778.89 CURVE SMOOTH",
"637.6 818.69 OFFCURVE",
"543.85 818.66 OFFCURVE",
"520.91 798.12 CURVE SMOOTH"
);
}
);
width = 608;
},
{
layerId = "AF926F6A-8B43-44FC-95BD-7483A33A85BE";
paths = (
{
closed = 1;
nodes = (
"535 273 OFFCURVE",
"494 260 OFFCURVE",
"474 229 CURVE",
"488 303 OFFCURVE",
"510 380 OFFCURVE",
"517 453 CURVE SMOOTH",
"525 536 OFFCURVE",
"455 556 OFFCURVE",
"391 515 CURVE SMOOTH",
"333 478 OFFCURVE",
"274 440 OFFCURVE",
"215 403 CURVE",
"225 454 OFFCURVE",
"292 503 OFFCURVE",
"327 539 CURVE SMOOTH",
"382 596 OFFCURVE",
"459 656 OFFCURVE",
"496 727 CURVE SMOOTH",
"509 752 OFFCURVE",
"523 796 OFFCURVE",
"486 802 CURVE SMOOTH",
"454 807 OFFCURVE",
"416 767 OFFCURVE",
"396 747 CURVE SMOOTH",
"332 683 OFFCURVE",
"268 618 OFFCURVE",
"212 548 CURVE",
"213 632 OFFCURVE",
"210 715 OFFCURVE",
"204 797 CURVE SMOOTH",
"202 823 OFFCURVE",
"211 879 OFFCURVE",
"196 900 CURVE SMOOTH",
"176 928 OFFCURVE",
"138 896 OFFCURVE",
"120 877 CURVE SMOOTH",
"65 819 OFFCURVE",
"91 733 OFFCURVE",
"92 663 CURVE SMOOTH",
"93 582 OFFCURVE",
"95 501 OFFCURVE",
"85 420 CURVE SMOOTH",
"81 387 OFFCURVE",
"79 359 OFFCURVE",
"67 328 CURVE SMOOTH",
"54 293 OFFCURVE",
"56 283 OFFCURVE",
"62 251 CURVE SMOOTH",
"72 195 OFFCURVE",
"44 114 OFFCURVE",
"33 53 CURVE SMOOTH",
"26 13 OFFCURVE",
"29 -46 OFFCURVE",
"87 -11 CURVE SMOOTH",
"112 4 OFFCURVE",
"133 31 OFFCURVE",
"145 56 CURVE SMOOTH",
"154 74 OFFCURVE",
"159 91 OFFCURVE",
"164 110 CURVE SMOOTH",
"166 117 OFFCURVE",
"175 173 OFFCURVE",
"169 141 CURVE",
"176 178 OFFCURVE",
"179 215 OFFCURVE",
"184 252 CURVE SMOOTH",
"188 279 OFFCURVE",
"183 277 OFFCURVE",
"206 294 CURVE SMOOTH",
"222 306 OFFCURVE",
"242 314 OFFCURVE",
"260 324 CURVE SMOOTH",
"308 351 OFFCURVE",
"354 379 OFFCURVE",
"401 406 CURVE",
"388 348 OFFCURVE",
"375 291 OFFCURVE",
"361 233 CURVE SMOOTH",
"349 184 OFFCURVE",
"323 116 OFFCURVE",
"325 66 CURVE SMOOTH",
"328 -5 OFFCURVE",
"396 -10 OFFCURVE",
"443 29 CURVE SMOOTH",
"490 68 OFFCURVE",
"649 193 OFFCURVE",
"565 252 CURVE SMOOTH"
);
}
);
width = 616;
}
);
unicode = 004B;
},
{
glyphname = L;
layers = (
{
layerId = "4E44DDC3-06E7-48B7-B703-88785A848E58";
paths = (
{
closed = 1;
nodes = (
"340.3 124.62 OFFCURVE",
"275.09 170.87 OFFCURVE",
"199.24 160.15 CURVE SMOOTH",
"176.07 156.88 OFFCURVE",
"154.47 149.06 OFFCURVE",
"134.06 138.53 CURVE",
"185.92 360.65 OFFCURVE",
"234.82 583.45 OFFCURVE",
"288.3 805.21 CURVE SMOOTH",
"297.62 843.84 OFFCURVE",
"194.22 820.48 OFFCURVE",
"184.9 783.29 CURVE SMOOTH",
"122.81 535.47 OFFCURVE",
"65.93 286.25 OFFCURVE",
"7.91 37.46 CURVE SMOOTH",
"0 3.52 OFFCURVE",
"71.08 13.61 OFFCURVE",
"102.2 40.23 CURVE",
"125.41 57.97 OFFCURVE",
"154.99 89.78 OFFCURVE",
"182.63 95.1 CURVE SMOOTH",
"222.58 102.78 OFFCURVE",
"281.88 53.23 OFFCURVE",
"309.93 33.4 CURVE SMOOTH",
"340.58 11.74 OFFCURVE",
"431.27 58.93 OFFCURVE",
"398.7 82.45 CURVE SMOOTH"
);
}
);
width = 429;
},
{
layerId = "AF926F6A-8B43-44FC-95BD-7483A33A85BE";
paths = (
{
closed = 1;
nodes = (
"456.65 148.51 OFFCURVE",
"437.2 208.12 OFFCURVE",
"395.45 163.21 CURVE",
"382.55 207.84 OFFCURVE",
"365.37 271.69 OFFCURVE",
"319.16 291.96 CURVE SMOOTH",
"261.15 317.41 OFFCURVE",
"191.8 254.7 OFFCURVE",
"150.07 217.27 CURVE",
"163.77 316.12 OFFCURVE",
"177.47 414.97 OFFCURVE",
"191.22 513.82 CURVE SMOOTH",
"197.25 557.16 OFFCURVE",
"203.25 600.51 OFFCURVE",
"209.32 643.85 CURVE SMOOTH",
"211.94 662.55 OFFCURVE",
"216.25 681.89 OFFCURVE",
"217.36 700.67 CURVE SMOOTH",
"217.64 705.47 OFFCURVE",
"217 710 OFFCURVE",
"216.77 717.79 CURVE",
"240 747 OFFCURVE",
"256.16 841.43 OFFCURVE",
"193.95 824.52 CURVE SMOOTH",
"127.4 806.43 OFFCURVE",
"111 692.27 OFFCURVE",
"103.32 639.73 CURVE SMOOTH",
"78.18 467.75 OFFCURVE",
"55.4 295.54 OFFCURVE",
"31.57 123.46 CURVE SMOOTH",
"25.93 82.75 OFFCURVE",
"0.01 -20.69 OFFCURVE",
"75.62 14.86 CURVE SMOOTH",
"103.35 27.9 OFFCURVE",
"124.22 55.61 OFFCURVE",
"145.83 76.4 CURVE SMOOTH",
"164.36 94.22 OFFCURVE",
"208.22 146.42 OFFCURVE",
"234.59 150.77 CURVE SMOOTH",
"294.11 160.6 OFFCURVE",
"272.11 49.25 OFFCURVE",
"304.15 26.1 CURVE SMOOTH",
"349.68 -6.8 OFFCURVE",
"406.56 87.36 OFFCURVE",
"428.38 113.99 CURVE SMOOTH"
);
}
);
width = 462;
}
);
unicode = 004C;
},
{
glyphname = Lslash;
layers = (
{
layerId = "4E44DDC3-06E7-48B7-B703-88785A848E58";
paths = (
{
closed = 1;
nodes = (
"340 125 OFFCURVE",
"275 171 OFFCURVE",
"199 160 CURVE SMOOTH",
"176 157 OFFCURVE",
"154 149 OFFCURVE",
"134 139 CURVE",
"186 361 OFFCURVE",
"201 461 OFFCURVE",
"258 682 CURVE SMOOTH",
"268 721 OFFCURVE",
"164 697 OFFCURVE",
"155 660 CURVE SMOOTH",
"95 412 OFFCURVE",
"66 286 OFFCURVE",
"8 37 CURVE SMOOTH",
"0 4 OFFCURVE",
"71 14 OFFCURVE",
"102 40 CURVE",
"125 58 OFFCURVE",
"155 90 OFFCURVE",
"183 95 CURVE SMOOTH",
"223 103 OFFCURVE",
"282 53 OFFCURVE",
"310 33 CURVE SMOOTH",
"341 12 OFFCURVE",
"431 59 OFFCURVE",
"399 82 CURVE SMOOTH"
);
},
{
closed = 1;
nodes = (
"98 354 OFFCURVE",
"202 415 OFFCURVE",
"259 448 CURVE",
"279 461 OFFCURVE",
"298 485 OFFCURVE",
"298 509 CURVE",
"300 532 OFFCURVE",
"284 544 OFFCURVE",
"265 533 CURVE",
"206 502 OFFCURVE",
"105 439 OFFCURVE",
"46 406 CURVE",
"26 394 OFFCURVE",
"7 369 OFFCURVE",
"5 344 CURVE",
"5 322 OFFCURVE",
"20 311 OFFCURVE",
"40 322 CURVE"
);
}
);
width = 429;
},
{
components = (
{
name = L;
},
{
name = slash;
transform = "{0.6161, -0.4001, 0.4001, 0.6161, -107, 256}";
}
);
layerId = "AF926F6A-8B43-44FC-95BD-7483A33A85BE";
width = 462;
}
);
unicode = 0141;
},
{
glyphname = M;
layers = (
{
layerId = "4E44DDC3-06E7-48B7-B703-88785A848E58";
paths = (
{
closed = 1;
nodes = (
"556.51 784.98 OFFCURVE",
"514.52 718.22 OFFCURVE",
"474.25 650.41 CURVE SMOOTH",
"456.69 620.84 OFFCURVE",
"439.44 591.1 OFFCURVE",
"422.51 561.17 CURVE SMOOTH",
"414.04 546.19 OFFCURVE",
"405.66 531.16 OFFCURVE",
"397.31 516.12 CURVE",
"392.35 555.72 OFFCURVE",
"395.71 604.26 OFFCURVE",
"393.38 628.97 CURVE SMOOTH",
"387.68 689.52 OFFCURVE",
"382.05 749.91 OFFCURVE",
"379.16 810.68 CURVE SMOOTH",
"376.86 859.08 OFFCURVE",
"295.68 828.78 OFFCURVE",
"278.52 807.29 CURVE SMOOTH",
"253.4 775.82 OFFCURVE",
"242.95 731.29 OFFCURVE",
"230.73 693.9 CURVE SMOOTH",
"208.62 626.29 OFFCURVE",
"189.26 557.75 OFFCURVE",
"169.15 489.53 CURVE SMOOTH",
"125.53 341.56 OFFCURVE",
"85.61 189.15 OFFCURVE",
"22.2 48.1 CURVE SMOOTH",
"-0.01 -1.3 OFFCURVE",
"111.86 20.54 OFFCURVE",
"127.83 54.77 CURVE SMOOTH",
"190.3 188.74 OFFCURVE",
"228.48 334.49 OFFCURVE",
"269.78 475.98 CURVE SMOOTH",
"276.12 497.72 OFFCURVE",
"282.46 519.45 OFFCURVE",
"288.8 541.19 CURVE",
"290.07 525.26 OFFCURVE",
"291.41 509.33 OFFCURVE",
"292.48 493.38 CURVE SMOOTH",
"296.83 428.02 OFFCURVE",
"320.49 375.81 OFFCURVE",
"397.1 400.81 CURVE SMOOTH",
"475.73 426.46 OFFCURVE",
"507.2 529.61 OFFCURVE",
"544.56 594.65 CURVE SMOOTH",
"545.27 595.89 OFFCURVE",
"546.01 597.11 OFFCURVE",
"546.72 598.35 CURVE",
"527.45 511.33 OFFCURVE",
"508.17 424.32 OFFCURVE",
"494.01 336.27 CURVE SMOOTH",
"474.83 217.03 OFFCURVE",
"441.39 44.28 OFFCURVE",
"524.31 -59.39 CURVE SMOOTH",
"550.59 -92.25 OFFCURVE",
"654.79 -43.95 OFFCURVE",
"623.04 -4.25 CURVE SMOOTH",
"544.03 94.56 OFFCURVE",
"589.86 283.51 OFFCURVE",
"609.12 395.01 CURVE SMOOTH",
"636.28 552.23 OFFCURVE",
"677.71 706.57 OFFCURVE",
"705.32 863.65 CURVE SMOOTH",
"714.81 917.64 OFFCURVE",
"612.09 871.76 OFFCURVE",
"599.05 851.4 CURVE SMOOTH"
);
}
);
width = 685;
},
{
layerId = "AF926F6A-8B43-44FC-95BD-7483A33A85BE";
paths = (
{
closed = 1;
nodes = (
"567.77 154.82 OFFCURVE",
"573.34 207.71 OFFCURVE",
"572.55 229.83 CURVE SMOOTH",
"570.61 284.67 OFFCURVE",
"570.84 339.63 OFFCURVE",
"571.76 394.69 CURVE SMOOTH",
"573.67 509.08 OFFCURVE",
"585.1 624.95 OFFCURVE",
"574.92 738.39 CURVE SMOOTH",
"572.38 766.74 OFFCURVE",
"572.26 814.74 OFFCURVE",
"541.2 827.03 CURVE SMOOTH",
"507.29 840.44 OFFCURVE",
"473.07 802.92 OFFCURVE",
"455.4 777.81 CURVE SMOOTH",
"400.99 700.52 OFFCURVE",
"370.06 600.4 OFFCURVE",
"339.51 513.33 CURVE",
"319.69 566.75 OFFCURVE",
"305.3 623.5 OFFCURVE",
"290.96 678.9 CURVE SMOOTH",
"284.06 705.53 OFFCURVE",
"277.78 732.35 OFFCURVE",
"272.89 759.55 CURVE SMOOTH",
"268.96 781.38 OFFCURVE",
"270.96 813.47 OFFCURVE",
"259.78 832.51 CURVE SMOOTH",
"239.75 866.62 OFFCURVE",
"198.16 852.21 OFFCURVE",
"173.92 824.14 CURVE SMOOTH",
"138.71 783.36 OFFCURVE",
"133.77 736.94 OFFCURVE",
"126.67 687.33 CURVE SMOOTH",
"109.66 568.57 OFFCURVE",
"95.78 449.61 OFFCURVE",
"78.98 330.83 CURVE SMOOTH",
"70.92 273.87 OFFCURVE",
"62.46 216.82 OFFCURVE",
"51.48 160.15 CURVE SMOOTH",
"46.84 136.2 OFFCURVE",
"41.57 112.34 OFFCURVE",
"35.14 88.7 CURVE SMOOTH",
"34.13 84.97 OFFCURVE",
"24.77 60.17 OFFCURVE",
"31.62 75.02 CURVE",
"18.41 46.38 OFFCURVE",
"0.01 -14.36 OFFCURVE",
"47.67 -18.16 CURVE SMOOTH",
"98.95 -22.25 OFFCURVE",
"124.6 54.07 OFFCURVE",
"136.93 90.07 CURVE SMOOTH",
"176.26 204.93 OFFCURVE",
"184.27 325.99 OFFCURVE",
"199.91 444.01 CURVE",
"216.28 389.2 OFFCURVE",
"261.37 225.79 OFFCURVE",
"346.13 295.35 CURVE SMOOTH",
"376.65 320.4 OFFCURVE",
"388.58 355.1 OFFCURVE",
"399.9 390.47 CURVE SMOOTH",
"419.59 451.97 OFFCURVE",
"440.4 513.23 OFFCURVE",
"463.44 573.78 CURVE",
"462.96 470.87 OFFCURVE",
"458.99 367.78 OFFCURVE",
"458.4 264.86 CURVE SMOOTH",
"458.07 206.96 OFFCURVE",
"451.08 147.03 OFFCURVE",
"459.47 90.07 CURVE SMOOTH",
"485.74 -88.22 OFFCURVE",
"642.5 92 OFFCURVE",
"585.9 139.59 CURVE SMOOTH"
);
}
);
width = 647;
}
);
unicode = 004D;
},
{
glyphname = N;
layers = (
{
layerId = "4E44DDC3-06E7-48B7-B703-88785A848E58";
paths = (
{
closed = 1;
nodes = (
"444.95 826.21 OFFCURVE",
"412.15 610.64 OFFCURVE",
"390.98 487.61 CURVE SMOOTH",
"385.55 456.03 OFFCURVE",
"381.04 424.3 OFFCURVE",
"376.88 392.53 CURVE",
"370.97 417.66 OFFCURVE",
"364.93 442.73 OFFCURVE",
"358.47 467.65 CURVE SMOOTH",
"339.45 540.95 OFFCURVE",
"319.68 614.33 OFFCURVE",
"294.94 685.95 CURVE SMOOTH",
"279.12 731.76 OFFCURVE",
"262.51 785.73 OFFCURVE",
"228.2 821.69 CURVE SMOOTH",
"204.1 846.94 OFFCURVE",
"122.9 821.63 OFFCURVE",
"124.85 783.55 CURVE SMOOTH",
"131.62 650.9 OFFCURVE",
"121.83 516.91 OFFCURVE",
"103.62 385.49 CURVE SMOOTH",
"88.13 273.67 OFFCURVE",
"70.45 152.17 OFFCURVE",
"13.61 52.71 CURVE SMOOTH",
"0.01 28.9 OFFCURVE",
"30.24 20.31 OFFCURVE",
"47.71 20.21 CURVE SMOOTH",
"74.71 20.04 OFFCURVE",
"103.29 35.87 OFFCURVE",
"118.05 57.99 CURVE SMOOTH",
"179.86 150.65 OFFCURVE",
"196.52 279.91 OFFCURVE",
"212.04 387.59 CURVE SMOOTH",
"218.13 429.86 OFFCURVE",
"223.04 472.38 OFFCURVE",
"226.94 515.01 CURVE",
"236.37 480.74 OFFCURVE",
"245.32 446.34 OFFCURVE",
"254.04 411.94 CURVE SMOOTH",
"283.99 293.83 OFFCURVE",
"305.37 172.56 OFFCURVE",
"340.12 55.78 CURVE SMOOTH",
"352.49 14.22 OFFCURVE",
"426.01 47.86 OFFCURVE",
"442.74 67.34 CURVE SMOOTH",
"464.96 93.21 OFFCURVE",
"461.69 144.78 OFFCURVE",
"464.6 176.25 CURVE SMOOTH",
"471.47 250.54 OFFCURVE",
"477.78 324.87 OFFCURVE",
"486.97 398.92 CURVE SMOOTH",
"497.08 480.34 OFFCURVE",
"508.78 562.77 OFFCURVE",
"531.19 641.86 CURVE SMOOTH",
"540.72 675.5 OFFCURVE",
"551.83 709.92 OFFCURVE",
"568.75 740.67 CURVE SMOOTH",
"575 752 OFFCURVE",
"581 763 OFFCURVE",
"590 772 CURVE SMOOTH",
"592 774 OFFCURVE",
"593 776 OFFCURVE",
"593.51 776.72 CURVE",
"652 786 OFFCURVE",
"677 857 OFFCURVE",
"601.15 846.68 CURVE SMOOTH"
);
}
);
width = 604;
},
{
layerId = "AF926F6A-8B43-44FC-95BD-7483A33A85BE";
paths = (
{
closed = 1;
nodes = (
"149 815 OFFCURVE",
"136 792 OFFCURVE",
"127 769 CURVE",
"116 741 OFFCURVE",
"117 708 OFFCURVE",
"117 678 CURVE",
"116 655 OFFCURVE",
"118 631 OFFCURVE",
"118 608 CURVE",
"119 566 OFFCURVE",
"119 525 OFFCURVE",
"117 483 CURVE",
"109 383 OFFCURVE",
"99 281 OFFCURVE",
"76 183 CURVE",
"67 152 OFFCURVE",
"57 123 OFFCURVE",
"44 93 CURVE",
"44 92 OFFCURVE",
"43 90 OFFCURVE",
"42 89 CURVE",
"34 75 OFFCURVE",
"29 60 OFFCURVE",
"26 45 CURVE",
"24 31 OFFCURVE",
"24 10 OFFCURVE",
"38 1 CURVE",
"48 -3 OFFCURVE",
"57 -2 OFFCURVE",
"66 3 CURVE",
"85 11 OFFCURVE",
"102 32 OFFCURVE",
"111 50 CURVE",
"165 155 OFFCURVE",
"194 271 OFFCURVE",
"213 388 CURVE",
"226 333 OFFCURVE",
"239 278 OFFCURVE",
"250 222 CURVE",
"259 183 OFFCURVE",
"266 143 OFFCURVE",
"274 104 CURVE",
"279 82 OFFCURVE",
"285 59 OFFCURVE",
"292 38 CURVE",
"297 23 OFFCURVE",
"305 3 OFFCURVE",
"319 -4 CURVE",
"334 -12 OFFCURVE",
"353 -2 OFFCURVE",
"364 8 CURVE",
"378 21 OFFCURVE",
"389 32 OFFCURVE",
"398 49 CURVE",
"406 63 OFFCURVE",
"412 78 OFFCURVE",
"418 94 CURVE",
"429 128 OFFCURVE",
"435 164 OFFCURVE",
"440 200 CURVE",
"445 235 OFFCURVE",
"446 271 OFFCURVE",
"448 307 CURVE",
"451 361 OFFCURVE",
"454 415 OFFCURVE",
"454 470 CURVE",
"455 524 OFFCURVE",
"456 578 OFFCURVE",
"456 633 CURVE",
"455 658 OFFCURVE",
"455 684 OFFCURVE",
"455 710 CURVE",
"454 723 OFFCURVE",
"454 737 OFFCURVE",
"454 751 CURVE",
"453 781 OFFCURVE",
"448 808 OFFCURVE",
"437 836 CURVE",
"431 846 OFFCURVE",
"423 851 OFFCURVE",
"411 851 CURVE",
"398 849 OFFCURVE",
"386 843 OFFCURVE",
"376 834 CURVE",
"363 822 OFFCURVE",
"351 808 OFFCURVE",
"343 792 CURVE",
"339 783 OFFCURVE",
"335 775 OFFCURVE",
"331 766 CURVE",
"325 751 OFFCURVE",
"323 736 OFFCURVE",
"323 720 CURVE",
"336 672 OFFCURVE",
"335 622 OFFCURVE",
"337 573 CURVE",
"338 531 OFFCURVE",
"340 489 OFFCURVE",
"340 447 CURVE",
"339 453 OFFCURVE",
"337 458 OFFCURVE",
"335 464 CURVE",
"304 573 OFFCURVE",
"268 680 OFFCURVE",
"236 789 CURVE",
"236 794 OFFCURVE",
"235 798 OFFCURVE",
"234 803 CURVE",
"233 813 OFFCURVE",
"231 824 OFFCURVE",
"226 833 CURVE",
"223 842 OFFCURVE",
"215 848 OFFCURVE",
"202 847 CURVE",
"190 845 OFFCURVE",
"179 840 OFFCURVE",
"169 832 CURVE"
);
}
);
width = 480;
}
);
unicode = 004E;
},
{
glyphname = Eng;
layers = (
{
components = (
{
name = N;
}
);
layerId = "4E44DDC3-06E7-48B7-B703-88785A848E58";
paths = (
{
closed = 1;
nodes = (
"365 305 OFFCURVE",
"356 163 OFFCURVE",
"340 56 CURVE SMOOTH",
"325 -43 OFFCURVE",
"299 -265 OFFCURVE",
"273 -361 CURVE SMOOTH",
"266 -387 OFFCURVE",
"255 -450 OFFCURVE",
"219 -433 CURVE SMOOTH",
"179 -415 OFFCURVE",
"167 -321 OFFCURVE",
"161 -286 CURVE SMOOTH",
"152 -232 OFFCURVE",
"45 -272 OFFCURVE",
"55 -322 CURVE SMOOTH",
"72 -413 OFFCURVE",
"109 -539 OFFCURVE",
"229 -519 CURVE SMOOTH",
"328 -502 OFFCURVE",
"366 -405 OFFCURVE",
"386 -317 CURVE SMOOTH",
"447 -33 OFFCURVE",
"460 -39 OFFCURVE",
"466 249 CURVE SMOOTH",
"468 297 OFFCURVE",
"383 435 OFFCURVE",
"377 393 CURVE SMOOTH"
);
}
);
width = 585;
},
{
components = (
{
name = N;
}
);
layerId = "AF926F6A-8B43-44FC-95BD-7483A33A85BE";
paths = (
{
closed = 1;
nodes = (
"430 422 OFFCURVE",
"341 401 OFFCURVE",
"346 364 CURVE SMOOTH",
"371 182 OFFCURVE",
"342 1 OFFCURVE",
"269 -165 CURVE SMOOTH",
"255 -197 OFFCURVE",
"220 -114 OFFCURVE",
"201 -81 CURVE SMOOTH",
"185 -53 OFFCURVE",
"98 -83 OFFCURVE",
"119 -118 CURVE SMOOTH",
"148 -167 OFFCURVE",
"188 -218 OFFCURVE",
"242 -243 CURVE",
"254 -261 OFFCURVE",
"315 -250 OFFCURVE",
"327 -228 CURVE SMOOTH",
"427 -44 OFFCURVE",
"458 181 OFFCURVE",
"434 388 CURVE SMOOTH"
);
}
);
width = 480;
}
);
unicode = 014A;
},
{
glyphname = O;
layers = (
{
layerId = "4E44DDC3-06E7-48B7-B703-88785A848E58";
paths = (
{
closed = 1;
nodes = (
"279.46 79.11 OFFCURVE",
"165.97 89.48 OFFCURVE",
"134.92 201.72 CURVE SMOOTH",
"102.62 318.5 OFFCURVE",
"153.37 457.4 OFFCURVE",
"206.01 560.43 CURVE SMOOTH",
"235.86 618.84 OFFCURVE",
"305.72 747.55 OFFCURVE",
"386.06 764.41 CURVE",
"697.86 727.74 OFFCURVE",
"509.74 272.32 OFFCURVE",
"360.67 147.25 CURVE SMOOTH"
);
},
{
closed = 1;
nodes = (
"527.24 815.17 OFFCURVE",
"526.45 815.72 OFFCURVE",
"525.51 816.24 CURVE SMOOTH",
"387.93 892.96 OFFCURVE",
"239.7 761.22 OFFCURVE",
"165.27 655.71 CURVE SMOOTH",
"75.9 529.03 OFFCURVE",
"0 353.79 OFFCURVE",
"23.07 195.43 CURVE SMOOTH",
"45.93 38.53 OFFCURVE",
"206.61 -3.62 OFFCURVE",
"339.25 54.32 CURVE SMOOTH",
"497.76 123.56 OFFCURVE",
"600.74 299.42 OFFCURVE",
"641.51 460.83 CURVE SMOOTH",
"676.98 601.25 OFFCURVE",
"652.6 760.26 OFFCURVE",
"528.07 814.61 CURVE"
);
}
);
width = 632;
},
{
layerId = "AF926F6A-8B43-44FC-95BD-7483A33A85BE";
paths = (
{
closed = 1;
nodes = (
"80 779 OFFCURVE",
"-99 133 OFFCURVE",
"120 28 CURVE",
"497 -152 OFFCURVE",
"730 926 OFFCURVE",
"311 831 CURVE"
);
},
{
closed = 1;
nodes = (
"526 677 OFFCURVE",
"425 221 OFFCURVE",
"259 167 CURVE",
"8 87 OFFCURVE",
"102 664 OFFCURVE",
"293 669 CURVE"
);
}
);
width = 546;
}
);
unicode = 004F;
},
{
glyphname = Ohorn;
layers = (
{
components = (
{
name = O;
}
);
layerId = "4E44DDC3-06E7-48B7-B703-88785A848E58";
paths = (
{
closed = 1;
nodes = (
"721 777 OFFCURVE",
"725 757 OFFCURVE",
"718 740 CURVE",
"716 732 OFFCURVE",
"711 723 OFFCURVE",
"703 724 CURVE",
"679 727 OFFCURVE",
"650 717 OFFCURVE",
"634 698 CURVE",
"619 681 OFFCURVE",
"627 664 OFFCURVE",
"648 660 CURVE",
"740 639 OFFCURVE",
"881 748 OFFCURVE",
"799 840 CURVE",
"775 868 OFFCURVE",
"680 824 OFFCURVE",
"709 791 CURVE"
);
}
);
width = 600;
},
{
components = (
{
name = O;
},
{
name = horn;
transform = "{1, 0, 0, 1, 195, 43}";
}
);
layerId = "AF926F6A-8B43-44FC-95BD-7483A33A85BE";
width = 600;
}
);
unicode = 01A0;
},
{
glyphname = Oslash;
layers = (
{
layerId = "4E44DDC3-06E7-48B7-B703-88785A848E58";
paths = (
{
closed = 1;
nodes = (
"310 567 OFFCURVE",
"173 374 OFFCURVE",
"55 187 CURVE",
"23 137 OFFCURVE",
"118 146 OFFCURVE",
"139 180 CURVE",
"260 369 OFFCURVE",
"402 535 OFFCURVE",
"548 705 CURVE",
"585 749 OFFCURVE",
"493 733 OFFCURVE",
"474 716 CURVE"
);
},
{
closed = 1;
nodes = (
"279 79 OFFCURVE",
"166 89 OFFCURVE",
"135 202 CURVE SMOOTH",
"103 319 OFFCURVE",
"153 457 OFFCURVE",
"206 560 CURVE SMOOTH",
"236 619 OFFCURVE",
"306 748 OFFCURVE",
"386 764 CURVE",
"698 728 OFFCURVE",
"510 272 OFFCURVE",
"361 147 CURVE SMOOTH"
);
},
{
closed = 1;
nodes = (
"527 815 OFFCURVE",
"526 816 OFFCURVE",
"526 816 CURVE SMOOTH",
"388 893 OFFCURVE",
"240 761 OFFCURVE",
"165 656 CURVE SMOOTH",
"76 529 OFFCURVE",
"0 354 OFFCURVE",
"23 195 CURVE SMOOTH",
"46 39 OFFCURVE",
"207 -4 OFFCURVE",
"339 54 CURVE SMOOTH",
"498 124 OFFCURVE",
"601 299 OFFCURVE",
"642 461 CURVE SMOOTH",
"677 601 OFFCURVE",
"653 760 OFFCURVE",
"528 815 CURVE"
);
}
);
width = 600;
},
{
components = (
{
name = O;
},
{
name = slashlongcomb;
transform = "{1, 0, 0, 1, 17, 86}";
}
);
layerId = "AF926F6A-8B43-44FC-95BD-7483A33A85BE";
width = 608;
}
);
unicode = 00D8;
},
{
glyphname = OE;
layers = (
{
layerId = "4E44DDC3-06E7-48B7-B703-88785A848E58";
paths = (
{
closed = 1;
nodes = (
"937.623 838.903 OFFCURVE",
"863.927 831.374 OFFCURVE",
"790.162 825.217 CURVE",
"792.9 835.476 OFFCURVE",
"794.647 847.656 OFFCURVE",
"783.956 853.701 CURVE",
"776.028 858.185 OFFCURVE",
"765.59 857.943 OFFCURVE",
"756.819 857.091 CURVE",
"733.553 854.832 OFFCURVE",
"701.634 842.567 OFFCURVE",
"692.474 819.116 CURVE",
"680.876 789.42 OFFCURVE",
"675.534 756.594 OFFCURVE",
"668.005 725.699 CURVE",
"659.849 692.233 OFFCURVE",
"652.031 658.685 OFFCURVE",
"644.578 625.055 CURVE",
"599.325 702.807 OFFCURVE",
"526.585 762.559 OFFCURVE",
"440.843 790.253 CURVE",
"447.341 798.278 OFFCURVE",
"449.936 808.965 OFFCURVE",
"444.181 818.202 CURVE",
"438.05 828.042 OFFCURVE",
"423.113 829.907 OFFCURVE",
"412.653 831.884 CURVE",
"386.142 836.895 OFFCURVE",
"358.644 834.696 OFFCURVE",
"332.675 827.798 CURVE",
"283.287 814.68 OFFCURVE",
"241.354 784.653 OFFCURVE",
"206.678 747.846 CURVE",
"171.649 710.665 OFFCURVE",
"141.536 667.923 OFFCURVE",
"113.618 625.252 CURVE",
"84.765 581.149 OFFCURVE",
"58.997 534.776 OFFCURVE",
"39.077 485.926 CURVE",
"-0.872 387.956 OFFCURVE",
"-16.495 279.319 OFFCURVE",
"21.637 178.262 CURVE",
"38.657 133.156 OFFCURVE",
"65.873 91.145 OFFCURVE",
"102.776 59.805 CURVE",
"141.827 26.642 OFFCURVE",
"189.537 7.288 OFFCURVE",
"240.332 1.759 CURVE",
"345.442 -9.682 OFFCURVE",
"451.614 35.918 OFFCURVE",
"530.839 102.852 CURVE",
"540.735 111.213 OFFCURVE",
"550.245 120.031 OFFCURVE",
"559.354 129.243 CURVE",
"557.699 115.583 OFFCURVE",
"556.103 101.916 OFFCURVE",
"554.569 88.243 CURVE",
"554.289 85.748 OFFCURVE",
"554.698 80.952 OFFCURVE",
"553.516 78.776 CURVE",
"552.43 76.776 OFFCURVE",
"549.006 74.858 OFFCURVE",
"547.389 73.136 CURVE",
"543.291 68.769 OFFCURVE",
"540.183 63.764 OFFCURVE",
"538.731 57.916 CURVE",
"531.6 29.173 OFFCURVE",
"569.141 29.466 OFFCURVE",
"587.663 29.068 CURVE",
"644.678 27.841 OFFCURVE",
"701.989 30.769 OFFCURVE",
"758.879 34.36 CURVE",
"786.802 36.124 OFFCURVE",
"814.703 38.29 OFFCURVE",
"842.548 41.03 CURVE",
"869.116 43.644 OFFCURVE",
"898.256 43.553 OFFCURVE",
"920.906 59.599 CURVE",
"937.856 71.607 OFFCURVE",
"952.662 98.645 OFFCURVE",
"927.747 110.993 CURVE",
"917.054 116.293 OFFCURVE",
"906.194 115.102 OFFCURVE",
"894.715 114.14 CURVE",
"880.38 112.939 OFFCURVE",
"866.042 111.774 OFFCURVE",
"851.7 110.661 CURVE",
"787.531 105.679 OFFCURVE",
"723.288 101.84 OFFCURVE",
"658.946 100.078 CURVE",
"664.15 149.319 OFFCURVE",
"670.042 198.488 OFFCURVE",
"676.657 247.559 CURVE",
"679.891 271.549 OFFCURVE",
"683.295 295.516 OFFCURVE",
"686.875 319.457 CURVE",
"687.277 322.144 OFFCURVE",
"687.154 326.83 OFFCURVE",
"688.35 329.249 CURVE",
"690.348 333.291 OFFCURVE",
"686.281 331.223 OFFCURVE",
"692.191 332.404 CURVE",
"698.183 333.602 OFFCURVE",
"706.128 331.981 OFFCURVE",
"712.263 331.808 CURVE",
"724.524 331.46 OFFCURVE",
"736.785 331.122 OFFCURVE",
"749.044 330.727 CURVE",
"773.609 329.936 OFFCURVE",
"798.177 329.235 OFFCURVE",
"822.751 328.77 CURVE",
"845.696 328.336 OFFCURVE",
"867.311 326.83 OFFCURVE",
"888.385 337.552 CURVE",
"902.877 344.926 OFFCURVE",
"923.014 360.407 OFFCURVE",
"917.96 379.369 CURVE",
"912.557 399.641 OFFCURVE",
"880.208 396.45 OFFCURVE",
"864.636 397.034 CURVE",
"809.743 399.091 OFFCURVE",
"754.742 400.612 OFFCURVE",
"699.813 401.215 CURVE",
"716.107 498.768 OFFCURVE",
"735.497 595.797 OFFCURVE",
"757.633 692.189 CURVE",
"760.272 703.68 OFFCURVE",
"762.953 715.16 OFFCURVE",
"765.673 726.632 CURVE",
"767.033 732.368 OFFCURVE",
"768.403 738.101 OFFCURVE",
"769.783 743.832 CURVE",
"770.409 746.437 OFFCURVE",
"771.038 749.041 OFFCURVE",
"771.669 751.645 CURVE",
"773.219 758.044 OFFCURVE",
"773.197 757.897 OFFCURVE",
"779.762 758.397 CURVE",
"803.882 760.233 OFFCURVE",
"828.01 761.978 OFFCURVE",
"852.128 763.842 CURVE",
"877.344 765.791 OFFCURVE",
"902.552 767.864 OFFCURVE",
"927.725 770.306 CURVE",
"950.75 772.54 OFFCURVE",
"975.172 773.37 OFFCURVE",
"997.762 778.471 CURVE",
"1016.072 782.606 OFFCURVE",
"1040.766 796.478 OFFCURVE",
"1044.506 816.689 CURVE",
"1047.931 835.2 OFFCURVE",
"1026.283 842.346 OFFCURVE",
"1011.618 841.777 CURVE"
);
},
{
closed = 1;
nodes = (
"490.06 159.93 OFFCURVE",
"434.351 107.57 OFFCURVE",
"363.354 83.745 CURVE",
"328.662 72.102 OFFCURVE",
"289.632 70.187 OFFCURVE",
"254.581 81.601 CURVE",
"220.645 92.652 OFFCURVE",
"191.806 114.657 OFFCURVE",
"168.7 141.422 CURVE",
"121.285 196.346 OFFCURVE",
"101.033 272.017 OFFCURVE",
"104.875 343.553 CURVE",
"108.879 418.097 OFFCURVE",
"135.028 488.947 OFFCURVE",
"169.781 554.37 CURVE",
"189.183 590.895 OFFCURVE",
"211.538 625.604 OFFCURVE",
"235.705 659.144 CURVE",
"259.994 692.853 OFFCURVE",
"284.862 728.452 OFFCURVE",
"318.558 753.439 CURVE",
"320.017 732.36 OFFCURVE",
"349.334 730.66 OFFCURVE",
"364.275 726.172 CURVE",
"385.437 719.814 OFFCURVE",
"405.916 710.638 OFFCURVE",
"425.252 699.991 CURVE",
"462.729 679.358 OFFCURVE",
"495.081 650.609 OFFCURVE",
"521.471 617.005 CURVE",
"577.549 545.598 OFFCURVE",
"595.69 453.518 OFFCURVE",
"581.954 364.865 CURVE",
"574.157 314.549 OFFCURVE",
"555.375 266.19 OFFCURVE",
"529.5 222.438 CURVE"
);
}
);
width = 1045;
},
{
layerId = "AF926F6A-8B43-44FC-95BD-7483A33A85BE";
paths = (
{
closed = 1;
nodes = (
"894 199 OFFCURVE",
"786 199 OFFCURVE",
"681 169 CURVE",
"687 204 OFFCURVE",
"691 240 OFFCURVE",
"694 275 CURVE",
"742 272 OFFCURVE",
"791 269 OFFCURVE",
"838 272 CURVE",
"872 274 OFFCURVE",
"912 289 OFFCURVE",
"932 319 CURVE",
"947 343 OFFCURVE",
"936 370 OFFCURVE",
"905 373 CURVE",
"838 380 OFFCURVE",
"769 378 OFFCURVE",
"701 376 CURVE",
"703 421 OFFCURVE",
"704 467 OFFCURVE",
"704 512 CURVE",
"806 493 OFFCURVE",
"918 514 OFFCURVE",
"964 613 CURVE",
"992 675 OFFCURVE",
"842 641 OFFCURVE",
"821 600 CURVE",
"809 574 OFFCURVE",
"690 650 OFFCURVE",
"679 656 CURVE",
"645 681 OFFCURVE",
"554 649 OFFCURVE",
"547 602 CURVE",
"426 649 OFFCURVE",
"270 604 OFFCURVE",
"178 513 CURVE",
"47 382 OFFCURVE",
"16 136 OFFCURVE",
"209 45 CURVE",
"302 2 OFFCURVE",
"418 11 OFFCURVE",
"512 59 CURVE",
"503 1 OFFCURVE",
"604 21 OFFCURVE",
"629 35 CURVE",
"713 81 OFFCURVE",
"809 89 OFFCURVE",
"901 56 CURVE",
"972 30 OFFCURVE",
"1103 127 OFFCURVE",
"1001 162 CURVE"
);
},
{
closed = 1;
nodes = (
"214 204 OFFCURVE",
"204 324 OFFCURVE",
"250 419 CURVE",
"273 465 OFFCURVE",
"303 496 OFFCURVE",
"339 510 CURVE",
"443 504 OFFCURVE",
"525 380 OFFCURVE",
"527 279 CURVE",
"529 157 OFFCURVE",
"416 80 OFFCURVE",
"309 145 CURVE"
);
}
);
width = 1174;
}
);
unicode = 0152;
},
{
glyphname = P;
layers = (
{
layerId = "4E44DDC3-06E7-48B7-B703-88785A848E58";
paths = (
{
closed = 1;
nodes = (
"256.43 464.64 OFFCURVE",
"213.37 448.41 OFFCURVE",
"177.6 444.48 CURVE",
"192.93 542.26 OFFCURVE",
"210.51 639.69 OFFCURVE",
"230.28 736.59 CURVE",
"239.72 733.59 OFFCURVE",
"249.02 730.8 OFFCURVE",
"257.98 728.15 CURVE SMOOTH",
"308.08 713.29 OFFCURVE",
"466.64 695.54 OFFCURVE",
"478.69 629.36 CURVE SMOOTH",
"491.71 557.84 OFFCURVE",
"329.17 493.66 OFFCURVE",
"281.45 474.62 CURVE SMOOTH"
);
},
{
closed = 1;
nodes = (
"435.62 764.21 OFFCURVE",
"318.62 779.01 OFFCURVE",
"247.47 817.89 CURVE",
"248.21 821.28 OFFCURVE",
"248.88 824.68 OFFCURVE",
"249.62 828.07 CURVE SMOOTH",
"254.08 848.46 OFFCURVE",
"232.36 853.25 OFFCURVE",
"207.32 848.61 CURVE",
"197.05 860.55 OFFCURVE",
"190.65 874.11 OFFCURVE",
"189.69 889.68 CURVE SMOOTH",
"186.68 938.24 OFFCURVE",
"80.29 908.15 OFFCURVE",
"83.15 868.19 CURVE SMOOTH",
"86.03 828.06 OFFCURVE",
"107.31 800.06 OFFCURVE",
"136.41 779.34 CURVE",
"117.77 701.37 OFFCURVE",
"101.37 622.56 OFFCURVE",
"87.02 543.22 CURVE",
"61.32 540.94 OFFCURVE",
"30.83 526.88 OFFCURVE",
"24.14 508.5 CURVE SMOOTH",
"0 442.15 OFFCURVE",
"20.94 404.17 OFFCURVE",
"61.29 386.65 CURVE",
"44.58 274.75 OFFCURVE",
"31.1 162.44 OFFCURVE",
"20.27 50.74 CURVE SMOOTH",
"15.79 4.49 OFFCURVE",
"126.93 32.26 OFFCURVE",
"130.86 73.75 CURVE SMOOTH",
"140.46 175.23 OFFCURVE",
"152.81 276.53 OFFCURVE",
"167.53 377.51 CURVE",
"171.8 378.1 OFFCURVE",
"176.09 378.75 OFFCURVE",
"180.37 379.52 CURVE SMOOTH",
"302.18 401.36 OFFCURVE",
"436.87 464.57 OFFCURVE",
"527.14 549.91 CURVE SMOOTH",
"611.14 629.33 OFFCURVE",
"584.95 706.81 OFFCURVE",
"482.22 746.28 CURVE SMOOTH"
);
}
);
width = 511;
},
{
layerId = "AF926F6A-8B43-44FC-95BD-7483A33A85BE";
paths = (
{
closed = 1;
nodes = (
"234.97 535.14 OFFCURVE",
"231.23 581.64 OFFCURVE",
"226.42 627.97 CURVE",
"278.33 623.19 OFFCURVE",
"330.26 618.46 OFFCURVE",
"382.35 614.87 CURVE",
"332.32 574.66 OFFCURVE",
"284.31 531.94 OFFCURVE",
"237.09 488.42 CURVE"
);
},
{
closed = 1;
nodes = (
"547.15 770.26 OFFCURVE",
"465.24 758.55 OFFCURVE",
"422.1 760.01 CURVE SMOOTH",
"361.13 762.08 OFFCURVE",
"298.79 762.84 OFFCURVE",
"238.4 769.39 CURVE SMOOTH",
"171.81 776.62 OFFCURVE",
"87.54 772.19 OFFCURVE",
"79.8 678.82 CURVE SMOOTH",
"76.21 635.52 OFFCURVE",
"92.74 582.5 OFFCURVE",
"98.69 539.66 CURVE SMOOTH",
"106.03 486.8 OFFCURVE",
"103.91 429.06 OFFCURVE",
"94.6 375.28 CURVE SMOOTH",
"88.02 337.24 OFFCURVE",
"45.53 311.78 OFFCURVE",
"27.02 274.25 CURVE SMOOTH",
"-0.01 219.45 OFFCURVE",
"24.37 176.67 OFFCURVE",
"80.39 220.9 CURVE",
"77.07 185.99 OFFCURVE",
"54.81 103.26 OFFCURVE",
"77.96 74.28 CURVE SMOOTH",
"102.24 43.88 OFFCURVE",
"143 78.53 OFFCURVE",
"163.34 101.62 CURVE SMOOTH",
"192.02 134.17 OFFCURVE",
"205.2 176.58 OFFCURVE",
"215.14 216.96 CURVE SMOOTH",
"222.17 245.49 OFFCURVE",
"227.08 274.4 OFFCURVE",
"230.77 303.31 CURVE SMOOTH",
"233.37 323.68 OFFCURVE",
"229.98 353.48 OFFCURVE",
"240.76 372.46 CURVE SMOOTH",
"274.43 431.76 OFFCURVE",
"672.01 679.75 OFFCURVE",
"583.56 743.87 CURVE SMOOTH"
);
}
);
width = 557;
}
);
unicode = 0050;
},
{
glyphname = Thorn;
layers = (
{
layerId = "4E44DDC3-06E7-48B7-B703-88785A848E58";
paths = (
{
closed = 1;
nodes = (
"282 582 OFFCURVE",
"292 655 OFFCURVE",
"302 727 CURVE",
"308 772 OFFCURVE",
"202 748 OFFCURVE",
"197 706 CURVE",
"167 471 OFFCURVE",
"135 237 OFFCURVE",
"103 2 CURVE",
"97 -45 OFFCURVE",
"204 -20 OFFCURVE",
"209 23 CURVE",
"215 64 OFFCURVE",
"220 105 OFFCURVE",
"225 146 CURVE",
"360 157 OFFCURVE",
"555 282 OFFCURVE",
"484 439 CURVE",
"445 525 OFFCURVE",
"350 540 OFFCURVE",
"272 510 CURVE"
);
},
{
closed = 1;
nodes = (
"300 251 OFFCURVE",
"267 255 OFFCURVE",
"238 248 CURVE",
"245 300 OFFCURVE",
"252 353 OFFCURVE",
"259 405 CURVE",
"262 408 OFFCURVE",
"265 412 OFFCURVE",
"267 416 CURVE",
"280 446 OFFCURVE",
"296 459 OFFCURVE",
"329 448 CURVE",
"358 439 OFFCURVE",
"381 415 OFFCURVE",
"389 385 CURVE",
"408 316 OFFCURVE",
"360 257 OFFCURVE",
"300 232 CURVE"
);
}
);
width = 600;
},
{
layerId = "AF926F6A-8B43-44FC-95BD-7483A33A85BE";
paths = (
{
closed = 1;
nodes = (
"199 639 OFFCURVE",
"192 720 OFFCURVE",
"182 801 CURVE",
"176 851 OFFCURVE",
"1 801 OFFCURVE",
"8 737 CURVE",
"39 465 OFFCURVE",
"43 193 OFFCURVE",
"23 -80 CURVE",
"17 -153 OFFCURVE",
"201 -105 OFFCURVE",
"205 -40 CURVE",
"207 -16 OFFCURVE",
"208 8 OFFCURVE",
"209 32 CURVE",
"251 23 OFFCURVE",
"296 25 OFFCURVE",
"337 37 CURVE",
"473 78 OFFCURVE",
"596 211 OFFCURVE",
"598 358 CURVE",
"601 590 OFFCURVE",
"370 641 OFFCURVE",
"204 558 CURVE"
);
},
{
closed = 1;
nodes = (
"331 139 OFFCURVE",
"259 147 OFFCURVE",
"258 227 CURVE",
"258 252 OFFCURVE",
"240 264 OFFCURVE",
"215 266 CURVE",
"214 312 OFFCURVE",
"213 358 OFFCURVE",
"212 404 CURVE",
"221 411 OFFCURVE",
"228 418 OFFCURVE",
"231 425 CURVE",
"249 470 OFFCURVE",
"263 501 OFFCURVE",
"315 481 CURVE",
"368 460 OFFCURVE",
"401 405 OFFCURVE",
"410 351 CURVE",
"420 296 OFFCURVE",
"405 239 OFFCURVE",
"372 194 CURVE"
);
}
);
width = 600;
}
);
unicode = 00DE;
},
{
glyphname = Q;
layers = (
{
layerId = "4E44DDC3-06E7-48B7-B703-88785A848E58";
paths = (
{
closed = 1;
nodes = (
"439.52 389.18 OFFCURVE",
"408.46 303.7 OFFCURVE",
"361.36 230.39 CURVE",
"304.55 316.48 OFFCURVE",
"261.46 405.93 OFFCURVE",
"238.81 514.6 CURVE SMOOTH",
"238.76 514.83 OFFCURVE",
"238.61 514.99 OFFCURVE",
"238.56 515.21 CURVE SMOOTH",
"234.06 533.57 OFFCURVE",
"232.42 554.14 OFFCURVE",
"233.31 575.51 CURVE",
"288.65 664.99 OFFCURVE",
"387.75 808.94 OFFCURVE",
"417.59 775.14 CURVE SMOOTH",
"420.66 771.67 OFFCURVE",
"424.84 769.35 OFFCURVE",
"429.69 767.89 CURVE",
"485.83 707.13 OFFCURVE",
"465.61 518.82 OFFCURVE",
"456.38 472.93 CURVE SMOOTH"
);
},
{
closed = 1;
nodes = (
"160.46 112.33 OFFCURVE",
"145.4 160.15 OFFCURVE",
"138.21 192.54 CURVE SMOOTH",
"123.35 259.56 OFFCURVE",
"132.97 331.42 OFFCURVE",
"153.15 399.35 CURVE",
"183.77 304.12 OFFCURVE",
"231.24 221.43 OFFCURVE",
"289.5 140.62 CURVE",
"262.76 113.69 OFFCURVE",
"227.41 86.53 OFFCURVE",
"195.18 98.95 CURVE SMOOTH"
);
},
{
closed = 1;
nodes = (
"490.63 854.63 OFFCURVE",
"462.08 862.37 OFFCURVE",
"432.37 858.78 CURVE",
"400.52 861.2 OFFCURVE",
"367.42 854.74 OFFCURVE",
"337.87 843.51 CURVE SMOOTH",
"225.56 800.83 OFFCURVE",
"139.74 690.34 OFFCURVE",
"126.79 571.69 CURVE",
"99.41 523.17 OFFCURVE",
"76.37 472.28 OFFCURVE",
"58.96 419.86 CURVE SMOOTH",
"26.23 321.36 OFFCURVE",
"0 193.44 OFFCURVE",
"52.99 96.68 CURVE SMOOTH",
"95.57 18.92 OFFCURVE",
"179.65 9.77 OFFCURVE",
"256.5 40.32 CURVE SMOOTH",
"283.75 51.15 OFFCURVE",
"309.31 65.43 OFFCURVE",
"333.22 82.47 CURVE",
"339.47 74.48 OFFCURVE",
"345.81 66.49 OFFCURVE",
"352.24 58.47 CURVE SMOOTH",
"376.19 28.61 OFFCURVE",
"477.73 74.18 OFFCURVE",
"448.66 111.05 CURVE SMOOTH",
"436.59 126.36 OFFCURVE",
"424.87 141.54 OFFCURVE",
"413.51 156.68 CURVE",
"523.59 285.02 OFFCURVE",
"580.14 477.57 OFFCURVE",
"577.82 629.95 CURVE SMOOTH",
"576.83 694.99 OFFCURVE",
"567.62 774.19 OFFCURVE",
"518.23 821.61 CURVE",
"517.3 823.72 OFFCURVE",
"516.03 825.82 OFFCURVE",
"514.23 827.86 CURVE SMOOTH"
);
}
);
width = 550;
},
{
layerId = "AF926F6A-8B43-44FC-95BD-7483A33A85BE";
paths = (
{
closed = 1;
nodes = (
"456.65 363.07 OFFCURVE",
"396.34 413.19 OFFCURVE",
"340.18 467.94 CURVE SMOOTH",
"293.55 513.4 OFFCURVE",
"242.31 563.01 OFFCURVE",
"224.05 628.4 CURVE",
"313.26 651.91 OFFCURVE",
"414.45 625.86 OFFCURVE",
"477.18 563.49 CURVE SMOOTH",
"542.67 498.37 OFFCURVE",
"546.6 403.15 OFFCURVE",
"518.02 314.16 CURVE"
);
},
{
closed = 1;
nodes = (
"132.86 250.26 OFFCURVE",
"54.6 430.24 OFFCURVE",
"124.01 561.16 CURVE",
"149.86 416.38 OFFCURVE",
"307.38 301.81 OFFCURVE",
"410.37 213.2 CURVE",
"362.81 192.69 OFFCURVE",
"307.78 185.08 OFFCURVE",
"260.62 202.65 CURVE SMOOTH"
);
},
{
closed = 1;
nodes = (
"576.74 272.23 OFFCURVE",
"582.83 277.18 OFFCURVE",
"601.26 317.21 CURVE SMOOTH",
"620.36 358.69 OFFCURVE",
"629.78 402.95 OFFCURVE",
"635.13 447.32 CURVE SMOOTH",
"644.74 527.04 OFFCURVE",
"629.87 604.37 OFFCURVE",
"578.27 663.79 CURVE SMOOTH",
"527.79 721.93 OFFCURVE",
"448.22 754.84 OFFCURVE",
"370.02 760.58 CURVE SMOOTH",
"283.26 766.95 OFFCURVE",
"218.71 736.29 OFFCURVE",
"152.01 679.15 CURVE SMOOTH",
"23.74 569.28 OFFCURVE",
"-28.57 405.06 OFFCURVE",
"26.36 252.7 CURVE SMOOTH",
"82.1 98.09 OFFCURVE",
"234.59 27.18 OFFCURVE",
"394.97 103.59 CURVE SMOOTH",
"427.59 119.13 OFFCURVE",
"464.07 159.91 OFFCURVE",
"494.59 147.75 CURVE SMOOTH",
"528.53 134.23 OFFCURVE",
"549.41 95.97 OFFCURVE",
"591.54 97.45 CURVE SMOOTH",
"624.73 98.62 OFFCURVE",
"657.8 134.33 OFFCURVE",
"663.97 166.73 CURVE SMOOTH",
"671.6 206.82 OFFCURVE",
"637.69 226.88 OFFCURVE",
"610.49 247.11 CURVE SMOOTH"
);
}
);
width = 676;
}
);
unicode = 0051;
},
{
glyphname = R;
layers = (
{
layerId = "4E44DDC3-06E7-48B7-B703-88785A848E58";
paths = (
{
closed = 1;
nodes = (
"536 793 OFFCURVE",
"445 858 OFFCURVE",
"217 831 CURVE",
"182 827 OFFCURVE",
"150 819 OFFCURVE",
"124 807 CURVE",
"63 781 OFFCURVE",
"77 731 OFFCURVE",
"139 750 CURVE",
"119 646 OFFCURVE",
"99 543 OFFCURVE",
"80 440 CURVE",
"44 423 OFFCURVE",
"14 371 OFFCURVE",
"68 374 CURVE",
"46 264 OFFCURVE",
"25 155 OFFCURVE",
"4 45 CURVE",
"-4 1 OFFCURVE",
"107 27 OFFCURVE",
"115 68 CURVE",
"135 175 OFFCURVE",
"156 282 OFFCURVE",
"176 389 CURVE",
"187 391 OFFCURVE",
"199 393 OFFCURVE",
"210 396 CURVE",
"242 394 OFFCURVE",
"272 384 OFFCURVE",
"293 361 CURVE",
"328 322 OFFCURVE",
"329 262 OFFCURVE",
"328 213 CURVE",
"327 135 OFFCURVE",
"299 5 OFFCURVE",
"401 -18 CURVE",
"439 -27 OFFCURVE",
"528 35 OFFCURVE",
"463 50 CURVE",
"427 59 OFFCURVE",
"435 138 OFFCURVE",
"436 163 CURVE",
"437 218 OFFCURVE",
"442 275 OFFCURVE",
"432 330 CURVE",
"421 385 OFFCURVE",
"392 420 OFFCURVE",
"355 440 CURVE",
"443 479 OFFCURVE",
"514 540 OFFCURVE",
"522 638 CURVE"
);
},
{
closed = 1;
nodes = (
"387 509 OFFCURVE",
"297 479 OFFCURVE",
"210 463 CURVE",
"203 462 OFFCURVE",
"196 461 OFFCURVE",
"189 461 CURVE",
"208 561 OFFCURVE",
"227 661 OFFCURVE",
"246 762 CURVE",
"342 755 OFFCURVE",
"443 704 OFFCURVE",
"412 596 CURVE"
);
}
);
width = 520;
},
{
layerId = "AF926F6A-8B43-44FC-95BD-7483A33A85BE";
paths = (
{
closed = 1;
nodes = (
"187 555 OFFCURVE",
"191 588 OFFCURVE",
"196 621 CURVE",
"234 602 OFFCURVE",
"294 577 OFFCURVE",
"303 529 CURVE SMOOTH",
"313 477 OFFCURVE",
"226 443 OFFCURVE",
"187 419 CURVE",
"187 454 OFFCURVE",
"181 488 OFFCURVE",
"184 522 CURVE SMOOTH"
);
},
{
closed = 1;
nodes = (
"307 507 OFFCURVE",
"306 506 OFFCURVE",
"305 504 CURVE",
"306 505 OFFCURVE",
"307 508 OFFCURVE",
"308 509 CURVE"
);
},
{
closed = 1;
nodes = (
"308 510 OFFCURVE",
"307 508 OFFCURVE",
"308 511 CURVE",
"308 511 LINE"
);
},
{
closed = 1;
nodes = (
"310 518 OFFCURVE",
"309 520 OFFCURVE",
"309 522 CURVE",
"309 521 OFFCURVE",
"310 517 OFFCURVE",
"310 516 CURVE"
);
},
{
closed = 1;
nodes = (
"383 364 OFFCURVE",
"372 284 OFFCURVE",
"372 225 CURVE",
"325 260 OFFCURVE",
"282 301 OFFCURVE",
"234 335 CURVE",
"345 403 OFFCURVE",
"492 566 OFFCURVE",
"401 685 CURVE SMOOTH",
"326 783 OFFCURVE",
"116 853 OFFCURVE",
"51 684 CURVE SMOOTH",
"25 616 OFFCURVE",
"49 533 OFFCURVE",
"56 466 CURVE SMOOTH",
"64 388 OFFCURVE",
"50 310 OFFCURVE",
"39 231 CURVE SMOOTH",
"34 194 OFFCURVE",
"-4 52 OFFCURVE",
"39 35 CURVE SMOOTH",
"99 11 OFFCURVE",
"153 147 OFFCURVE",
"162 184 CURVE",
"210 144 OFFCURVE",
"257 104 OFFCURVE",
"305 65 CURVE SMOOTH",
"351 28 OFFCURVE",
"385 19 OFFCURVE",
"429 79 CURVE SMOOTH",
"464 127 OFFCURVE",
"476 186 OFFCURVE",
"484 241 CURVE SMOOTH",
"488 270 OFFCURVE",
"514 408 OFFCURVE",
"455 388 CURVE SMOOTH"
);
}
);
width = 511;
},
{
associatedMasterId = "4E44DDC3-06E7-48B7-B703-88785A848E58";
layerId = "5FADA3F6-1D2B-4776-9044-9836D27A26CE";
width = 600;
}
);
unicode = 0052;
},
{
glyphname = S;
layers = (
{
layerId = "4E44DDC3-06E7-48B7-B703-88785A848E58";
paths = (
{
closed = 1;
nodes = (
"438.95 452.55 OFFCURVE",
"327.01 482.57 OFFCURVE",
"237.18 547.28 CURVE SMOOTH",
"162.9 600.79 OFFCURVE",
"181.96 678.64 OFFCURVE",
"253.09 728.32 CURVE SMOOTH",
"309.67 767.83 OFFCURVE",
"386.29 780.43 OFFCURVE",
"454.05 779.13 CURVE SMOOTH",
"454.08 779.13 OFFCURVE",
"454.12 779.12 OFFCURVE",
"454.16 779.12 CURVE",
"451.03 764.3 OFFCURVE",
"448.33 742.82 OFFCURVE",
"446.61 737.19 CURVE SMOOTH",
"437.86 708.6 OFFCURVE",
"427.44 680.47 OFFCURVE",
"417.58 652.25 CURVE SMOOTH",
"403.25 611.23 OFFCURVE",
"514.38 570.9 OFFCURVE",
"528.68 611.81 CURVE SMOOTH",
"548.42 668.3 OFFCURVE",
"604.64 768.2 OFFCURVE",
"544.73 818.1 CURVE SMOOTH",
"508.57 848.21 OFFCURVE",
"450.29 850.39 OFFCURVE",
"405.69 850.49 CURVE SMOOTH",
"285.55 850.77 OFFCURVE",
"115.3 815.75 OFFCURVE",
"78.17 681.31 CURVE SMOOTH",
"26.63 494.72 OFFCURVE",
"366.7 443.07 OFFCURVE",
"452.57 343.61 CURVE SMOOTH",
"527.99 256.25 OFFCURVE",
"378.11 136.39 OFFCURVE",
"302.3 105.84 CURVE SMOOTH",
"260.68 89.07 OFFCURVE",
"194.41 77.84 OFFCURVE",
"154.39 106.71 CURVE SMOOTH",
"114.93 135.18 OFFCURVE",
"133.4 218.48 OFFCURVE",
"138.47 263.22 CURVE SMOOTH",
"143.61 308.67 OFFCURVE",
"31.72 342.07 OFFCURVE",
"27.37 303.66 CURVE SMOOTH",
"17.26 214.27 OFFCURVE",
"0 114.88 OFFCURVE",
"92.2 65.9 CURVE SMOOTH",
"168.49 25.37 OFFCURVE",
"258.8 6.76 OFFCURVE",
"343.6 27.3 CURVE SMOOTH",
"435.43 49.53 OFFCURVE",
"507.43 113.64 OFFCURVE",
"560.08 189.75 CURVE SMOOTH",
"609.46 261.12 OFFCURVE",
"585.94 323.77 OFFCURVE",
"523 378.91 CURVE SMOOTH"
);
}
);
width = 599;
},
{
layerId = "AF926F6A-8B43-44FC-95BD-7483A33A85BE";
paths = (
{
closed = 1;
nodes = (
"436 347 OFFCURVE",
"328 468 OFFCURVE",
"222 590 CURVE",
"289 607 OFFCURVE",
"354 626 OFFCURVE",
"422 638 CURVE",
"406 607 OFFCURVE",
"376 559 OFFCURVE",
"408 534 CURVE SMOOTH",
"451 501 OFFCURVE",
"479 557 OFFCURVE",
"494 590 CURVE SMOOTH",
"521 646 OFFCURVE",
"619 712 OFFCURVE",
"562 770 CURVE SMOOTH",
"530 804 OFFCURVE",
"467 781 OFFCURVE",
"424 774 CURVE SMOOTH",
"370 764 OFFCURVE",
"315 752 OFFCURVE",
"261 738 CURVE SMOOTH",
"194 720 OFFCURVE",
"50 714 OFFCURVE",
"75 611 CURVE SMOOTH",
"88 558 OFFCURVE",
"141 509 OFFCURVE",
"174 467 CURVE SMOOTH",
"197 438 OFFCURVE",
"220 409 OFFCURVE",
"243 380 CURVE SMOOTH",
"288 321 OFFCURVE",
"334 263 OFFCURVE",
"380 205 CURVE",
"309 208 OFFCURVE",
"237 206 OFFCURVE",
"166 202 CURVE",
"189 249 OFFCURVE",
"165 303 OFFCURVE",
"111 299 CURVE SMOOTH",
"66 297 OFFCURVE",
"48 260 OFFCURVE",
"33 223 CURVE SMOOTH",
"21 195 OFFCURVE",
"4 164 OFFCURVE",
"-2 135 CURVE SMOOTH",
"-20 49 OFFCURVE",
"66 59 OFFCURVE",
"125 63 CURVE SMOOTH",
"244 73 OFFCURVE",
"368 78 OFFCURVE",
"481 55 CURVE SMOOTH",
"519 47 OFFCURVE",
"555 33 OFFCURVE",
"588 73 CURVE SMOOTH",
"637 131 OFFCURVE",
"573 187 OFFCURVE",
"541 224 CURVE SMOOTH"
);
}
);
width = 623;
}
);
unicode = 0053;
},
{
glyphname = uni1E9E;
layers = (
{
layerId = "4E44DDC3-06E7-48B7-B703-88785A848E58";
paths = (
{
closed = 1;
nodes = (
"486 525 OFFCURVE",
"514 581 OFFCURVE",
"456 631 CURVE",
"388 689 OFFCURVE",
"279 663 OFFCURVE",
"189 620 CURVE",
"189 622 OFFCURVE",
"190 624 OFFCURVE",
"190 626 CURVE",
"194 673 OFFCURVE",
"92 648 OFFCURVE",
"87 606 CURVE",
"85 589 OFFCURVE",
"83 571 OFFCURVE",
"81 553 CURVE",
"81 553 OFFCURVE",
"80 553 OFFCURVE",
"80 553 CURVE",
"54 533 OFFCURVE",
"60 519 OFFCURVE",
"76 512 CURVE",
"59 356 OFFCURVE",
"45 200 OFFCURVE",
"26 44 CURVE",
"21 -1 OFFCURVE",
"129 24 OFFCURVE",
"133 66 CURVE",
"147 224 OFFCURVE",
"165 383 OFFCURVE",
"181 541 CURVE",
"234 572 OFFCURVE",
"301 606 OFFCURVE",
"352 587 CURVE",
"454 549 OFFCURVE",
"305 476 OFFCURVE",
"269 462 CURVE",
"250 455 OFFCURVE",
"238 440 OFFCURVE",
"234 427 CURVE",
"229 416 OFFCURVE",
"230 406 OFFCURVE",
"242 403 CURVE",
"249 397 OFFCURVE",
"260 395 OFFCURVE",
"277 398 CURVE",
"286 400 OFFCURVE",
"296 403 OFFCURVE",
"306 407 CURVE",
"382 415 OFFCURVE",
"483 418 OFFCURVE",
"483 325 CURVE",
"483 193 OFFCURVE",
"335 173 OFFCURVE",
"239 141 CURVE",
"189 124 OFFCURVE",
"187 72 OFFCURVE",
"246 79 CURVE",
"387 96 OFFCURVE",
"588 182 OFFCURVE",
"584 351 CURVE",
"582 438 OFFCURVE",
"513 473 OFFCURVE",
"435 480 CURVE"
);
}
);
width = 600;
},
{
layerId = "AF926F6A-8B43-44FC-95BD-7483A33A85BE";
paths = (
{
closed = 1;
nodes = (
"558 722 OFFCURVE",
"440 795 OFFCURVE",
"322 785 CURVE",
"-60 752 OFFCURVE",
"7 272 OFFCURVE",
"29 8 CURVE",
"33 -39 OFFCURVE",
"213 9 OFFCURVE",
"208 74 CURVE",
"208 76 OFFCURVE",
"208 79 OFFCURVE",
"207 81 CURVE",
"212 79 OFFCURVE",
"217 78 OFFCURVE",
"223 78 CURVE",
"354 61 OFFCURVE",
"555 109 OFFCURVE",
"590 259 CURVE",
"615 362 OFFCURVE",
"555 430 OFFCURVE",
"474 467 CURVE",
"508 500 OFFCURVE",
"533 541 OFFCURVE",
"540 591 CURVE"
);
},
{
closed = 1;
nodes = (
"256 195 OFFCURVE",
"223 173 OFFCURVE",
"202 149 CURVE",
"192 259 OFFCURVE",
"183 371 OFFCURVE",
"193 481 CURVE",
"197 521 OFFCURVE",
"207 628 OFFCURVE",
"249 648 CURVE",
"284 639 OFFCURVE",
"320 631 OFFCURVE",
"355 623 CURVE",
"363 608 OFFCURVE",
"366 593 OFFCURVE",
"364 576 CURVE",
"361 535 OFFCURVE",
"340 505 OFFCURVE",
"299 500 CURVE",
"224 490 OFFCURVE",
"155 377 OFFCURVE",
"268 373 CURVE",
"323 371 OFFCURVE",
"383 354 OFFCURVE",
"404 297 CURVE",
"434 211 OFFCURVE",
"336 204 OFFCURVE",
"278 198 CURVE"
);
}
);
width = 606;
}
);
unicode = 1E9E;
},
{
glyphname = uni018F;
layers = (
{
layerId = "4E44DDC3-06E7-48B7-B703-88785A848E58";
paths = (
{
closed = 1;
nodes = (
"111.835 612.073 OFFCURVE",
"90.86 542.981 OFFCURVE",
"159.871 554.899 CURVE",
"300.778 579.23 OFFCURVE",
"416.637 447.477 OFFCURVE",
"442.219 310.359 CURVE",
"342.384 320.695 OFFCURVE",
"241.764 326.505 OFFCURVE",
"141.581 333.398 CURVE",
"136.447 336.883 OFFCURVE",
"128.124 338.765 OFFCURVE",
"115.573 338.028 CURVE",
"108.43 337.609 OFFCURVE",
"101.284 337.189 OFFCURVE",
"94.141 336.77 CURVE",
"91.198 336.597 OFFCURVE",
"88.188 336.104 OFFCURVE",
"85.158 335.412 CURVE",
"57.276 342.682 OFFCURVE",
"3.498 321.351 OFFCURVE",
"0.802 293.617 CURVE",
"-24.851 29.626 OFFCURVE",
"340.548 -110.243 OFFCURVE",
"495.023 106.661 CURVE",
"651.194 325.944 OFFCURVE",
"434.028 685.366 OFFCURVE",
"163.845 623.904 CURVE"
);
},
{
closed = 1;
nodes = (
"215.699 254.319 OFFCURVE",
"326.617 243.756 OFFCURVE",
"437 242.082 CURVE",
"440.031 242.035 OFFCURVE",
"443.548 242.715 OFFCURVE",
"447.245 243.743 CURVE",
"446.153 217.129 OFFCURVE",
"441.252 191.238 OFFCURVE",
"431.789 167.271 CURVE",
"353.244 -31.649 OFFCURVE",
"137.986 107.461 OFFCURVE",
"105.396 262.71 CURVE"
);
}
);
width = 600;
},
{
layerId = "AF926F6A-8B43-44FC-95BD-7483A33A85BE";
paths = (
{
closed = 1;
nodes = (
"554.655 325.46 OFFCURVE",
"549.382 325.686 OFFCURVE",
"544.101 326.008 CURVE",
"576.252 615.427 OFFCURVE",
"174.846 787.602 OFFCURVE",
"4.732 525.236 CURVE",
"-15.142 494.581 OFFCURVE",
"27.87 486.114 OFFCURVE",
"48.735 486.497 CURVE",
"82.663 487.124 OFFCURVE",
"124.969 507.007 OFFCURVE",
"143.772 535.983 CURVE",
"202.455 626.425 OFFCURVE",
"331.106 505.493 OFFCURVE",
"361.596 451.996 CURVE",
"382.828 414.754 OFFCURVE",
"393.539 373.761 OFFCURVE",
"394.47 331.716 CURVE",
"297.875 333.16 OFFCURVE",
"201.202 330.498 OFFCURVE",
"104.738 324.337 CURVE",
"75.91 322.501 OFFCURVE",
"4.95 301.183 OFFCURVE",
"8.204 259.163 CURVE",
"18.455 126.953 OFFCURVE",
"78.755 -10.791 OFFCURVE",
"233.458 0.669 CURVE",
"364.65 10.389 OFFCURVE",
"471.443 112.596 OFFCURVE",
"519.588 231.554 CURVE",
"545.928 237.758 OFFCURVE",
"574.964 252.394 OFFCURVE",
"585.441 273.695 CURVE",
"596.953 297.119 OFFCURVE",
"592.916 322.919 OFFCURVE",
"559.937 325.103 CURVE"
);
},
{
closed = 1;
nodes = (
"221.312 85.099 OFFCURVE",
"185.557 160.663 OFFCURVE",
"168.293 225.08 CURVE",
"237.861 226.35 OFFCURVE",
"307.395 226.742 OFFCURVE",
"376.963 227.203 CURVE",
"359.482 175.838 OFFCURVE",
"328.609 120.828 OFFCURVE",
"285.572 106.505 CURVE"
);
}
);
width = 591;
}
);
unicode = 018F;
},
{
glyphname = T;
layers = (
{
layerId = "4E44DDC3-06E7-48B7-B703-88785A848E58";
paths = (
{
closed = 1;
nodes = (
"518.28 822.01 OFFCURVE",
"445.84 824.59 OFFCURVE",
"373.01 822.87 CURVE",
"375.07 830.65 OFFCURVE",
"377.01 838.47 OFFCURVE",
"379.1 846.24 CURVE SMOOTH",
"390.19 887.48 OFFCURVE",
"284.85 868.22 OFFCURVE",
"274.56 834.06 CURVE SMOOTH",
"272.87 828.44 OFFCURVE",
"271.13 822.84 OFFCURVE",
"269.41 817.23 CURVE",
"195.5 810.78 OFFCURVE",
"122.72 798.92 OFFCURVE",
"54.5 779.36 CURVE SMOOTH",
"38.56 774.79 OFFCURVE",
"3.44 763.44 OFFCURVE",
"1.62 742.35 CURVE SMOOTH",
"-0.01 723.38 OFFCURVE",
"14.33 714.14 OFFCURVE",
"34.19 716.63 CURVE SMOOTH",
"105.83 725.59 OFFCURVE",
"176.45 732.99 OFFCURVE",
"247.02 738.71 CURVE",
"247.17 737.4 OFFCURVE",
"247.71 736.31 OFFCURVE",
"248.25 735.23 CURVE",
"190.02 508.1 OFFCURVE",
"144.55 275.91 OFFCURVE",
"120.45 43.07 CURVE SMOOTH",
"115.75 -2.33 OFFCURVE",
"194.85 23.71 OFFCURVE",
"211.31 36.77 CURVE SMOOTH",
"224.15 46.96 OFFCURVE",
"236.98 57.15 OFFCURVE",
"249.82 67.34 CURVE SMOOTH",
"284.92 95.21 OFFCURVE",
"264.44 111.66 OFFCURVE",
"234.64 114.22 CURVE",
"259.37 326.84 OFFCURVE",
"300.78 538.28 OFFCURVE",
"353.03 746 CURVE",
"416.18 749.42 OFFCURVE",
"479.67 751.27 OFFCURVE",
"544.19 751.27 CURVE SMOOTH",
"575.52 751.27 OFFCURVE",
"644.67 812.68 OFFCURVE",
"587.11 816.93 CURVE SMOOTH"
);
}
);
width = 486;
},
{
layerId = "AF926F6A-8B43-44FC-95BD-7483A33A85BE";
paths = (
{
closed = 1;
nodes = (
"366 823 OFFCURVE",
"96 787 OFFCURVE",
"-14 607 CURVE SMOOTH",
"-33 576 OFFCURVE",
"-68 481 OFFCURVE",
"4 509 CURVE SMOOTH",
"47 526 OFFCURVE",
"50 569 OFFCURVE",
"77 598 CURVE SMOOTH",
"103 625 OFFCURVE",
"158 640 OFFCURVE",
"192 651 CURVE",
"173 546 OFFCURVE",
"163 439 OFFCURVE",
"155 333 CURVE SMOOTH",
"148 241 OFFCURVE",
"124 128 OFFCURVE",
"145 38 CURVE SMOOTH",
"168 -62 OFFCURVE",
"272 75 OFFCURVE",
"287 118 CURVE SMOOTH",
"295 141 OFFCURVE",
"346 280 OFFCURVE",
"280 261 CURVE",
"282 338 OFFCURVE",
"283 415 OFFCURVE",
"287 493 CURVE SMOOTH",
"289 530 OFFCURVE",
"292 567 OFFCURVE",
"294 604 CURVE SMOOTH",
"295 619 OFFCURVE",
"293 639 OFFCURVE",
"298 653 CURVE SMOOTH",
"308 680 OFFCURVE",
"308 674 OFFCURVE",
"339 675 CURVE SMOOTH",
"408 677 OFFCURVE",
"483 654 OFFCURVE",
"535 716 CURVE SMOOTH",
"551 735 OFFCURVE",
"594 809 OFFCURVE",
"546 812 CURVE SMOOTH"
);
}
);
width = 458;
}
);
unicode = 0054;
},
{
glyphname = Tbar;
layers = (
{
components = (
{
name = macron;
transform = "{1, 0, 0, 1, -89, -315}";
}
);
layerId = "4E44DDC3-06E7-48B7-B703-88785A848E58";
paths = (
{
closed = 1;
nodes = (
"488 648 OFFCURVE",
"416 651 OFFCURVE",
"343 649 CURVE",
"345 657 OFFCURVE",
"347 664 OFFCURVE",
"349 672 CURVE SMOOTH",
"359 713 OFFCURVE",
"256 694 OFFCURVE",
"245 660 CURVE SMOOTH",
"243 654 OFFCURVE",
"241 649 OFFCURVE",
"239 643 CURVE",
"166 637 OFFCURVE",
"93 626 OFFCURVE",
"25 605 CURVE SMOOTH",
"9 600 OFFCURVE",
"-27 589 OFFCURVE",
"-28 568 CURVE SMOOTH",
"-29 549 OFFCURVE",
"-16 540 OFFCURVE",
"4 543 CURVE SMOOTH",
"76 554 OFFCURVE",
"146 559 OFFCURVE",
"217 565 CURVE",
"217 563 OFFCURVE",
"218 562 OFFCURVE",
"218 561 CURVE",
"160 334 OFFCURVE",
"145 276 OFFCURVE",
"120 43 CURVE SMOOTH",
"116 -2 OFFCURVE",
"195 24 OFFCURVE",
"211 37 CURVE SMOOTH",
"224 47 OFFCURVE",
"237 57 OFFCURVE",
"250 67 CURVE SMOOTH",
"285 95 OFFCURVE",
"264 112 OFFCURVE",
"235 114 CURVE",
"259 327 OFFCURVE",
"271 364 OFFCURVE",
"323 572 CURVE",
"386 575 OFFCURVE",
"450 577 OFFCURVE",
"514 577 CURVE SMOOTH",
"546 577 OFFCURVE",
"615 639 OFFCURVE",
"557 643 CURVE SMOOTH"
);
}
);
width = 486;
},
{
components = (
{
name = T;
},
{
name = hyphen;
transform = "{1, 0, 0, 1, 12, 46}";
}
);
layerId = "AF926F6A-8B43-44FC-95BD-7483A33A85BE";
width = 458;
}
);
unicode = 0166;
},
{
glyphname = U;
layers = (
{
layerId = "4E44DDC3-06E7-48B7-B703-88785A848E58";
paths = (
{
closed = 1;
nodes = (
"476.81 625.21 OFFCURVE",
"460.64 479.06 OFFCURVE",
"438.36 334.39 CURVE SMOOTH",
"429.91 279.52 OFFCURVE",
"428.96 185.07 OFFCURVE",
"395.94 138.47 CURVE SMOOTH",
"356.86 83.33 OFFCURVE",
"229.99 101.43 OFFCURVE",
"171.29 102.8 CURVE SMOOTH",
"129.33 103.78 OFFCURVE",
"114.81 106.8 OFFCURVE",
"122.19 147.62 CURVE SMOOTH",
"127.09 174.69 OFFCURVE",
"132.78 201.62 OFFCURVE",
"138.65 228.49 CURVE SMOOTH",
"153.46 296.28 OFFCURVE",
"170.02 363.69 OFFCURVE",
"187.18 430.92 CURVE SMOOTH",
"218.68 554.34 OFFCURVE",
"251.64 677.8 OFFCURVE",
"290.88 799.03 CURVE SMOOTH",
"308.02 851.98 OFFCURVE",
"204.32 833.82 OFFCURVE",
"191.27 796.46 CURVE SMOOTH",
"139.18 647.28 OFFCURVE",
"100.48 492.47 OFFCURVE",
"62.27 339.27 CURVE SMOOTH",
"44 266.02 OFFCURVE",
"21.59 190.53 OFFCURVE",
"12.25 115.4 CURVE SMOOTH",
"-0.01 16.76 OFFCURVE",
"96.5 28.94 OFFCURVE",
"169.71 28.11 CURVE SMOOTH",
"255.25 27.14 OFFCURVE",
"351.76 28.09 OFFCURVE",
"428.49 71.5 CURVE SMOOTH",
"497.34 110.46 OFFCURVE",
"511.41 173.1 OFFCURVE",
"525.63 245.98 CURVE SMOOTH",
"560.67 425.47 OFFCURVE",
"580.04 610.18 OFFCURVE",
"590.26 792.71 CURVE SMOOTH",
"592.8 838.03 OFFCURVE",
"488.31 810.86 OFFCURVE",
"485.85 771.32 CURVE SMOOTH"
);
}
);
width = 583;
},
{
layerId = "AF926F6A-8B43-44FC-95BD-7483A33A85BE";
paths = (
{
closed = 1;
nodes = (
"115.95 138.45 OFFCURVE",
"116.77 140.56 OFFCURVE",
"117.58 142.68 CURVE",
"117.25 140.73 OFFCURVE",
"115.83 138.12 OFFCURVE",
"115.12 136.34 CURVE"
);
},
{
closed = 1;
nodes = (
"448.56 718.77 OFFCURVE",
"427.19 805.28 OFFCURVE",
"361.69 724.78 CURVE SMOOTH",
"309.86 661.08 OFFCURVE",
"345.96 569.1 OFFCURVE",
"357.11 499.88 CURVE SMOOTH",
"364.42 454.52 OFFCURVE",
"371.02 408.86 OFFCURVE",
"373.95 362.7 CURVE SMOOTH",
"375.56 337.3 OFFCURVE",
"390.7 260.11 OFFCURVE",
"373.5 235.83 CURVE SMOOTH",
"359.67 216.3 OFFCURVE",
"296.33 210.58 OFFCURVE",
"274.37 204.3 CURVE SMOOTH",
"226.69 190.66 OFFCURVE",
"178.06 174.24 OFFCURVE",
"128.84 173.46 CURVE",
"163.03 271.2 OFFCURVE",
"193.13 370.49 OFFCURVE",
"212.12 471.42 CURVE SMOOTH",
"227.48 553.06 OFFCURVE",
"255.27 691.23 OFFCURVE",
"212.39 764.78 CURVE SMOOTH",
"159.6 855.33 OFFCURVE",
"80.3 713.22 OFFCURVE",
"61.59 665.68 CURVE SMOOTH",
"45.66 625.19 OFFCURVE",
"34.05 579.43 OFFCURVE",
"43.06 537.56 CURVE SMOOTH",
"52.68 492.85 OFFCURVE",
"79.12 468.74 OFFCURVE",
"119.82 508.66 CURVE",
"106.59 379.64 OFFCURVE",
"59.59 255.53 OFFCURVE",
"21.17 130.92 CURVE SMOOTH",
"7.15 85.47 OFFCURVE",
"0 42.14 OFFCURVE",
"59.35 39.88 CURVE SMOOTH",
"116.94 37.69 OFFCURVE",
"183.53 62.96 OFFCURVE",
"239.55 77.53 CURVE SMOOTH",
"291.12 90.94 OFFCURVE",
"350.9 98.26 OFFCURVE",
"394.29 133.73 CURVE SMOOTH",
"437.42 168.98 OFFCURVE",
"461.46 222.63 OFFCURVE",
"472.71 274.6 CURVE SMOOTH",
"500.41 402.54 OFFCURVE",
"473.6 538.42 OFFCURVE",
"456.32 662.89 CURVE SMOOTH"
);
}
);
width = 505;
}
);
unicode = 0055;
},
{
glyphname = V;
layers = (
{
layerId = "4E44DDC3-06E7-48B7-B703-88785A848E58";
paths = (
{
closed = 1;
nodes = (
"475 836 OFFCURVE",
"438 817 OFFCURVE",
"420 805 CURVE SMOOTH",
"325 740 OFFCURVE",
"278 612 OFFCURVE",
"238 509 CURVE SMOOTH",
"211 439 OFFCURVE",
"188 367 OFFCURVE",
"165 296 CURVE",
"145 463 OFFCURVE",
"143 631 OFFCURVE",
"152 800 CURVE SMOOTH",
"154 845 OFFCURVE",
"47 816 OFFCURVE",
"45 777 CURVE SMOOTH",
"30 529 OFFCURVE",
"44 284 OFFCURVE",
"94 40 CURVE SMOOTH",
"102 -2 OFFCURVE",
"192 34 OFFCURVE",
"200 61 CURVE SMOOTH",
"242 199 OFFCURVE",
"280 337 OFFCURVE",
"329 472 CURVE SMOOTH",
"365 572 OFFCURVE",
"406 703 OFFCURVE",
"493 773 CURVE SMOOTH",
"511 787 OFFCURVE",
"517 807 OFFCURVE",
"497 821 CURVE SMOOTH"
);
}
);
width = 487;
},
{
layerId = "AF926F6A-8B43-44FC-95BD-7483A33A85BE";
paths = (
{
closed = 1;
nodes = (
"276 844 OFFCURVE",
"228 701 OFFCURVE",
"222 672 CURVE SMOOTH",
"203 589 OFFCURVE",
"205 504 OFFCURVE",
"199 420 CURVE",
"186 514 OFFCURVE",
"163 606 OFFCURVE",
"148 700 CURVE SMOOTH",
"144 723 OFFCURVE",
"147 777 OFFCURVE",
"131 796 CURVE SMOOTH",
"109 824 OFFCURVE",
"73 790 OFFCURVE",
"57 767 CURVE SMOOTH",
"30 728 OFFCURVE",
"38 691 OFFCURVE",
"44 649 CURVE SMOOTH",
"52 603 OFFCURVE",
"58 556 OFFCURVE",
"64 510 CURVE SMOOTH",
"78 413 OFFCURVE",
"89 316 OFFCURVE",
"95 218 CURVE SMOOTH",
"98 174 OFFCURVE",
"79 -16 OFFCURVE",
"164 27 CURVE SMOOTH",
"237 62 OFFCURVE",
"260 183 OFFCURVE",
"275 250 CURVE SMOOTH",
"297 347 OFFCURVE",
"309 446 OFFCURVE",
"319 544 CURVE SMOOTH",
"324 590 OFFCURVE",
"327 637 OFFCURVE",
"329 684 CURVE SMOOTH",
"331 708 OFFCURVE",
"354 793 OFFCURVE",
"330 808 CURVE SMOOTH"
);
}
);
width = 359;
}
);
unicode = 0056;
},
{
glyphname = W;
layers = (
{
layerId = "4E44DDC3-06E7-48B7-B703-88785A848E58";
paths = (
{
closed = 1;
nodes = (
"493.25 652.53 OFFCURVE",
"431.07 476.33 OFFCURVE",
"375.31 298.68 CURVE",
"365.59 418.86 OFFCURVE",
"368.24 540.81 OFFCURVE",
"380.18 658.6 CURVE SMOOTH",
"385.63 712.29 OFFCURVE",
"287.29 677.94 OFFCURVE",
"274.46 648.53 CURVE SMOOTH",
"237.08 562.83 OFFCURVE",
"199.71 477.12 OFFCURVE",
"162.49 391.35 CURVE",
"176.92 524.47 OFFCURVE",
"191.56 657.57 OFFCURVE",
"205.66 790.72 CURVE SMOOTH",
"210.53 836.68 OFFCURVE",
"104.94 810.68 OFFCURVE",
"100.31 769.69 CURVE SMOOTH",
"73.47 531.93 OFFCURVE",
"48.49 293.96 OFFCURVE",
"20.57 56.32 CURVE SMOOTH",
"14.27 2.75 OFFCURVE",
"113.96 37.37 OFFCURVE",
"126.82 66.58 CURVE SMOOTH",
"173.48 172.54 OFFCURVE",
"219.43 278.83 OFFCURVE",
"265.11 385.23 CURVE",
"268.79 270.69 OFFCURVE",
"281.36 156.33 OFFCURVE",
"302.55 44.29 CURVE SMOOTH",
"310.93 -0.01 OFFCURVE",
"397.05 35.63 OFFCURVE",
"406.48 63.46 CURVE SMOOTH",
"492.51 317.03 OFFCURVE",
"557.99 577.72 OFFCURVE",
"683.82 815.86 CURVE SMOOTH",
"709.97 865.35 OFFCURVE",
"602.49 851.71 OFFCURVE",
"582.51 815.28 CURVE SMOOTH"
);
}
);
width = 574;
},
{
layerId = "AF926F6A-8B43-44FC-95BD-7483A33A85BE";
paths = (
{
closed = 1;
nodes = (
"497.91 761.41 OFFCURVE",
"458.47 703.39 OFFCURVE",
"446.23 678.45 CURVE SMOOTH",
"427.03 639.34 OFFCURVE",
"421.68 594.27 OFFCURVE",
"415.91 552.56 CURVE SMOOTH",
"402.11 452.89 OFFCURVE",
"399.99 352.12 OFFCURVE",
"374.61 253.5 CURVE",
"360.6 311.68 OFFCURVE",
"363.11 372.79 OFFCURVE",
"356.58 432.38 CURVE SMOOTH",
"353.15 463.68 OFFCURVE",
"346.96 549.26 OFFCURVE",
"307.55 557.79 CURVE SMOOTH",
"275.53 564.72 OFFCURVE",
"243.16 517.19 OFFCURVE",
"229.27 493.24 CURVE SMOOTH",
"199.86 442.55 OFFCURVE",
"194.58 382.23 OFFCURVE",
"183.1 326.96 CURVE",
"176.44 397.49 OFFCURVE",
"165.54 467.26 OFFCURVE",
"152.98 536.58 CURVE SMOOTH",
"140.39 606.04 OFFCURVE",
"133.05 682.49 OFFCURVE",
"113.81 749.74 CURVE SMOOTH",
"94.26 818.04 OFFCURVE",
"30.66 758.66 OFFCURVE",
"15.97 709.93 CURVE SMOOTH",
"0 656.94 OFFCURVE",
"28.46 582.8 OFFCURVE",
"35.94 530.54 CURVE SMOOTH",
"55.17 396.2 OFFCURVE",
"59.22 259.82 OFFCURVE",
"75.79 125.25 CURVE SMOOTH",
"83.11 65.81 OFFCURVE",
"105.78 24.79 OFFCURVE",
"166.06 78.23 CURVE SMOOTH",
"214.37 121.06 OFFCURVE",
"235.55 185.12 OFFCURVE",
"254.54 243.53 CURVE",
"257.85 191.89 OFFCURVE",
"261.97 74.78 OFFCURVE",
"339.06 92.12 CURVE SMOOTH",
"406.55 107.31 OFFCURVE",
"448.04 199.25 OFFCURVE",
"467.15 255.94 CURVE SMOOTH",
"492.38 330.77 OFFCURVE",
"502.58 410.27 OFFCURVE",
"515.21 487.11 CURVE SMOOTH",
"522.78 533.14 OFFCURVE",
"529.8 579.24 OFFCURVE",
"535.41 625.42 CURVE SMOOTH",
"538.36 649.73 OFFCURVE",
"559.58 731.3 OFFCURVE",
"532.27 744.64 CURVE SMOOTH"
);
}
);
width = 565;
}
);
unicode = 0057;
},
{
glyphname = X;
layers = (
{
layerId = "4E44DDC3-06E7-48B7-B703-88785A848E58";
paths = (
{
closed = 1;
nodes = (
"742.96 877.48 OFFCURVE",
"709.48 858.53 OFFCURVE",
"693.48 842.45 CURVE SMOOTH",
"582.96 731.37 OFFCURVE",
"477.78 615.26 OFFCURVE",
"376.13 496.07 CURVE",
"355.53 533.43 OFFCURVE",
"336.44 571.62 OFFCURVE",
"319.28 610.68 CURVE SMOOTH",
"303.43 646.77 OFFCURVE",
"255.64 726.34 OFFCURVE",
"269.68 762.53 CURVE SMOOTH",
"290.85 817.14 OFFCURVE",
"178.05 798.39 OFFCURVE",
"162.58 759.19 CURVE SMOOTH",
"142.33 707.87 OFFCURVE",
"172.63 658.97 OFFCURVE",
"192.69 609.93 CURVE SMOOTH",
"217.31 549.74 OFFCURVE",
"245.88 491.27 OFFCURVE",
"278.26 434.87 CURVE SMOOTH",
"284.52 423.96 OFFCURVE",
"291.01 413.19 OFFCURVE",
"297.5 402.41 CURVE",
"209.6 296.09 OFFCURVE",
"124.12 187.74 OFFCURVE",
"40.33 78.27 CURVE SMOOTH",
"0 25.57 OFFCURVE",
"106.81 32.35 OFFCURVE",
"131.65 64.2 CURVE SMOOTH",
"201.33 153.58 OFFCURVE",
"271.98 241.88 OFFCURVE",
"343.73 329.17 CURVE",
"393.83 252.96 OFFCURVE",
"447.74 179.14 OFFCURVE",
"500.16 104.67 CURVE SMOOTH",
"522.99 72.24 OFFCURVE",
"628.85 118.55 OFFCURVE",
"600.1 159.49 CURVE SMOOTH",
"539.31 246.04 OFFCURVE",
"476.07 331.29 OFFCURVE",
"420.15 421.15 CURVE",
"536.9 560.24 OFFCURVE",
"656.88 696.54 OFFCURVE",
"781.61 829.44 CURVE SMOOTH",
"799.36 848.35 OFFCURVE",
"786.36 862.99 OFFCURVE",
"766.83 869.5 CURVE SMOOTH"
);
}
);
width = 699;
},
{
layerId = "AF926F6A-8B43-44FC-95BD-7483A33A85BE";
paths = (
{
closed = 1;
nodes = (
"454 633 OFFCURVE",
"487 660 OFFCURVE",
"499 693 CURVE SMOOTH",
"511 729 OFFCURVE",
"493 752 OFFCURVE",
"457 726 CURVE SMOOTH",
"421 700 OFFCURVE",
"391 649 OFFCURVE",
"365 616 CURVE SMOOTH",
"333 576 OFFCURVE",
"303 535 OFFCURVE",
"273 494 CURVE",
"232 551 OFFCURVE",
"189 609 OFFCURVE",
"157 672 CURVE SMOOTH",
"144 698 OFFCURVE",
"146 767 OFFCURVE",
"110 761 CURVE SMOOTH",
"55 750 OFFCURVE",
"44 664 OFFCURVE",
"54 625 CURVE SMOOTH",
"68 564 OFFCURVE",
"112 509 OFFCURVE",
"144 457 CURVE SMOOTH",
"159 433 OFFCURVE",
"192 396 OFFCURVE",
"185 371 CURVE SMOOTH",
"178 345 OFFCURVE",
"115 273 OFFCURVE",
"99 249 CURVE SMOOTH",
"67 201 OFFCURVE",
"10 130 OFFCURVE",
"2 72 CURVE SMOOTH",
"-9 -10 OFFCURVE",
"79 72 OFFCURVE",
"98 100 CURVE SMOOTH",
"137 157 OFFCURVE",
"167 221 OFFCURVE",
"232 317 CURVE",
"257 279 OFFCURVE",
"350 180 OFFCURVE",
"376 142 CURVE SMOOTH",
"392 119 OFFCURVE",
"429 71 OFFCURVE",
"455 58 CURVE SMOOTH",
"502 35 OFFCURVE",
"534 105 OFFCURVE",
"533 147 CURVE SMOOTH",
"531 213 OFFCURVE",
"388 341 OFFCURVE",
"352 389 CURVE SMOOTH",
"345 397 OFFCURVE",
"313 427 OFFCURVE",
"313 440 CURVE SMOOTH",
"313 452 OFFCURVE",
"340 479 OFFCURVE",
"349 490 CURVE SMOOTH",
"376 529 OFFCURVE",
"403 568 OFFCURVE",
"433 606 CURVE SMOOTH"
);
}
);
width = 537;
}
);
unicode = 0058;
},
{
glyphname = Y;
layers = (
{
layerId = "4E44DDC3-06E7-48B7-B703-88785A848E58";
paths = (
{
closed = 1;
nodes = (
"566.11 784.48 OFFCURVE",
"565.23 787.37 OFFCURVE",
"564.05 789.98 CURVE",
"563.93 792.31 OFFCURVE",
"563.87 794.68 OFFCURVE",
"563.71 796.97 CURVE SMOOTH",
"560.19 846.69 OFFCURVE",
"455.61 817.8 OFFCURVE",
"457.68 776.3 CURVE SMOOTH",
"460.78 713.93 OFFCURVE",
"400.36 395.11 OFFCURVE",
"294.17 452.92 CURVE SMOOTH",
"239.18 482.86 OFFCURVE",
"256.31 587.4 OFFCURVE",
"263.37 636.43 CURVE SMOOTH",
"272.65 700.94 OFFCURVE",
"290.62 763.34 OFFCURVE",
"307.78 826.05 CURVE SMOOTH",
"318.1 863.75 OFFCURVE",
"213.29 838.69 OFFCURVE",
"202.32 803.13 CURVE SMOOTH",
"166.38 686.73 OFFCURVE",
"71.19 373.75 OFFCURVE",
"282.69 373.18 CURVE SMOOTH",
"367.88 372.95 OFFCURVE",
"434.93 424.33 OFFCURVE",
"482.26 495.67 CURVE",
"482.36 405.6 OFFCURVE",
"471.5 316.57 OFFCURVE",
"436.96 237.58 CURVE SMOOTH",
"411.67 179.77 OFFCURVE",
"365.01 132.23 OFFCURVE",
"308.71 103.5 CURVE SMOOTH",
"214.6 55.46 OFFCURVE",
"133.25 103.45 OFFCURVE",
"70.84 177.96 CURVE SMOOTH",
"44.49 209.42 OFFCURVE",
"-57.14 161.97 OFFCURVE",
"-25.68 124.18 CURVE SMOOTH",
"118.61 -49.12 OFFCURVE",
"346.62 -6.25 OFFCURVE",
"485.53 151.92 CURVE SMOOTH",
"627.04 313.05 OFFCURVE",
"591.27 586.1 OFFCURVE",
"566.51 781.23 CURVE SMOOTH"
);
}
);
width = 613;
},
{
layerId = "AF926F6A-8B43-44FC-95BD-7483A33A85BE";
paths = (
{
closed = 1;
nodes = (
"533 445 OFFCURVE",
"519 471 OFFCURVE",
"519 502 CURVE SMOOTH",
"519 540 OFFCURVE",
"528 572 OFFCURVE",
"521 610 CURVE SMOOTH",
"513 657 OFFCURVE",
"495 749 OFFCURVE",
"434 676 CURVE SMOOTH",
"388 619 OFFCURVE",
"430 560 OFFCURVE",
"411 503 CURVE SMOOTH",
"396 460 OFFCURVE",
"356 388 OFFCURVE",
"319 445 CURVE SMOOTH",
"287 494 OFFCURVE",
"291 566 OFFCURVE",
"301 624 CURVE SMOOTH",
"309 664 OFFCURVE",
"353 745 OFFCURVE",
"325 782 CURVE SMOOTH",
"284 834 OFFCURVE",
"191 792 OFFCURVE",
"167 740 CURVE SMOOTH",
"146 694 OFFCURVE",
"157 657 OFFCURVE",
"207 657 CURVE",
"180 561 OFFCURVE",
"163 447 OFFCURVE",
"203 356 CURVE SMOOTH",
"222 315 OFFCURVE",
"258 267 OFFCURVE",
"309 271 CURVE SMOOTH",
"366 275 OFFCURVE",
"413 336 OFFCURVE",
"443 380 CURVE",
"457 321 OFFCURVE",
"522 229 OFFCURVE",
"460 179 CURVE SMOOTH",
"404 132 OFFCURVE",
"313 128 OFFCURVE",
"247 140 CURVE SMOOTH",
"197 148 OFFCURVE",
"97 186 OFFCURVE",
"102 251 CURVE SMOOTH",
"104 271 OFFCURVE",
"140 323 OFFCURVE",
"95 321 CURVE SMOOTH",
"62 320 OFFCURVE",
"38 262 OFFCURVE",
"30 238 CURVE SMOOTH",
"-40 48 OFFCURVE",
"212 1 OFFCURVE",
"348 42 CURVE SMOOTH",
"424 65 OFFCURVE",
"498 110 OFFCURVE",
"540 179 CURVE SMOOTH",
"590 262 OFFCURVE",
"572 336 OFFCURVE",
"543 417 CURVE SMOOTH"
);
}
);
width = 595;
}
);
unicode = 0059;
},
{
glyphname = Z;
layers = (
{
layerId = "4E44DDC3-06E7-48B7-B703-88785A848E58";
paths = (
{
closed = 1;
nodes = (
"585 810 OFFCURVE",
"513 801 OFFCURVE",
"442 795 CURVE SMOOTH",
"347 786 OFFCURVE",
"247 783 OFFCURVE",
"154 760 CURVE SMOOTH",
"121 752 OFFCURVE",
"83 704 OFFCURVE",
"140 704 CURVE SMOOTH",
"279 706 OFFCURVE",
"417 736 OFFCURVE",
"556 741 CURVE",
"548 733 OFFCURVE",
"492 672 OFFCURVE",
"478 657 CURVE SMOOTH",
"417 591 OFFCURVE",
"355 525 OFFCURVE",
"293 459 CURVE",
"251 455 OFFCURVE",
"208 452 OFFCURVE",
"165 449 CURVE SMOOTH",
"111 444 OFFCURVE",
"81 379 OFFCURVE",
"153 383 CURVE SMOOTH",
"178 385 OFFCURVE",
"203 387 OFFCURVE",
"229 388 CURVE",
"172 328 OFFCURVE",
"116 266 OFFCURVE",
"62 203 CURVE SMOOTH",
"42 180 OFFCURVE",
"-29 116 OFFCURVE",
"-17 79 CURVE SMOOTH",
"-11 61 OFFCURVE",
"13 58 OFFCURVE",
"29 59 CURVE SMOOTH",
"201 72 OFFCURVE",
"374 105 OFFCURVE",
"542 143 CURVE SMOOTH",
"591 154 OFFCURVE",
"600 218 OFFCURVE",
"539 206 CURVE SMOOTH",
"397 180 OFFCURVE",
"255 151 OFFCURVE",
"111 135 CURVE",
"133 163 OFFCURVE",
"156 189 OFFCURVE",
"179 216 CURVE SMOOTH",
"232 277 OFFCURVE",
"287 337 OFFCURVE",
"342 396 CURVE",
"389 400 OFFCURVE",
"437 403 OFFCURVE",
"485 407 CURVE SMOOTH",
"539 412 OFFCURVE",
"567 478 OFFCURVE",
"496 473 CURVE SMOOTH",
"466 471 OFFCURVE",
"437 469 OFFCURVE",
"407 467 CURVE",
"465 529 OFFCURVE",
"523 592 OFFCURVE",
"581 654 CURVE SMOOTH",
"617 692 OFFCURVE",
"657 729 OFFCURVE",
"686 772 CURVE SMOOTH",
"700 792 OFFCURVE",
"674 808 OFFCURVE",
"657 808 CURVE SMOOTH"
);
}
);
width = 638;
},
{
layerId = "AF926F6A-8B43-44FC-95BD-7483A33A85BE";
paths = (
{
closed = 1;
nodes = (
"469 203 OFFCURVE",
"391 214 OFFCURVE",
"314 205 CURVE",
"271 200 OFFCURVE",
"230 189 OFFCURVE",
"189 176 CURVE",
"242 250 OFFCURVE",
"294 324 OFFCURVE",
"344 400 CURVE",
"372 403 OFFCURVE",
"402 405 OFFCURVE",
"432 404 CURVE",
"486 403 OFFCURVE",
"552 545 OFFCURVE",
"496 546 CURVE",
"477 547 OFFCURVE",
"458 545 OFFCURVE",
"439 545 CURVE",
"487 616 OFFCURVE",
"534 690 OFFCURVE",
"580 762 CURVE",
"615 817 OFFCURVE",
"590 860 OFFCURVE",
"552 860 CURVE",
"550 863 OFFCURVE",
"545 866 OFFCURVE",
"540 865 CURVE",
"410 852 OFFCURVE",
"282 838 OFFCURVE",
"152 827 CURVE",
"102 822 OFFCURVE",
"43 682 OFFCURVE",
"87 686 CURVE",
"201 700 OFFCURVE",
"314 710 OFFCURVE",
"427 721 CURVE",
"384 655 OFFCURVE",
"342 591 OFFCURVE",
"299 525 CURVE",
"264 517 OFFCURVE",
"230 509 OFFCURVE",
"196 501 CURVE",
"146 489 OFFCURVE",
"87 346 OFFCURVE",
"158 363 CURVE",
"171 366 OFFCURVE",
"183 369 OFFCURVE",
"197 372 CURVE",
"179 348 OFFCURVE",
"163 324 OFFCURVE",
"147 300 CURVE",
"108 245 OFFCURVE",
"56 189 OFFCURVE",
"29 127 CURVE",
"14 92 OFFCURVE",
"5 33 OFFCURVE",
"46 11 CURVE",
"88 -14 OFFCURVE",
"146 25 OFFCURVE",
"186 39 CURVE",
"286 70 OFFCURVE",
"382 60 OFFCURVE",
"485 54 CURVE",
"553 50 OFFCURVE",
"620 194 OFFCURVE",
"546 198 CURVE"
);
}
);
width = 601;
}
);
unicode = 005A;
},
{
glyphname = uni0200;
layers = (
{
components = (
{
name = A;
}
);
layerId = "4E44DDC3-06E7-48B7-B703-88785A848E58";
paths = (
{
closed = 1;
nodes = (
"268 1082 OFFCURVE",
"228 1060 OFFCURVE",
"240 1041 CURVE",
"261 1006 OFFCURVE",
"280 971 OFFCURVE",
"300 936 CURVE",
"312 916 OFFCURVE",
"342 921 OFFCURVE",
"360 928 CURVE",
"373 932 OFFCURVE",
"411 953 OFFCURVE",
"400 973 CURVE",
"380 1008 OFFCURVE",
"360 1043 OFFCURVE",
"341 1078 CURVE",
"329 1098 OFFCURVE",
"298 1093 OFFCURVE",
"280 1086 CURVE"
);
},
{
closed = 1;
nodes = (
"489 1124 OFFCURVE",
"454 1118 OFFCURVE",
"438 1111 CURVE",
"423 1106 OFFCURVE",
"390 1088 OFFCURVE",
"398 1066 CURVE",
"407 1043 OFFCURVE",
"417 1020 OFFCURVE",
"426 996 CURVE",
"434 976 OFFCURVE",
"469 982 OFFCURVE",
"485 988 CURVE",
"500 994 OFFCURVE",
"533 1012 OFFCURVE",
"525 1033 CURVE",
"516 1056 OFFCURVE",
"507 1080 OFFCURVE",
"497 1103 CURVE"
);
}
);
width = 633;
},
{
components = (
{
name = A;
},
{
name = uni030F;
transform = "{1, 0, 0, 1, 58, 305}";
}
);
layerId = "AF926F6A-8B43-44FC-95BD-7483A33A85BE";
width = 689;
}
);
unicode = 0200;
},
{
glyphname = uni0202;
layers = (
{
components = (
{
name = A;
}
);
layerId = "4E44DDC3-06E7-48B7-B703-88785A848E58";
paths = (
{
closed = 1;
nodes = (
"401 1104 OFFCURVE",
"315 1045 OFFCURVE",
"290 963 CURVE",
"279 927 OFFCURVE",
"379 945 OFFCURVE",
"389 976 CURVE",
"398 1003 OFFCURVE",
"420 1036 OFFCURVE",
"453 1025 CURVE",
"497 1011 OFFCURVE",
"502 958 OFFCURVE",
"492 921 CURVE",
"481 881 OFFCURVE",
"579 901 OFFCURVE",
"590 932 CURVE",
"617 1008 OFFCURVE",
"570 1089 OFFCURVE",
"487 1096 CURVE"
);
}
);
width = 633;
},
{
components = (
{
name = uni0311;
transform = "{1, 0, 0, 1, 97, 247}";
},
{
name = A;
}
);
layerId = "AF926F6A-8B43-44FC-95BD-7483A33A85BE";
width = 675;
}
);
unicode = 0202;
},
{
glyphname = uni0204;
layers = (
{
components = (
{
name = E;
}
);
layerId = "4E44DDC3-06E7-48B7-B703-88785A848E58";
paths = (
{
closed = 1;
nodes = (
"298 1063 OFFCURVE",
"258 1041 OFFCURVE",
"270 1022 CURVE",
"291 987 OFFCURVE",
"310 952 OFFCURVE",
"330 917 CURVE",
"342 897 OFFCURVE",
"372 902 OFFCURVE",
"390 909 CURVE",
"403 913 OFFCURVE",
"441 934 OFFCURVE",
"430 954 CURVE",
"410 989 OFFCURVE",
"390 1024 OFFCURVE",
"371 1059 CURVE",
"359 1079 OFFCURVE",
"328 1074 OFFCURVE",
"310 1067 CURVE"
);
},
{
closed = 1;
nodes = (
"519 1105 OFFCURVE",
"484 1099 OFFCURVE",
"468 1092 CURVE",
"453 1087 OFFCURVE",
"420 1069 OFFCURVE",
"428 1047 CURVE",
"437 1024 OFFCURVE",
"447 1001 OFFCURVE",
"456 977 CURVE",
"464 957 OFFCURVE",
"499 963 OFFCURVE",
"515 969 CURVE",
"530 975 OFFCURVE",
"563 993 OFFCURVE",
"555 1014 CURVE",
"546 1037 OFFCURVE",
"537 1061 OFFCURVE",
"527 1084 CURVE"
);
}
);
width = 600;
},
{
components = (
{
name = uni030F;
transform = "{1, 0, 0, 1, 0, 270}";
},
{
name = E;
}
);
layerId = "AF926F6A-8B43-44FC-95BD-7483A33A85BE";
width = 600;
}
);
unicode = 0204;
},
{
glyphname = uni0206;
layers = (
{
components = (
{
name = E;
}
);
layerId = "4E44DDC3-06E7-48B7-B703-88785A848E58";
paths = (
{
closed = 1;
nodes = (
"415 1104 OFFCURVE",
"343 1029 OFFCURVE",
"334 944 CURVE",
"330 907 OFFCURVE",
"424 944 OFFCURVE",
"428 976 CURVE",
"432 1005 OFFCURVE",
"447 1041 OFFCURVE",
"482 1036 CURVE",
"527 1030 OFFCURVE",
"543 980 OFFCURVE",
"540 941 CURVE",
"537 900 OFFCURVE",
"629 939 OFFCURVE",
"634 971 CURVE",
"646 1051 OFFCURVE",
"584 1121 OFFCURVE",
"502 1113 CURVE"
);
}
);
width = 633;
},
{
components = (
{
name = uni0311;
transform = "{1, 0, 0, 1, 0, 250}";
},
{
name = E;
}
);
layerId = "AF926F6A-8B43-44FC-95BD-7483A33A85BE";
width = 600;
}
);
unicode = 0206;
},
{
glyphname = uni0208;
layers = (
{
components = (
{
name = I;
}
);
layerId = "4E44DDC3-06E7-48B7-B703-88785A848E58";
paths = (
{
closed = 1;
nodes = (
"209 1059 OFFCURVE",
"169 1037 OFFCURVE",
"181 1018 CURVE",
"202 983 OFFCURVE",
"221 948 OFFCURVE",
"241 913 CURVE",
"253 893 OFFCURVE",
"283 898 OFFCURVE",
"301 905 CURVE",
"314 909 OFFCURVE",
"352 930 OFFCURVE",
"341 950 CURVE",
"321 985 OFFCURVE",
"301 1020 OFFCURVE",
"282 1055 CURVE",
"270 1075 OFFCURVE",
"239 1070 OFFCURVE",
"221 1063 CURVE"
);
},
{
closed = 1;
nodes = (
"430 1101 OFFCURVE",
"395 1095 OFFCURVE",
"379 1088 CURVE",
"364 1083 OFFCURVE",
"331 1065 OFFCURVE",
"339 1043 CURVE",
"348 1020 OFFCURVE",
"358 997 OFFCURVE",
"367 973 CURVE",
"375 953 OFFCURVE",
"410 959 OFFCURVE",
"426 965 CURVE",
"441 971 OFFCURVE",
"474 989 OFFCURVE",
"466 1010 CURVE",
"457 1033 OFFCURVE",
"448 1057 OFFCURVE",
"438 1080 CURVE"
);
}
);
width = 600;
},
{
components = (
{
name = uni030F;
transform = "{0.7207, 0, 0, 0.7207, -41, 397}";
}
);
layerId = "AF926F6A-8B43-44FC-95BD-7483A33A85BE";
paths = (
{
closed = 1;
nodes = (
"238 242 OFFCURVE",
"250 319 OFFCURVE",
"253 389 CURVE SMOOTH",
"255 461 OFFCURVE",
"254 533 OFFCURVE",
"254 606 CURVE SMOOTH",
"254 644 OFFCURVE",
"265 751 OFFCURVE",
"193 701 CURVE SMOOTH",
"167 682 OFFCURVE",
"150 651 OFFCURVE",
"143 620 CURVE SMOOTH",
"136 589 OFFCURVE",
"144 570 OFFCURVE",
"147 542 CURVE SMOOTH",
"156 481 OFFCURVE",
"143 411 OFFCURVE",
"138 349 CURVE SMOOTH",
"132 272 OFFCURVE",
"125 195 OFFCURVE",
"125 117 CURVE SMOOTH",
"125 83 OFFCURVE",
"120 20 OFFCURVE",
"172 36 CURVE SMOOTH",
"218 50 OFFCURVE",
"252 130 OFFCURVE",
"246 173 CURVE SMOOTH"
);
}
);
width = 383;
}
);
unicode = 0208;
},
{
glyphname = uni020A;
layers = (
{
components = (
{
name = I;
}
);
layerId = "4E44DDC3-06E7-48B7-B703-88785A848E58";
paths = (
{
closed = 1;
nodes = (
"337 1099 OFFCURVE",
"263 1025 OFFCURVE",
"253 941 CURVE",
"248 903 OFFCURVE",
"343 938 OFFCURVE",
"348 970 CURVE",
"352 999 OFFCURVE",
"367 1035 OFFCURVE",
"402 1030 CURVE",
"448 1023 OFFCURVE",
"462 972 OFFCURVE",
"459 934 CURVE",
"455 893 OFFCURVE",
"548 930 OFFCURVE",
"553 962 CURVE",
"566 1042 OFFCURVE",
"506 1113 OFFCURVE",
"423 1106 CURVE"
);
}
);
width = 537;
},
{
components = (
{
name = uni0311;
transform = "{1, 0, 0, 1, -147, 175}";
}
);
layerId = "AF926F6A-8B43-44FC-95BD-7483A33A85BE";
paths = (
{
closed = 1;
nodes = (
"202 242 OFFCURVE",
"214 319 OFFCURVE",
"217 389 CURVE SMOOTH",
"219 461 OFFCURVE",
"218 533 OFFCURVE",
"218 606 CURVE SMOOTH",
"218 644 OFFCURVE",
"229 751 OFFCURVE",
"157 701 CURVE SMOOTH",
"131 682 OFFCURVE",
"114 651 OFFCURVE",
"107 620 CURVE SMOOTH",
"100 589 OFFCURVE",
"108 570 OFFCURVE",
"111 542 CURVE SMOOTH",
"120 481 OFFCURVE",
"107 411 OFFCURVE",
"102 349 CURVE SMOOTH",
"96 272 OFFCURVE",
"89 195 OFFCURVE",
"89 117 CURVE SMOOTH",
"89 83 OFFCURVE",
"84 20 OFFCURVE",
"136 36 CURVE SMOOTH",
"182 50 OFFCURVE",
"216 130 OFFCURVE",
"210 173 CURVE SMOOTH"
);
}
);
width = 376;
}
);
unicode = 020A;
},
{
glyphname = uni020C;
layers = (
{
components = (
{
name = uni030F;
transform = "{1, 0, 0, 1, 21, 267}";
},
{
name = O;
}
);
layerId = "AF926F6A-8B43-44FC-95BD-7483A33A85BE";
width = 600;
},
{
components = (
{
name = O;
}
);
layerId = "4E44DDC3-06E7-48B7-B703-88785A848E58";
paths = (
{
closed = 1;
nodes = (
"326 1069 OFFCURVE",
"286 1047 OFFCURVE",
"298 1028 CURVE",
"319 993 OFFCURVE",
"338 958 OFFCURVE",
"358 923 CURVE",
"370 903 OFFCURVE",
"400 908 OFFCURVE",
"418 915 CURVE",
"431 919 OFFCURVE",
"469 940 OFFCURVE",
"458 960 CURVE",
"438 995 OFFCURVE",
"418 1030 OFFCURVE",
"399 1065 CURVE",
"387 1085 OFFCURVE",
"356 1080 OFFCURVE",
"338 1073 CURVE"
);
},
{
closed = 1;
nodes = (
"547 1111 OFFCURVE",
"512 1105 OFFCURVE",
"496 1098 CURVE",
"481 1093 OFFCURVE",
"448 1075 OFFCURVE",
"456 1053 CURVE",
"465 1030 OFFCURVE",
"475 1007 OFFCURVE",
"484 983 CURVE",
"492 963 OFFCURVE",
"527 969 OFFCURVE",
"543 975 CURVE",
"558 981 OFFCURVE",
"591 999 OFFCURVE",
"583 1020 CURVE",
"574 1043 OFFCURVE",
"565 1067 OFFCURVE",
"555 1090 CURVE"
);
}
);
width = 600;
}
);
unicode = 020C;
},
{
glyphname = uni020E;
layers = (
{
components = (
{
name = uni0311;
transform = "{1, 0, 0, 1, 65, 250}";
},
{
name = O;
}
);
layerId = "AF926F6A-8B43-44FC-95BD-7483A33A85BE";
width = 600;
},
{
components = (
{
name = O;
}
);
layerId = "4E44DDC3-06E7-48B7-B703-88785A848E58";
paths = (
{
closed = 1;
nodes = (
"460 1092 OFFCURVE",
"374 1032 OFFCURVE",
"349 951 CURVE",
"338 914 OFFCURVE",
"437 933 OFFCURVE",
"448 964 CURVE",
"457 991 OFFCURVE",
"478 1024 OFFCURVE",
"512 1013 CURVE",
"555 998 OFFCURVE",
"561 946 OFFCURVE",
"551 908 CURVE",
"540 869 OFFCURVE",
"638 889 OFFCURVE",
"649 919 CURVE",
"675 996 OFFCURVE",
"628 1076 OFFCURVE",
"546 1084 CURVE"
);
}
);
width = 632;
}
);
unicode = 020E;
},
{
glyphname = uni0210;
layers = (
{
components = (
{
name = uni030F;
transform = "{1, 0, 0, 1, -107, 293}";
},
{
name = R;
}
);
layerId = "AF926F6A-8B43-44FC-95BD-7483A33A85BE";
width = 492;
},
{
components = (
{
name = R;
}
);
layerId = "4E44DDC3-06E7-48B7-B703-88785A848E58";
paths = (
{
closed = 1;
nodes = (
"185 1071 OFFCURVE",
"145 1049 OFFCURVE",
"157 1030 CURVE",
"178 995 OFFCURVE",
"197 960 OFFCURVE",
"217 925 CURVE",
"229 905 OFFCURVE",
"259 910 OFFCURVE",
"277 917 CURVE",
"290 921 OFFCURVE",
"328 942 OFFCURVE",
"317 962 CURVE",
"297 997 OFFCURVE",
"277 1032 OFFCURVE",
"258 1067 CURVE",
"246 1087 OFFCURVE",
"215 1082 OFFCURVE",
"197 1075 CURVE"
);
},
{
closed = 1;
nodes = (
"406 1113 OFFCURVE",
"371 1107 OFFCURVE",
"355 1100 CURVE",
"340 1095 OFFCURVE",
"307 1077 OFFCURVE",
"315 1055 CURVE",
"324 1032 OFFCURVE",
"334 1009 OFFCURVE",
"343 985 CURVE",
"351 965 OFFCURVE",
"386 971 OFFCURVE",
"402 977 CURVE",
"417 983 OFFCURVE",
"450 1001 OFFCURVE",
"442 1022 CURVE",
"433 1045 OFFCURVE",
"424 1069 OFFCURVE",
"414 1092 CURVE"
);
}
);
width = 600;
}
);
unicode = 0210;
},
{
glyphname = uni0212;
layers = (
{
components = (
{
name = uni0311;
transform = "{1, 0, 0, 1, -92, 246}";
},
{
name = R;
}
);
layerId = "AF926F6A-8B43-44FC-95BD-7483A33A85BE";
width = 493;
},
{
components = (
{
name = R;
}
);
layerId = "4E44DDC3-06E7-48B7-B703-88785A848E58";
paths = (
{
closed = 1;
nodes = (
"275 1095 OFFCURVE",
"201 1022 OFFCURVE",
"190 937 CURVE",
"186 899 OFFCURVE",
"280 935 OFFCURVE",
"285 967 CURVE",
"290 995 OFFCURVE",
"305 1031 OFFCURVE",
"340 1026 CURVE",
"385 1019 OFFCURVE",
"400 969 OFFCURVE",
"396 930 CURVE",
"393 889 OFFCURVE",
"486 926 OFFCURVE",
"491 958 CURVE",
"504 1038 OFFCURVE",
"444 1109 OFFCURVE",
"361 1102 CURVE"
);
}
);
width = 520;
}
);
unicode = 0212;
},
{
glyphname = uni0214;
layers = (
{
components = (
{
name = uni030F;
transform = "{1, 0, 0, 1, -65, 275}";
},
{
name = U;
}
);
layerId = "AF926F6A-8B43-44FC-95BD-7483A33A85BE";
width = 501;
},
{
components = (
{
name = U;
}
);
layerId = "4E44DDC3-06E7-48B7-B703-88785A848E58";
paths = (
{
closed = 1;
nodes = (
"277 1059 OFFCURVE",
"237 1037 OFFCURVE",
"249 1018 CURVE",
"270 983 OFFCURVE",
"289 948 OFFCURVE",
"309 913 CURVE",
"321 893 OFFCURVE",
"351 898 OFFCURVE",
"369 905 CURVE",
"382 909 OFFCURVE",
"420 930 OFFCURVE",
"409 950 CURVE",
"389 985 OFFCURVE",
"369 1020 OFFCURVE",
"350 1055 CURVE",
"338 1075 OFFCURVE",
"307 1070 OFFCURVE",
"289 1063 CURVE"
);
},
{
closed = 1;
nodes = (
"498 1101 OFFCURVE",
"463 1095 OFFCURVE",
"447 1088 CURVE",
"432 1083 OFFCURVE",
"399 1065 OFFCURVE",
"407 1043 CURVE",
"416 1020 OFFCURVE",
"426 997 OFFCURVE",
"435 973 CURVE",
"443 953 OFFCURVE",
"478 959 OFFCURVE",
"494 965 CURVE",
"509 971 OFFCURVE",
"542 989 OFFCURVE",
"534 1010 CURVE",
"525 1033 OFFCURVE",
"516 1057 OFFCURVE",
"506 1080 CURVE"
);
}
);
width = 583;
}
);
unicode = 0214;
},
{
glyphname = uni0216;
layers = (
{
components = (
{
name = uni0311;
transform = "{1, 0, 0, 1, -56, 280}";
},
{
name = U;
}
);
layerId = "AF926F6A-8B43-44FC-95BD-7483A33A85BE";
width = 490;
},
{
components = (
{
name = U;
}
);
layerId = "4E44DDC3-06E7-48B7-B703-88785A848E58";
paths = (
{
closed = 1;
nodes = (
"390 1096 OFFCURVE",
"304 1036 OFFCURVE",
"279 955 CURVE",
"268 919 OFFCURVE",
"368 937 OFFCURVE",
"378 968 CURVE",
"388 995 OFFCURVE",
"409 1028 OFFCURVE",
"442 1017 CURVE",
"486 1002 OFFCURVE",
"491 950 OFFCURVE",
"481 912 CURVE",
"470 873 OFFCURVE",
"568 893 OFFCURVE",
"579 924 CURVE",
"606 1000 OFFCURVE",
"559 1080 OFFCURVE",
"476 1088 CURVE"
);
}
);
width = 583;
}
);
unicode = 0216;
},
{
glyphname = uni0230;
layers = (
{
layerId = "AF926F6A-8B43-44FC-95BD-7483A33A85BE";
paths = (
{
closed = 1;
nodes = (
"413 268 OFFCURVE",
"299 167 OFFCURVE",
"195 205 CURVE SMOOTH",
"87 245 OFFCURVE",
"149 405 OFFCURVE",
"184 490 CURVE SMOOTH",
"199 529 OFFCURVE",
"220 590 OFFCURVE",
"257 614 CURVE SMOOTH",
"296 638 OFFCURVE",
"355 641 OFFCURVE",
"396 630 CURVE SMOOTH",
"506 601 OFFCURVE",
"489 447 OFFCURVE",
"453 361 CURVE SMOOTH"
);
},
{
closed = 1;
nodes = (
"531 788 OFFCURVE",
"411 787 OFFCURVE",
"343 768 CURVE SMOOTH",
"249 742 OFFCURVE",
"213 688 OFFCURVE",
"161 609 CURVE SMOOTH",
"105 524 OFFCURVE",
"64 427 OFFCURVE",
"41 330 CURVE SMOOTH",
"26 267 OFFCURVE",
"0 178 OFFCURVE",
"35 120 CURVE SMOOTH",
"75 54 OFFCURVE",
"172 44 OFFCURVE",
"244 66 CURVE SMOOTH",
"323 91 OFFCURVE",
"395 156 OFFCURVE",
"453 216 CURVE SMOOTH",
"575 344 OFFCURVE",
"651 562 OFFCURVE",
"568 718 CURVE SMOOTH"
);
},
{
closed = 1;
nodes = (
"397 831 OFFCURVE",
"427 839 OFFCURVE",
"449 852 CURVE",
"467 862 OFFCURVE",
"484 875 OFFCURVE",
"492 894 CURVE",
"496 905 OFFCURVE",
"496 914 OFFCURVE",
"495 925 CURVE",
"493 934 OFFCURVE",
"488 943 OFFCURVE",
"481 949 CURVE",
"456 967 OFFCURVE",
"419 956 OFFCURVE",
"393 945 CURVE",
"393 944 OFFCURVE",
"393 944 OFFCURVE",
"392 944 CURVE",
"377 938 OFFCURVE",
"359 931 OFFCURVE",
"348 918 CURVE",
"339 907 OFFCURVE",
"330 897 OFFCURVE",
"327 882 CURVE",
"325 869 OFFCURVE",
"328 859 OFFCURVE",
"336 849 CURVE",
"344 839 OFFCURVE",
"359 835 OFFCURVE",
"371 834 CURVE"
);
},
{
closed = 1;
nodes = (
"360 1029 OFFCURVE",
"452 1030 OFFCURVE",
"544 1024 CURVE",
"578 1021 OFFCURVE",
"642 1053 OFFCURVE",
"631 1094 CURVE",
"630 1097 OFFCURVE",
"630 1100 OFFCURVE",
"629 1102 CURVE",
"622 1128 OFFCURVE",
"580 1127 OFFCURVE",
"545 1112 CURVE",
"479 1106 OFFCURVE",
"410 1110 OFFCURVE",
"345 1111 CURVE",
"313 1111 OFFCURVE",
"274 1101 OFFCURVE",
"252 1076 CURVE",
"234 1057 OFFCURVE",
"238 1034 OFFCURVE",
"268 1032 CURVE"
);
}
);
width = 600;
},
{
components = (
{
name = O;
},
{
name = dotaccent;
transform = "{1, 0, 0, 1, 201, 298}";
},
{
name = macron;
transform = "{0.9962, 0.0872, -0.0872, 0.9962, 310, 470}";
}
);
layerId = "4E44DDC3-06E7-48B7-B703-88785A848E58";
width = 600;
}
);
unicode = 0230;
},
{
glyphname = uni1EC8;
layers = (
{
components = (
{
name = hookabovecomb;
transform = "{1, 0, 0, 1, -252, 146}";
}
);
layerId = "AF926F6A-8B43-44FC-95BD-7483A33A85BE";
paths = (
{
closed = 1;
nodes = (
"118 242 OFFCURVE",
"130 319 OFFCURVE",
"133 389 CURVE SMOOTH",
"135 461 OFFCURVE",
"134 533 OFFCURVE",
"134 606 CURVE SMOOTH",
"134 644 OFFCURVE",
"145 751 OFFCURVE",
"73 701 CURVE SMOOTH",
"47 682 OFFCURVE",
"30 651 OFFCURVE",
"23 620 CURVE SMOOTH",
"16 589 OFFCURVE",
"24 570 OFFCURVE",
"27 542 CURVE SMOOTH",
"36 481 OFFCURVE",
"23 411 OFFCURVE",
"18 349 CURVE SMOOTH",
"12 272 OFFCURVE",
"5 195 OFFCURVE",
"5 117 CURVE SMOOTH",
"5 83 OFFCURVE",
"0 20 OFFCURVE",
"52 36 CURVE SMOOTH",
"98 50 OFFCURVE",
"132 130 OFFCURVE",
"126 173 CURVE SMOOTH"
);
}
);
width = 181;
},
{
components = (
{
name = I;
},
{
name = hookabovecomb;
transform = "{1, 0, 0, 1, 0, 299}";
}
);
layerId = "4E44DDC3-06E7-48B7-B703-88785A848E58";
width = 600;
}
);
unicode = 1EC8;
},
{
glyphname = uni1ECA;
layers = (
{
components = (
{
name = dotbelowcomb;
transform = "{1, 0, 0, 1, -247, -59}";
}
);
layerId = "AF926F6A-8B43-44FC-95BD-7483A33A85BE";
paths = (
{
closed = 1;
nodes = (
"118 242 OFFCURVE",
"130 319 OFFCURVE",
"133 389 CURVE SMOOTH",
"135 461 OFFCURVE",
"134 533 OFFCURVE",
"134 606 CURVE SMOOTH",
"134 644 OFFCURVE",
"145 751 OFFCURVE",
"73 701 CURVE SMOOTH",
"47 682 OFFCURVE",
"30 651 OFFCURVE",
"23 620 CURVE SMOOTH",
"16 589 OFFCURVE",
"24 570 OFFCURVE",
"27 542 CURVE SMOOTH",
"36 481 OFFCURVE",
"23 411 OFFCURVE",
"18 349 CURVE SMOOTH",
"12 272 OFFCURVE",
"5 195 OFFCURVE",
"5 117 CURVE SMOOTH",
"5 83 OFFCURVE",
"0 20 OFFCURVE",
"52 36 CURVE SMOOTH",
"98 50 OFFCURVE",
"132 130 OFFCURVE",
"126 173 CURVE SMOOTH"
);
}
);
width = 144;
},
{
components = (
{
name = I;
},
{
name = dotbelowcomb;
transform = "{1, 0, 0, 1, -154, 51}";
}
);
layerId = "4E44DDC3-06E7-48B7-B703-88785A848E58";
width = 600;
}
);
unicode = 1ECA;
},
{
glyphname = a;
layers = (
{
layerId = "4E44DDC3-06E7-48B7-B703-88785A848E58";
paths = (
{
closed = 1;
nodes = (
"123 239 OFFCURVE",
"188 276 OFFCURVE",
"230 301 CURVE SMOOTH",
"263 320 OFFCURVE",
"299 337 OFFCURVE",
"333 353 CURVE",
"328 301 OFFCURVE",
"321 239 OFFCURVE",
"317 193 CURVE",
"282 176 OFFCURVE",
"242 156 OFFCURVE",
"206 142 CURVE SMOOTH",
"160 124 OFFCURVE",
"101 114 OFFCURVE",
"113 186 CURVE SMOOTH"
);
},
{
closed = 1;
nodes = (
"257 656 OFFCURVE",
"161 534 OFFCURVE",
"104 449 CURVE SMOOTH",
"67 394 OFFCURVE",
"169 401 OFFCURVE",
"193 433 CURVE SMOOTH",
"222 471 OFFCURVE",
"251 508 OFFCURVE",
"285 541 CURVE SMOOTH",
"295 551 OFFCURVE",
"326 582 OFFCURVE",
"341 582 CURVE SMOOTH",
"342 582 OFFCURVE",
"342 582 OFFCURVE",
"342 582 CURVE",
"343 581 OFFCURVE",
"344 580 OFFCURVE",
"345 578 CURVE SMOOTH",
"352 563 OFFCURVE",
"346 522 OFFCURVE",
"346 506 CURVE SMOOTH",
"345 480 OFFCURVE",
"343 453 OFFCURVE",
"340 427 CURVE",
"221 381 OFFCURVE",
"7 290 OFFCURVE",
"9 146 CURVE SMOOTH",
"11 -10 OFFCURVE",
"189 58 OFFCURVE",
"306 114 CURVE",
"303 86 OFFCURVE",
"301 58 OFFCURVE",
"298 30 CURVE SMOOTH",
"294 -9 OFFCURVE",
"357 2 OFFCURVE",
"376 13 CURVE SMOOTH",
"382 16 OFFCURVE",
"387 19 OFFCURVE",
"392 23 CURVE SMOOTH",
"425 49 OFFCURVE",
"422 68 OFFCURVE",
"403 78 CURVE",
"403 107 OFFCURVE",
"406 136 OFFCURVE",
"410 165 CURVE",
"412 167 OFFCURVE",
"414 169 OFFCURVE",
"416 171 CURVE SMOOTH",
"418 173 OFFCURVE",
"419 174 OFFCURVE",
"420 176 CURVE SMOOTH",
"430 195 OFFCURVE",
"429 205 OFFCURVE",
"416 213 CURVE",
"419 229 OFFCURVE",
"421 244 OFFCURVE",
"423 260 CURVE SMOOTH",
"432 353 OFFCURVE",
"443 447 OFFCURVE",
"448 541 CURVE SMOOTH",
"451 604 OFFCURVE",
"450 658 OFFCURVE",
"371 657 CURVE SMOOTH"
);
}
);
width = 471;
},
{
layerId = "AF926F6A-8B43-44FC-95BD-7483A33A85BE";
paths = (
{
closed = 1;
nodes = (
"265 359 OFFCURVE",
"277 310 OFFCURVE",
"289 260 CURVE",
"266 279 OFFCURVE",
"242 299 OFFCURVE",
"219 319 CURVE",
"231 349 OFFCURVE",
"243 378 OFFCURVE",
"254 408 CURVE"
);
},
{
closed = 1;
nodes = (
"338 654 OFFCURVE",
"309 656 OFFCURVE",
"281 647 CURVE",
"251 643 OFFCURVE",
"216 628 OFFCURVE",
"210 609 CURVE SMOOTH",
"182 530 OFFCURVE",
"152 452 OFFCURVE",
"120 375 CURVE",
"78 367 OFFCURVE",
"31 333 OFFCURVE",
"56 306 CURVE SMOOTH",
"64 297 OFFCURVE",
"73 289 OFFCURVE",
"81 281 CURVE",
"50 207 OFFCURVE",
"19 134 OFFCURVE",
"-11 60 CURVE SMOOTH",
"-33 5 OFFCURVE",
"89 37 OFFCURVE",
"105 70 CURVE SMOOTH",
"128 113 OFFCURVE",
"149 158 OFFCURVE",
"170 203 CURVE",
"231 153 OFFCURVE",
"294 105 OFFCURVE",
"348 48 CURVE SMOOTH",
"381 13 OFFCURVE",
"480 53 OFFCURVE",
"467 103 CURVE SMOOTH",
"423 279 OFFCURVE",
"370 452 OFFCURVE",
"341 631 CURVE SMOOTH"
);
}
);
width = 485;
}
);
unicode = 0061;
},
{
glyphname = ae;
layers = (
{
layerId = "4E44DDC3-06E7-48B7-B703-88785A848E58";
paths = (
{
closed = 1;
nodes = (
"640 579 OFFCURVE",
"544 530 OFFCURVE",
"482 461 CURVE",
"445 523 OFFCURVE",
"380 560 OFFCURVE",
"308 563 CURVE",
"236 565 OFFCURVE",
"163 540 OFFCURVE",
"108 494 CURVE",
"83 474 OFFCURVE",
"62 449 OFFCURVE",
"48 420 CURVE",
"42 409 OFFCURVE",
"30 389 OFFCURVE",
"37 376 CURVE",
"44 363 OFFCURVE",
"64 363 OFFCURVE",
"77 365 CURVE",
"95 367 OFFCURVE",
"112 374 OFFCURVE",
"126 385 CURVE",
"140 396 OFFCURVE",
"143 414 OFFCURVE",
"152 428 CURVE",
"170 461 OFFCURVE",
"205 484 OFFCURVE",
"242 490 CURVE",
"284 496 OFFCURVE",
"325 478 OFFCURVE",
"355 449 CURVE",
"384 419 OFFCURVE",
"402 381 OFFCURVE",
"408 340 CURVE",
"348 368 OFFCURVE",
"277 374 OFFCURVE",
"212 360 CURVE",
"151 346 OFFCURVE",
"89 314 OFFCURVE",
"50 263 CURVE",
"31 237 OFFCURVE",
"15 205 OFFCURVE",
"15 173 CURVE",
"15 139 OFFCURVE",
"30 107 OFFCURVE",
"55 84 CURVE",
"106 38 OFFCURVE",
"182 26 OFFCURVE",
"248 43 CURVE",
"316 61 OFFCURVE",
"374 104 OFFCURVE",
"423 153 CURVE",
"476 60 OFFCURVE",
"596 24 OFFCURVE",
"695 58 CURVE",
"719 67 OFFCURVE",
"747 80 OFFCURVE",
"765 99 CURVE",
"772 107 OFFCURVE",
"778 118 OFFCURVE",
"774 129 CURVE",
"770 140 OFFCURVE",
"758 145 OFFCURVE",
"747 146 CURVE",
"723 149 OFFCURVE",
"703 138 OFFCURVE",
"683 125 CURVE",
"660 110 OFFCURVE",
"625 120 OFFCURVE",
"601 130 CURVE",
"574 143 OFFCURVE",
"550 162 OFFCURVE",
"533 186 CURVE",
"515 210 OFFCURVE",
"506 242 OFFCURVE",
"505 271 CURVE",
"553 256 OFFCURVE",
"603 246 OFFCURVE",
"653 250 CURVE",
"698 254 OFFCURVE",
"743 266 OFFCURVE",
"781 292 CURVE",
"849 337 OFFCURVE",
"901 431 OFFCURVE",
"846 506 CURVE",
"820 541 OFFCURVE",
"777 563 OFFCURVE",
"734 568 CURVE"
);
},
{
closed = 1;
nodes = (
"380 417 OFFCURVE",
"381 417 OFFCURVE",
"381 416 CURVE",
"381 417 OFFCURVE",
"380 417 OFFCURVE",
"380 418 CURVE"
);
},
{
closed = 1;
nodes = (
"118 185 OFFCURVE",
"119 218 OFFCURVE",
"139 245 CURVE",
"159 271 OFFCURVE",
"187 287 OFFCURVE",
"220 293 CURVE",
"283 304 OFFCURVE",
"350 275 OFFCURVE",
"391 228 CURVE",
"384 222 OFFCURVE",
"377 215 OFFCURVE",
"370 208 CURVE",
"374 213 OFFCURVE",
"368 206 OFFCURVE",
"367 205 CURVE",
"365 203 OFFCURVE",
"363 201 OFFCURVE",
"360 198 CURVE",
"356 194 OFFCURVE",
"351 189 OFFCURVE",
"347 184 CURVE",
"338 176 OFFCURVE",
"330 167 OFFCURVE",
"320 159 CURVE",
"303 143 OFFCURVE",
"283 128 OFFCURVE",
"262 118 CURVE",
"216 97 OFFCURVE",
"163 117 OFFCURVE",
"134 156 CURVE"
);
},
{
closed = 1;
nodes = (
"753 367 OFFCURVE",
"740 348 OFFCURVE",
"722 335 CURVE",
"704 321 OFFCURVE",
"679 320 OFFCURVE",
"657 321 CURVE",
"633 322 OFFCURVE",
"608 327 OFFCURVE",
"584 334 CURVE",
"562 341 OFFCURVE",
"540 353 OFFCURVE",
"516 350 CURVE",
"516 354 OFFCURVE",
"520 361 OFFCURVE",
"521 365 CURVE",
"524 371 OFFCURVE",
"527 377 OFFCURVE",
"529 383 CURVE",
"535 395 OFFCURVE",
"542 406 OFFCURVE",
"549 417 CURVE",
"564 437 OFFCURVE",
"581 454 OFFCURVE",
"601 470 CURVE",
"621 485 OFFCURVE",
"645 497 OFFCURVE",
"670 497 CURVE",
"695 497 OFFCURVE",
"719 486 OFFCURVE",
"736 469 CURVE",
"759 447 OFFCURVE",
"766 418 OFFCURVE",
"760 388 CURVE"
);
}
);
width = 884;
},
{
layerId = "AF926F6A-8B43-44FC-95BD-7483A33A85BE";
paths = (
{
closed = 1;
nodes = (
"692.043 362.427 OFFCURVE",
"600.757 363.027 OFFCURVE",
"509.452 362.827 CURVE",
"507.26 426.391 OFFCURVE",
"503.735 489.903 OFFCURVE",
"499.019 553.319 CURVE",
"570.623 554.607 OFFCURVE",
"642.106 561.238 OFFCURVE",
"711.552 575.238 CURVE",
"791.797 591.406 OFFCURVE",
"822.522 690.219 OFFCURVE",
"717.913 678.829 CURVE",
"593.247 665.246 OFFCURVE",
"473.959 658.807 OFFCURVE",
"348.754 670.162 CURVE",
"314.009 673.312 OFFCURVE",
"215.273 620.408 OFFCURVE",
"261.017 577.579 CURVE",
"280.395 559.436 OFFCURVE",
"171.914 354.187 OFFCURVE",
"157.731 327.021 CURVE",
"114.232 243.696 OFFCURVE",
"62.319 166.009 OFFCURVE",
"5.908 90.933 CURVE",
"-14.436 63.854 OFFCURVE",
"24.172 53.926 OFFCURVE",
"41.767 51.802 CURVE",
"71.691 48.191 OFFCURVE",
"117.826 67.013 OFFCURVE",
"136.847 90.071 CURVE",
"184.984 148.441 OFFCURVE",
"228.587 210.16 OFFCURVE",
"267.195 275.003 CURVE",
"299.356 274.464 OFFCURVE",
"331.525 273.803 OFFCURVE",
"363.694 273.098 CURVE",
"364.242 192.453 OFFCURVE",
"362.772 111.764 OFFCURVE",
"359.413 30.832 CURVE",
"360 -24 OFFCURVE",
"505 -5 OFFCURVE",
"509.208 63.515 CURVE",
"568.596 63.132 OFFCURVE",
"627.983 62.923 OFFCURVE",
"687.336 63.854 CURVE",
"716.277 64.306 OFFCURVE",
"759.271 81.44 OFFCURVE",
"775.717 106.36 CURVE",
"789.5 127.261 OFFCURVE",
"782.695 147.797 OFFCURVE",
"753.789 148.676 CURVE",
"673.048 151.138 OFFCURVE",
"592.22 150.599 OFFCURVE",
"511.471 148.249 CURVE",
"512.158 188.955 OFFCURVE",
"512.28 229.678 OFFCURVE",
"511.741 270.392 CURVE",
"580.282 269.6 OFFCURVE",
"648.797 269.791 OFFCURVE",
"717.234 272.55 CURVE",
"755.042 274.072 OFFCURVE",
"864.785 354.831 OFFCURVE",
"783.304 358.416 CURVE"
);
},
{
closed = 1;
nodes = (
"317.176 366.525 OFFCURVE",
"319.491 370.859 OFFCURVE",
"321.657 375.279 CURVE",
"330.063 392.464 OFFCURVE",
"344.377 418.247 OFFCURVE",
"359.065 447.466 CURVE",
"360.414 419.047 OFFCURVE",
"361.536 390.628 OFFCURVE",
"362.302 362.218 CURVE",
"346.518 362.157 OFFCURVE",
"330.742 362.14 OFFCURVE",
"314.966 362.122 CURVE"
);
}
);
width = 818;
}
);
unicode = 00E6;
},
{
glyphname = b;
layers = (
{
layerId = "4E44DDC3-06E7-48B7-B703-88785A848E58";
paths = (
{
closed = 1;
nodes = (
"340 247 OFFCURVE",
"259 197 OFFCURVE",
"201 162 CURVE SMOOTH",
"173 145 OFFCURVE",
"145 129 OFFCURVE",
"116 115 CURVE",
"136 238 OFFCURVE",
"155 362 OFFCURVE",
"174 485 CURVE",
"285 512 OFFCURVE",
"417 443 OFFCURVE",
"366 313 CURVE SMOOTH"
);
},
{
closed = 1;
nodes = (
"199 648 OFFCURVE",
"213 741 OFFCURVE",
"227 834 CURVE SMOOTH",
"235 882 OFFCURVE",
"124 857 OFFCURVE",
"118 814 CURVE SMOOTH",
"105 714 OFFCURVE",
"90 613 OFFCURVE",
"74 513 CURVE",
"47 494 OFFCURVE",
"50 474 OFFCURVE",
"67 465 CURVE",
"45 331 OFFCURVE",
"22 197 OFFCURVE",
"-1 63 CURVE",
"-3 62 OFFCURVE",
"-4 61 OFFCURVE",
"-5 60 CURVE SMOOTH",
"-8 56 OFFCURVE",
"-11 52 OFFCURVE",
"-14 48 CURVE SMOOTH",
"-29 29 OFFCURVE",
"-24 15 OFFCURVE",
"-11 7 CURVE",
"-14 -6 OFFCURVE",
"-16 -19 OFFCURVE",
"-18 -32 CURVE SMOOTH",
"-27 -85 OFFCURVE",
"87 -61 OFFCURVE",
"95 -13 CURVE SMOOTH",
"98 2 OFFCURVE",
"100 17 OFFCURVE",
"103 32 CURVE",
"257 100 OFFCURVE",
"469 213 OFFCURVE",
"479 378 CURVE SMOOTH",
"490 540 OFFCURVE",
"325 585 OFFCURVE",
"185 556 CURVE"
);
}
);
width = 478;
},
{
layerId = "AF926F6A-8B43-44FC-95BD-7483A33A85BE";
paths = (
{
closed = 1;
nodes = (
"266 186 OFFCURVE",
"220 154 OFFCURVE",
"174 131 CURVE",
"176 188 OFFCURVE",
"179 244 OFFCURVE",
"184 300 CURVE",
"210 305 OFFCURVE",
"235 306 OFFCURVE",
"258 294 CURVE SMOOTH",
"285 280 OFFCURVE",
"301 249 OFFCURVE",
"284 218 CURVE SMOOTH"
);
},
{
closed = 1;
nodes = (
"319 378 OFFCURVE",
"300 382 OFFCURVE",
"280 383 CURVE",
"348 429 OFFCURVE",
"406 497 OFFCURVE",
"401 570 CURVE SMOOTH",
"392 697 OFFCURVE",
"195 665 OFFCURVE",
"111 623 CURVE SMOOTH",
"93 614 OFFCURVE",
"67 594 OFFCURVE",
"77 573 CURVE SMOOTH",
"87 553 OFFCURVE",
"125 561 OFFCURVE",
"143 567 CURVE SMOOTH",
"193 584 OFFCURVE",
"301 595 OFFCURVE",
"280 512 CURVE SMOOTH",
"270 472 OFFCURVE",
"235 439 OFFCURVE",
"197 418 CURVE",
"202 452 OFFCURVE",
"208 486 OFFCURVE",
"216 521 CURVE SMOOTH",
"227 571 OFFCURVE",
"102 541 OFFCURVE",
"92 496 CURVE SMOOTH",
"63 364 OFFCURVE",
"48 231 OFFCURVE",
"48 99 CURVE SMOOTH",
"48 98 OFFCURVE",
"48 97 OFFCURVE",
"48 96 CURVE",
"31 89 OFFCURVE",
"15 78 OFFCURVE",
"8 63 CURVE SMOOTH",
"-4 37 OFFCURVE",
"18 20 OFFCURVE",
"43 21 CURVE SMOOTH",
"114 24 OFFCURVE",
"185 56 OFFCURVE",
"249 94 CURVE SMOOTH",
"305 127 OFFCURVE",
"375 173 OFFCURVE",
"402 235 CURVE SMOOTH",
"428 296 OFFCURVE",
"390 350 OFFCURVE",
"337 371 CURVE SMOOTH"
);
}
);
width = 409;
}
);
unicode = 0062;
},
{
glyphname = c;
layers = (
{
layerId = "4E44DDC3-06E7-48B7-B703-88785A848E58";
paths = (
{
closed = 1;
nodes = (
"381.2 654.64 OFFCURVE",
"367 619.9 OFFCURVE",
"353.64 584.87 CURVE",
"314.82 610.66 OFFCURVE",
"262.72 612.36 OFFCURVE",
"207.71 585.51 CURVE SMOOTH",
"96.5 531.24 OFFCURVE",
"37.48 400.25 OFFCURVE",
"17.5 284.29 CURVE SMOOTH",
"0 182.7 OFFCURVE",
"28.64 55.76 OFFCURVE",
"146.03 35.77 CURVE SMOOTH",
"282.23 12.59 OFFCURVE",
"402.54 134.48 OFFCURVE",
"468.91 237.43 CURVE SMOOTH",
"504.01 291.87 OFFCURVE",
"406.43 289.47 OFFCURVE",
"381.87 255.53 CURVE SMOOTH",
"343.56 202.57 OFFCURVE",
"270.26 90.22 OFFCURVE",
"189.71 109.95 CURVE SMOOTH",
"121.28 126.71 OFFCURVE",
"111.81 219.1 OFFCURVE",
"116.65 275.48 CURVE SMOOTH",
"123.58 356.35 OFFCURVE",
"157.53 454.58 OFFCURVE",
"219.4 510.52 CURVE SMOOTH",
"274.51 560.34 OFFCURVE",
"302.87 507.2 OFFCURVE",
"314.99 450.48 CURVE SMOOTH",
"317.62 438.19 OFFCURVE",
"329.62 433.24 OFFCURVE",
"344.41 433.49 CURVE",
"370.32 432.92 OFFCURVE",
"404.85 448.4 OFFCURVE",
"413.64 468.97 CURVE SMOOTH",
"444.1 540.3 OFFCURVE",
"468.28 617.62 OFFCURVE",
"490.35 691.96 CURVE SMOOTH",
"505.73 743.78 OFFCURVE",
"407.03 723.94 OFFCURVE",
"394.02 689.05 CURVE SMOOTH"
);
}
);
width = 476;
},
{
layerId = "AF926F6A-8B43-44FC-95BD-7483A33A85BE";
paths = (
{
closed = 1;
nodes = (
"358 379 OFFCURVE",
"299 50 OFFCURVE",
"178 153 CURVE SMOOTH",
"129 195 OFFCURVE",
"118 273 OFFCURVE",
"127 334 CURVE SMOOTH",
"133 376 OFFCURVE",
"146 417 OFFCURVE",
"164 456 CURVE SMOOTH",
"169 467 OFFCURVE",
"176 485 OFFCURVE",
"184 503 CURVE",
"186 501 OFFCURVE",
"189 499 OFFCURVE",
"193 498 CURVE",
"188 486 OFFCURVE",
"183 475 OFFCURVE",
"178 464 CURVE SMOOTH",
"152 407 OFFCURVE",
"273 425 OFFCURVE",
"292 466 CURVE SMOOTH",
"332 552 OFFCURVE",
"368 639 OFFCURVE",
"404 727 CURVE SMOOTH",
"426 781 OFFCURVE",
"311 756 OFFCURVE",
"294 721 CURVE SMOOTH",
"278 688 OFFCURVE",
"263 655 OFFCURVE",
"248 622 CURVE",
"237 627 OFFCURVE",
"224 629 OFFCURVE",
"209 627 CURVE SMOOTH",
"145 618 OFFCURVE",
"111 566 OFFCURVE",
"83 514 CURVE SMOOTH",
"20 398 OFFCURVE",
"-35 243 OFFCURVE",
"48 122 CURVE SMOOTH",
"113 28 OFFCURVE",
"231 38 OFFCURVE",
"319 94 CURVE SMOOTH",
"437 169 OFFCURVE",
"460 335 OFFCURVE",
"483 461 CURVE SMOOTH",
"492 510 OFFCURVE",
"379 484 OFFCURVE",
"370 439 CURVE SMOOTH"
);
}
);
width = 477;
}
);
unicode = 0063;
},
{
glyphname = d;
layers = (
{
layerId = "4E44DDC3-06E7-48B7-B703-88785A848E58";
paths = (
{
closed = 1;
nodes = (
"103.75 152.76 OFFCURVE",
"107.1 214.55 OFFCURVE",
"115.24 256.98 CURVE SMOOTH",
"134.67 358.3 OFFCURVE",
"213.19 493.68 OFFCURVE",
"329.05 495.2 CURVE SMOOTH",
"329.72 495.21 OFFCURVE",
"330.51 495.4 OFFCURVE",
"331.22 495.46 CURVE",
"318.68 373.28 OFFCURVE",
"302.13 251.38 OFFCURVE",
"281.08 130.9 CURVE",
"235.32 111.07 OFFCURVE",
"179.74 94.78 OFFCURVE",
"142.63 123.09 CURVE SMOOTH"
);
},
{
closed = 1;
nodes = (
"351.04 729.53 OFFCURVE",
"345.22 646.47 OFFCURVE",
"337.74 563.44 CURVE",
"169.4 556.43 OFFCURVE",
"38.2 392.46 OFFCURVE",
"11.35 233.42 CURVE SMOOTH",
"0.01 166.26 OFFCURVE",
"11.47 87.23 OFFCURVE",
"77.5 52.58 CURVE SMOOTH",
"134.88 22.47 OFFCURVE",
"203.31 31.75 OFFCURVE",
"266.92 53.4 CURVE",
"266.48 51.09 OFFCURVE",
"266.1 48.76 OFFCURVE",
"265.65 46.45 CURVE SMOOTH",
"256.61 -0.39 OFFCURVE",
"365.46 21.13 OFFCURVE",
"373.01 66.45 CURVE SMOOTH",
"375.05 78.72 OFFCURVE",
"376.94 91.04 OFFCURVE",
"378.93 103.33 CURVE",
"411.92 121.84 OFFCURVE",
"406.62 142.52 OFFCURVE",
"386.88 152.87 CURVE",
"421.91 378.28 OFFCURVE",
"447.3 605.95 OFFCURVE",
"458.74 833.61 CURVE SMOOTH",
"461 878.54 OFFCURVE",
"356.68 851.53 OFFCURVE",
"354.87 812.25 CURVE SMOOTH"
);
}
);
width = 449;
},
{
layerId = "AF926F6A-8B43-44FC-95BD-7483A33A85BE";
paths = (
{
closed = 1;
nodes = (
"142 298 OFFCURVE",
"143 387 OFFCURVE",
"145 477 CURVE",
"193 434 OFFCURVE",
"247 398 OFFCURVE",
"306 380 CURVE",
"260 311 OFFCURVE",
"204 257 OFFCURVE",
"141 208 CURVE"
);
},
{
closed = 1;
nodes = (
"426 439 OFFCURVE",
"420 441 OFFCURVE",
"411 444 CURVE SMOOTH",
"300 473 OFFCURVE",
"213 557 OFFCURVE",
"147 648 CURVE",
"147 651 OFFCURVE",
"147 654 OFFCURVE",
"147 658 CURVE SMOOTH",
"147 710 OFFCURVE",
"27 685 OFFCURVE",
"26 641 CURVE SMOOTH",
"26 637 OFFCURVE",
"26 633 OFFCURVE",
"26 630 CURVE",
"24 624 OFFCURVE",
"23 619 OFFCURVE",
"25 613 CURVE",
"23 448 OFFCURVE",
"19 283 OFFCURVE",
"17 118 CURVE",
"13 116 OFFCURVE",
"10 113 OFFCURVE",
"7 111 CURVE SMOOTH",
"-13 97 OFFCURVE",
"-21 75 OFFCURVE",
"0 59 CURVE SMOOTH",
"22 42 OFFCURVE",
"63 57 OFFCURVE",
"82 69 CURVE SMOOTH",
"221 158 OFFCURVE",
"355 259 OFFCURVE",
"433 408 CURVE SMOOTH",
"440 421 OFFCURVE",
"437 430 OFFCURVE",
"430 435 CURVE"
);
}
);
width = 430;
}
);
unicode = 0064;
},
{
glyphname = eth;
layers = (
{
layerId = "4E44DDC3-06E7-48B7-B703-88785A848E58";
paths = (
{
closed = 1;
nodes = (
"473 633 OFFCURVE",
"431 617 OFFCURVE",
"389 600 CURVE",
"371 658 OFFCURVE",
"348 711 OFFCURVE",
"325 754 CURVE",
"302 794 OFFCURVE",
"202 754 OFFCURVE",
"224 716 CURVE",
"249 669 OFFCURVE",
"272 617 OFFCURVE",
"289 562 CURVE",
"241 544 OFFCURVE",
"193 527 OFFCURVE",
"145 511 CURVE",
"81 490 OFFCURVE",
"105 428 OFFCURVE",
"168 449 CURVE",
"215 463 OFFCURVE",
"261 480 OFFCURVE",
"306 496 CURVE",
"312 470 OFFCURVE",
"317 444 OFFCURVE",
"321 418 CURVE",
"217 445 OFFCURVE",
"94 343 OFFCURVE",
"57 247 CURVE",
"8 116 OFFCURVE",
"104 -37 OFFCURVE",
"250 19 CURVE",
"449 94 OFFCURVE",
"458 332 OFFCURVE",
"408 535 CURVE",
"451 553 OFFCURVE",
"494 571 OFFCURVE",
"537 590 CURVE",
"596 616 OFFCURVE",
"576 677 OFFCURVE",
"515 651 CURVE"
);
},
{
closed = 1;
nodes = (
"142 173 OFFCURVE",
"144 226 OFFCURVE",
"167 270 CURVE",
"192 320 OFFCURVE",
"245 378 OFFCURVE",
"296 325 CURVE",
"303 318 OFFCURVE",
"314 316 OFFCURVE",
"326 316 CURVE",
"325 287 OFFCURVE",
"322 258 OFFCURVE",
"317 230 CURVE",
"305 164 OFFCURVE",
"221 7 OFFCURVE",
"163 129 CURVE"
);
}
);
width = 600;
},
{
layerId = "AF926F6A-8B43-44FC-95BD-7483A33A85BE";
paths = (
{
closed = 1;
nodes = (
"-52 264 OFFCURVE",
"-9 81 OFFCURVE",
"138 21 CURVE",
"286 -41 OFFCURVE",
"466 62 OFFCURVE",
"490 219 CURVE",
"508 336 OFFCURVE",
"464 453 OFFCURVE",
"392 549 CURVE",
"417 560 OFFCURVE",
"454 581 OFFCURVE",
"445 609 CURVE",
"435 640 OFFCURVE",
"373 623 OFFCURVE",
"354 616 CURVE",
"349 614 OFFCURVE",
"345 612 OFFCURVE",
"340 611 CURVE",
"318 633 OFFCURVE",
"295 654 OFFCURVE",
"271 672 CURVE",
"228 704 OFFCURVE",
"81 628 OFFCURVE",
"124 596 CURVE",
"143 581 OFFCURVE",
"162 565 OFFCURVE",
"179 548 CURVE",
"179 548 OFFCURVE",
"178 547 OFFCURVE",
"178 547 CURVE",
"157 538 OFFCURVE",
"103 515 OFFCURVE",
"113 483 CURVE",
"123 453 OFFCURVE",
"186 471 OFFCURVE",
"204 477 CURVE",
"214 480 OFFCURVE",
"223 484 OFFCURVE",
"232 487 CURVE",
"247 468 OFFCURVE",
"260 448 OFFCURVE",
"272 427 CURVE",
"206 439 OFFCURVE",
"136 422 OFFCURVE",
"74 370 CURVE"
);
},
{
closed = 1;
nodes = (
"218 134 OFFCURVE",
"187 178 OFFCURVE",
"175 206 CURVE",
"164 231 OFFCURVE",
"148 292 OFFCURVE",
"175 313 CURVE",
"222 348 OFFCURVE",
"269 269 OFFCURVE",
"286 238 CURVE",
"294 225 OFFCURVE",
"308 219 OFFCURVE",
"325 218 CURVE",
"325 217 OFFCURVE",
"325 215 OFFCURVE",
"325 214 CURVE",
"322 166 OFFCURVE",
"319 105 OFFCURVE",
"250 125 CURVE"
);
}
);
width = 494;
}
);
unicode = 00F0;
},
{
glyphname = dcroat;
layers = (
{
layerId = "AF926F6A-8B43-44FC-95BD-7483A33A85BE";
paths = (
{
closed = 1;
nodes = (
"557 468 OFFCURVE",
"518 466 OFFCURVE",
"477 464 CURVE",
"477 430 OFFCURVE",
"477 398 OFFCURVE",
"479 364 CURVE",
"484 261 OFFCURVE",
"499 154 OFFCURVE",
"488 50 CURVE",
"485 18 OFFCURVE",
"460 -2 OFFCURVE",
"429 1 CURVE",
"314 10 OFFCURVE",
"70 77 OFFCURVE",
"81 251 CURVE",
"88 374 OFFCURVE",
"213 409 OFFCURVE",
"318 404 CURVE",
"317 422 OFFCURVE",
"317 441 OFFCURVE",
"317 460 CURVE",
"289 459 OFFCURVE",
"260 460 OFFCURVE",
"232 460 CURVE",
"200 461 OFFCURVE",
"151 482 OFFCURVE",
"134 515 CURVE",
"120 542 OFFCURVE",
"126 572 OFFCURVE",
"159 573 CURVE",
"213 576 OFFCURVE",
"266 576 OFFCURVE",
"317 575 CURVE",
"318 637 OFFCURVE",
"321 699 OFFCURVE",
"325 761 CURVE",
"328 806 OFFCURVE",
"485 759 OFFCURVE",
"483 707 CURVE",
"480 662 OFFCURVE",
"479 618 OFFCURVE",
"477 572 CURVE",
"487 572 OFFCURVE",
"496 572 OFFCURVE",
"504 572 CURVE",
"542 572 OFFCURVE",
"588 560 OFFCURVE",
"615 526 CURVE",
"635 501 OFFCURVE",
"632 468 OFFCURVE",
"597 468 CURVE"
);
},
{
closed = 1;
nodes = (
"213 197 OFFCURVE",
"273 162 OFFCURVE",
"328 146 CURVE",
"328 188 OFFCURVE",
"328 231 OFFCURVE",
"325 274 CURVE",
"308 271 OFFCURVE",
"293 266 OFFCURVE",
"281 255 CURVE"
);
}
);
width = 600;
},
{
layerId = "4E44DDC3-06E7-48B7-B703-88785A848E58";
paths = (
{
closed = 1;
nodes = (
"556 692 OFFCURVE",
"556 698 OFFCURVE",
"559 700 CURVE",
"561 703 OFFCURVE",
"568 704 OFFCURVE",
"571 705 CURVE",
"579 708 OFFCURVE",
"587 711 OFFCURVE",
"595 715 CURVE",
"608 722 OFFCURVE",
"623 732 OFFCURVE",
"629 746 CURVE",
"634 760 OFFCURVE",
"624 770 OFFCURVE",
"612 773 CURVE",
"596 776 OFFCURVE",
"580 772 OFFCURVE",
"563 766 CURVE",
"567 798 OFFCURVE",
"570 830 OFFCURVE",
"573 862 CURVE",
"574 875 OFFCURVE",
"575 885 OFFCURVE",
"563 891 CURVE",
"553 896 OFFCURVE",
"541 896 OFFCURVE",
"528 894 CURVE",
"515 891 OFFCURVE",
"502 887 OFFCURVE",
"490 880 CURVE",
"478 873 OFFCURVE",
"464 862 OFFCURVE",
"460 849 CURVE",
"457 842 OFFCURVE",
"458 834 OFFCURVE",
"457 827 CURVE",
"456 819 OFFCURVE",
"455 812 OFFCURVE",
"455 804 CURVE",
"453 787 OFFCURVE",
"452 771 OFFCURVE",
"450 754 CURVE",
"433 757 OFFCURVE",
"418 761 OFFCURVE",
"402 768 CURVE",
"388 773 OFFCURVE",
"373 773 OFFCURVE",
"357 769 CURVE",
"337 764 OFFCURVE",
"284 740 OFFCURVE",
"297 714 CURVE",
"299 708 OFFCURVE",
"305 706 OFFCURVE",
"311 703 CURVE",
"318 700 OFFCURVE",
"326 697 OFFCURVE",
"335 694 CURVE",
"350 689 OFFCURVE",
"366 685 OFFCURVE",
"383 683 CURVE",
"400 680 OFFCURVE",
"417 679 OFFCURVE",
"434 679 CURVE",
"435 679 OFFCURVE",
"438 680 OFFCURVE",
"440 679 CURVE",
"445 678 OFFCURVE",
"442 680 OFFCURVE",
"443 676 CURVE",
"443 672 OFFCURVE",
"442 667 OFFCURVE",
"442 663 CURVE",
"441 653 OFFCURVE",
"440 643 OFFCURVE",
"439 633 CURVE",
"435 590 OFFCURVE",
"431 548 OFFCURVE",
"427 505 CURVE",
"419 509 OFFCURVE",
"413 515 OFFCURVE",
"405 518 CURVE",
"397 522 OFFCURVE",
"389 525 OFFCURVE",
"380 528 CURVE",
"362 533 OFFCURVE",
"343 536 OFFCURVE",
"324 537 CURVE",
"285 539 OFFCURVE",
"244 532 OFFCURVE",
"205 519 CURVE",
"127 493 OFFCURVE",
"50 442 OFFCURVE",
"4 370 CURVE",
"-41 298 OFFCURVE",
"-48 213 OFFCURVE",
"-20 147 CURVE",
"6 84 OFFCURVE",
"62 42 OFFCURVE",
"133 34 CURVE",
"218 24 OFFCURVE",
"313 53 OFFCURVE",
"389 110 CURVE",
"386 81 OFFCURVE",
"385 53 OFFCURVE",
"381 24 CURVE",
"378 -1 OFFCURVE",
"409 -2 OFFCURVE",
"428 2 CURVE",
"441 4 OFFCURVE",
"454 9 OFFCURVE",
"466 16 CURVE",
"477 23 OFFCURVE",
"490 33 OFFCURVE",
"495 45 CURVE",
"497 51 OFFCURVE",
"497 58 OFFCURVE",
"497 64 CURVE",
"498 72 OFFCURVE",
"499 80 OFFCURVE",
"500 88 CURVE",
"501 102 OFFCURVE",
"502 117 OFFCURVE",
"504 132 CURVE",
"515 251 OFFCURVE",
"526 369 OFFCURVE",
"537 487 CURVE",
"543 554 OFFCURVE",
"550 621 OFFCURVE",
"556 688 CURVE"
);
},
{
closed = 1;
nodes = (
"363 184 OFFCURVE",
"338 154 OFFCURVE",
"305 133 CURVE",
"273 113 OFFCURVE",
"234 104 OFFCURVE",
"201 109 CURVE",
"134 118 OFFCURVE",
"93 172 OFFCURVE",
"83 235 CURVE",
"73 302 OFFCURVE",
"98 381 OFFCURVE",
"164 428 CURVE",
"195 450 OFFCURVE",
"231 461 OFFCURVE",
"265 460 CURVE",
"284 460 OFFCURVE",
"302 456 OFFCURVE",
"317 449 CURVE",
"324 446 OFFCURVE",
"330 444 OFFCURVE",
"336 440 CURVE",
"342 435 OFFCURVE",
"347 431 OFFCURVE",
"352 425 CURVE",
"401 375 OFFCURVE",
"413 293 OFFCURVE",
"380 218 CURVE"
);
}
);
width = 560;
}
);
unicode = 0111;
},
{
glyphname = e;
layers = (
{
layerId = "4E44DDC3-06E7-48B7-B703-88785A848E58";
paths = (
{
closed = 1;
nodes = (
"290 575 OFFCURVE",
"297 577 OFFCURVE",
"295 578 CURVE",
"297 577 OFFCURVE",
"306 578 OFFCURVE",
"316 573 CURVE SMOOTH",
"343 560 OFFCURVE",
"365 536 OFFCURVE",
"383 511 CURVE",
"324 492 OFFCURVE",
"265 471 OFFCURVE",
"206 449 CURVE",
"225 501 OFFCURVE",
"252 547 OFFCURVE",
"289 575 CURVE SMOOTH"
);
},
{
closed = 1;
nodes = (
"211 627 OFFCURVE",
"157 553 OFFCURVE",
"124 481 CURVE SMOOTH",
"116 461 OFFCURVE",
"106 436 OFFCURVE",
"97 408 CURVE",
"85 403 OFFCURVE",
"68 397 OFFCURVE",
"48 389 CURVE SMOOTH",
"-15 364 OFFCURVE",
"-3 301 OFFCURVE",
"60 323 CURVE SMOOTH",
"77 329 OFFCURVE",
"60 323 OFFCURVE",
"76 328 CURVE",
"54 216 OFFCURVE",
"56 88 OFFCURVE",
"149 45 CURVE SMOOTH",
"264 -8 OFFCURVE",
"394 119 OFFCURVE",
"464 193 CURVE SMOOTH",
"505 237 OFFCURVE",
"411 246 OFFCURVE",
"384 220 CURVE SMOOTH",
"349 185 OFFCURVE",
"313 149 OFFCURVE",
"270 124 CURVE SMOOTH",
"246 111 OFFCURVE",
"235 105 OFFCURVE",
"222 111 CURVE SMOOTH",
"217 114 OFFCURVE",
"201 128 OFFCURVE",
"193 145 CURVE SMOOTH",
"181 169 OFFCURVE",
"176 197 OFFCURVE",
"175 223 CURVE SMOOTH",
"172 264 OFFCURVE",
"174 314 OFFCURVE",
"184 364 CURVE",
"278 396 OFFCURVE",
"372 429 OFFCURVE",
"462 469 CURVE SMOOTH",
"475 474 OFFCURVE",
"484 481 OFFCURVE",
"490 488 CURVE",
"502 498 OFFCURVE",
"508 510 OFFCURVE",
"501 521 CURVE SMOOTH",
"455 596 OFFCURVE",
"390 667 OFFCURVE",
"293 646 CURVE SMOOTH"
);
}
);
width = 490;
},
{
layerId = "AF926F6A-8B43-44FC-95BD-7483A33A85BE";
paths = (
{
closed = 1;
nodes = (
"348 177 OFFCURVE",
"254 177 OFFCURVE",
"164 145 CURVE",
"173 175 OFFCURVE",
"181 206 OFFCURVE",
"188 237 CURVE",
"217 241 OFFCURVE",
"245 245 OFFCURVE",
"273 250 CURVE SMOOTH",
"296 254 OFFCURVE",
"333 272 OFFCURVE",
"334 299 CURVE SMOOTH",
"335 328 OFFCURVE",
"299 328 OFFCURVE",
"280 326 CURVE SMOOTH",
"254 323 OFFCURVE",
"228 319 OFFCURVE",
"202 314 CURVE",
"204 335 OFFCURVE",
"207 356 OFFCURVE",
"209 377 CURVE SMOOTH",
"212 405 OFFCURVE",
"213 433 OFFCURVE",
"214 461 CURVE",
"266 438 OFFCURVE",
"325 433 OFFCURVE",
"390 455 CURVE SMOOTH",
"445 474 OFFCURVE",
"449 544 OFFCURVE",
"380 529 CURVE SMOOTH",
"275 506 OFFCURVE",
"207 595 OFFCURVE",
"174 682 CURVE SMOOTH",
"171 690 OFFCURVE",
"165 695 OFFCURVE",
"157 698 CURVE",
"126 725 OFFCURVE",
"23 677 OFFCURVE",
"53 635 CURVE SMOOTH",
"112 553 OFFCURVE",
"96 427 OFFCURVE",
"87 333 CURVE SMOOTH",
"78 236 OFFCURVE",
"50 147 OFFCURVE",
"17 55 CURVE SMOOTH",
"0 7 OFFCURVE",
"76 15 OFFCURVE",
"114 40 CURVE",
"197 90 OFFCURVE",
"270 102 OFFCURVE",
"363 71 CURVE SMOOTH",
"390 62 OFFCURVE",
"423 67 OFFCURVE",
"444 88 CURVE SMOOTH",
"458 102 OFFCURVE",
"476 131 OFFCURVE",
"448 141 CURVE SMOOTH"
);
}
);
width = 480;
}
);
unicode = 0065;
},
{
glyphname = uni0259;
layers = (
{
layerId = "AF926F6A-8B43-44FC-95BD-7483A33A85BE";
paths = (
{
closed = 1;
nodes = (
"500 340 OFFCURVE",
"496 340 OFFCURVE",
"496 340 CURVE",
"482 408 OFFCURVE",
"454 464 OFFCURVE",
"403 509 CURVE",
"304 600 OFFCURVE",
"208 611 OFFCURVE",
"92 583 CURVE",
"12 565 OFFCURVE",
"-34 453 OFFCURVE",
"73 476 CURVE",
"171 498 OFFCURVE",
"330 509 OFFCURVE",
"382 340 CURVE",
"321 340 OFFCURVE",
"218 335 OFFCURVE",
"157 330 CURVE",
"124 324 OFFCURVE",
"50 295 OFFCURVE",
"54 239 CURVE",
"92 -32 OFFCURVE",
"388 -47 OFFCURVE",
"477 190 CURVE",
"482 200 OFFCURVE",
"487 211 OFFCURVE",
"491 223 CURVE",
"547 256 OFFCURVE",
"594 335 OFFCURVE",
"500 340 CURVE"
);
},
{
closed = 1;
nodes = (
"254 102 OFFCURVE",
"203 134 OFFCURVE",
"162 216 CURVE",
"230 216 OFFCURVE",
"322 216 OFFCURVE",
"390 225 CURVE",
"382 184 OFFCURVE",
"349 154 OFFCURVE",
"315 134 CURVE"
);
}
);
width = 564;
},
{
layerId = "4E44DDC3-06E7-48B7-B703-88785A848E58";
paths = (
{
closed = 1;
nodes = (
"131 575 OFFCURVE",
"79 495 OFFCURVE",
"150 501 CURVE",
"229 505 OFFCURVE",
"308 496 OFFCURVE",
"347 426 CURVE",
"357 409 OFFCURVE",
"363 391 OFFCURVE",
"367 371 CURVE",
"291 371 OFFCURVE",
"216 370 OFFCURVE",
"141 368 CURVE",
"116 367 OFFCURVE",
"76 354 OFFCURVE",
"65 327 CURVE",
"57 314 OFFCURVE",
"61 302 OFFCURVE",
"69 297 CURVE",
"21 93 OFFCURVE",
"272 -39 OFFCURVE",
"417 156 CURVE",
"482 246 OFFCURVE",
"507 375 OFFCURVE",
"464 465 CURVE",
"415 569 OFFCURVE",
"294 591 OFFCURVE",
"179 579 CURVE"
);
},
{
closed = 1;
nodes = (
"191 192 OFFCURVE",
"177 239 OFFCURVE",
"181 290 CURVE",
"243 290 OFFCURVE",
"304 292 OFFCURVE",
"366 296 CURVE",
"362 270 OFFCURVE",
"355 244 OFFCURVE",
"345 220 CURVE",
"318 157 OFFCURVE",
"284 116 OFFCURVE",
"229 161 CURVE"
);
}
);
width = 560;
}
);
unicode = 0259;
},
{
glyphname = f;
layers = (
{
layerId = "4E44DDC3-06E7-48B7-B703-88785A848E58";
paths = (
{
closed = 1;
nodes = (
"168.6 901.9 OFFCURVE",
"136.6 795.42 OFFCURVE",
"117.15 714.95 CURVE SMOOTH",
"89.93 602.29 OFFCURVE",
"82 551 OFFCURVE",
"74 434 CURVE",
"41 430 OFFCURVE",
"8 425 OFFCURVE",
"-26 421 CURVE SMOOTH",
"-68 416 OFFCURVE",
"-108 345 OFFCURVE",
"-44 352 CURVE SMOOTH",
"-6 356 OFFCURVE",
"32 359 OFFCURVE",
"70 363 CURVE",
"66 281 OFFCURVE",
"58.65 133.54 OFFCURVE",
"56.6 52.17 CURVE SMOOTH",
"55.29 0.02 OFFCURVE",
"168.7 28.95 OFFCURVE",
"169.73 74.16 CURVE SMOOTH",
"171.53 152.93 OFFCURVE",
"180 297 OFFCURVE",
"183 375 CURVE",
"223 380 OFFCURVE",
"262 386 OFFCURVE",
"301 393 CURVE SMOOTH",
"338 400 OFFCURVE",
"385 463 OFFCURVE",
"320 460 CURVE SMOOTH",
"276 458 OFFCURVE",
"232 454 OFFCURVE",
"188 449 CURVE",
"192 515 OFFCURVE",
"192.21 516.35 OFFCURVE",
"200.77 582.27 CURVE SMOOTH",
"212.25 670.65 OFFCURVE",
"237.37 748.1 OFFCURVE",
"261.72 831.95 CURVE",
"262.22 830.73 OFFCURVE",
"262.97 829.68 OFFCURVE",
"263.34 828.37 CURVE",
"264.13 817.55 OFFCURVE",
"269.82 805.66 OFFCURVE",
"271.6 794.67 CURVE SMOOTH",
"281.34 734.35 OFFCURVE",
"272.8 670.82 OFFCURVE",
"271.19 610.1 CURVE SMOOTH",
"269.82 558.7 OFFCURVE",
"377.24 585.26 OFFCURVE",
"378.57 630.05 CURVE SMOOTH",
"381.18 718.67 OFFCURVE",
"417.7 947.94 OFFCURVE",
"263.12 919.37 CURVE SMOOTH"
);
}
);
width = 339;
},
{
layerId = "AF926F6A-8B43-44FC-95BD-7483A33A85BE";
paths = (
{
closed = 1;
nodes = (
"318.48 521.87 OFFCURVE",
"198.3 620.95 OFFCURVE",
"139.63 650.68 CURVE SMOOTH",
"105.09 668.18 OFFCURVE",
"14.94 619.23 OFFCURVE",
"42.27 589.06 CURVE",
"42.17 586.88 OFFCURVE",
"42.04 584.71 OFFCURVE",
"42.45 582.49 CURVE SMOOTH",
"57.21 501.76 OFFCURVE",
"64.29 422.55 OFFCURVE",
"64.12 343.61 CURVE",
"60.55 342.03 OFFCURVE",
"56.99 340.32 OFFCURVE",
"53.43 338.42 CURVE SMOOTH",
"32.83 327.43 OFFCURVE",
"0 285.29 OFFCURVE",
"45.71 283.61 CURVE",
"45.96 283.89 OFFCURVE",
"46.22 284.17 OFFCURVE",
"46.47 284.45 CURVE",
"51.84 284.11 OFFCURVE",
"57.23 283.83 OFFCURVE",
"62.6 283.5 CURVE",
"58.94 209.25 OFFCURVE",
"48.87 134.96 OFFCURVE",
"32.48 59.55 CURVE SMOOTH",
"21.57 9.32 OFFCURVE",
"144.73 37.29 OFFCURVE",
"155.37 84.12 CURVE SMOOTH",
"170.06 148.73 OFFCURVE",
"179.45 212.89 OFFCURVE",
"183.91 276.96 CURVE",
"253.9 273.68 OFFCURVE",
"274 271 OFFCURVE",
"344 270 CURVE SMOOTH",
"393 269 OFFCURVE",
"455 341 OFFCURVE",
"378 346 CURVE SMOOTH",
"308 351 OFFCURVE",
"288.07 353.09 OFFCURVE",
"217.71 355.69 CURVE SMOOTH",
"207.28 356.07 OFFCURVE",
"197.04 356.67 OFFCURVE",
"186.94 357.23 CURVE",
"187.17 408.91 OFFCURVE",
"184.11 460.63 OFFCURVE",
"177.96 512.55 CURVE",
"212.98 496.29 OFFCURVE",
"249.54 484.43 OFFCURVE",
"289.41 483.08 CURVE SMOOTH",
"362.48 480.61 OFFCURVE",
"433.88 509.74 OFFCURVE",
"476.64 570.11 CURVE SMOOTH",
"519.16 630.15 OFFCURVE",
"407 610.74 OFFCURVE",
"380.86 584.51 CURVE SMOOTH"
);
}
);
width = 454;
}
);
unicode = 0066;
},
{
glyphname = g;
layers = (
{
layerId = "4E44DDC3-06E7-48B7-B703-88785A848E58";
paths = (
{
closed = 1;
nodes = (
"183.33 124.16 OFFCURVE",
"169.64 106.94 OFFCURVE",
"155.05 90.4 CURVE SMOOTH",
"148.3 82.52 OFFCURVE",
"141.05 75.1 OFFCURVE",
"133.8 67.67 CURVE",
"119.49 153.88 OFFCURVE",
"155.99 262.71 OFFCURVE",
"182.5 343.13 CURVE SMOOTH",
"197.86 389.7 OFFCURVE",
"215.93 435.47 OFFCURVE",
"236.66 479.92 CURVE SMOOTH",
"245.84 499.61 OFFCURVE",
"255.04 519.33 OFFCURVE",
"266.71 537.69 CURVE SMOOTH",
"285.03 566.51 OFFCURVE",
"299 592.79 OFFCURVE",
"311.16 546.71 CURVE SMOOTH",
"314.86 532.7 OFFCURVE",
"329.63 527.82 OFFCURVE",
"346.9 529.01 CURVE",
"368.9 466.94 OFFCURVE",
"285.02 293.46 OFFCURVE",
"267.18 257.77 CURVE SMOOTH",
"246.89 217.17 OFFCURVE",
"223.3 178.47 OFFCURVE",
"196.4 141.92 CURVE SMOOTH"
);
},
{
closed = 1;
nodes = (
"404.6 614.85 OFFCURVE",
"402.14 615.49 OFFCURVE",
"399.55 615.92 CURVE",
"369.92 654.83 OFFCURVE",
"312.15 657.16 OFFCURVE",
"265.26 636.2 CURVE SMOOTH",
"199.98 607.02 OFFCURVE",
"165.34 540.51 OFFCURVE",
"136.39 478.89 CURVE SMOOTH",
"96.66 394.33 OFFCURVE",
"66.82 305.29 OFFCURVE",
"46.53 214.12 CURVE SMOOTH",
"34.11 158.29 OFFCURVE",
"0 50.61 OFFCURVE",
"41.83 -1.08 CURVE SMOOTH",
"112.42 -88.33 OFFCURVE",
"224.03 34.56 OFFCURVE",
"289.37 124.93 CURVE",
"270.09 14.16 OFFCURVE",
"253.78 -97.12 OFFCURVE",
"240.17 -208.74 CURVE",
"222.5 -178.7 OFFCURVE",
"204.98 -148.58 OFFCURVE",
"188 -118.19 CURVE SMOOTH",
"163.76 -74.79 OFFCURVE",
"56.57 -121.65 OFFCURVE",
"79.32 -158.3 CURVE SMOOTH",
"126.14 -233.75 OFFCURVE",
"170.12 -311.12 OFFCURVE",
"215.09 -387.69 CURVE SMOOTH",
"239.22 -428.78 OFFCURVE",
"303 -388 OFFCURVE",
"322.78 -347.94 CURVE SMOOTH",
"333 -327 OFFCURVE",
"335 -316 OFFCURVE",
"336.25 -297.59 CURVE SMOOTH",
"353 -56 OFFCURVE",
"397.14 178.34 OFFCURVE",
"446.55 413.51 CURVE SMOOTH",
"469 521 OFFCURVE",
"477 586 OFFCURVE",
"406.88 613.93 CURVE SMOOTH"
);
}
);
width = 450;
},
{
layerId = "AF926F6A-8B43-44FC-95BD-7483A33A85BE";
paths = (
{
closed = 1;
nodes = (
"487 412 OFFCURVE",
"442 429 OFFCURVE",
"413 416 CURVE SMOOTH",
"329 378 OFFCURVE",
"247 329 OFFCURVE",
"171 277 CURVE SMOOTH",
"157 268 OFFCURVE",
"144 246 OFFCURVE",
"158 231 CURVE SMOOTH",
"172 216 OFFCURVE",
"206 221 OFFCURVE",
"223 228 CURVE SMOOTH",
"236 234 OFFCURVE",
"249 240 OFFCURVE",
"262 247 CURVE",
"246 198 OFFCURVE",
"216 129 OFFCURVE",
"185 134 CURVE SMOOTH",
"106 149 OFFCURVE",
"136 310 OFFCURVE",
"146 359 CURVE SMOOTH",
"153 393 OFFCURVE",
"164 426 OFFCURVE",
"180 457 CURVE SMOOTH",
"190 479 OFFCURVE",
"222 547 OFFCURVE",
"251 547 CURVE SMOOTH",
"308 547 OFFCURVE",
"232 438 OFFCURVE",
"214 423 CURVE SMOOTH",
"151 368 OFFCURVE",
"256 363 OFFCURVE",
"294 390 CURVE SMOOTH",
"362 441 OFFCURVE",
"455 608 OFFCURVE",
"314 627 CURVE SMOOTH",
"170 647 OFFCURVE",
"71 499 OFFCURVE",
"36 378 CURVE SMOOTH",
"5 269 OFFCURVE",
"-20 74 OFFCURVE",
"134 47 CURVE SMOOTH",
"252 26 OFFCURVE",
"332 131 OFFCURVE",
"371 232 CURVE",
"371 178 OFFCURVE",
"367 124 OFFCURVE",
"361 69 CURVE SMOOTH",
"355 18 OFFCURVE",
"474 48 OFFCURVE",
"480 93 CURVE SMOOTH",
"493 190 OFFCURVE",
"493 287 OFFCURVE",
"483 384 CURVE SMOOTH",
"483 385 OFFCURVE",
"483 386 OFFCURVE",
"482 387 CURVE"
);
}
);
width = 498;
}
);
unicode = 0067;
},
{
glyphname = h;
layers = (
{
layerId = "4E44DDC3-06E7-48B7-B703-88785A848E58";
paths = (
{
closed = 1;
nodes = (
"437.94 652.19 OFFCURVE",
"437.93 652.21 OFFCURVE",
"437.9 652.23 CURVE SMOOTH",
"416.25 667.04 OFFCURVE",
"380.78 650.36 OFFCURVE",
"363.07 637.56 CURVE SMOOTH",
"306.08 596.38 OFFCURVE",
"250.08 548.82 OFFCURVE",
"197.91 497.4 CURVE",
"219.26 618 OFFCURVE",
"240.52 738.61 OFFCURVE",
"261.63 859.24 CURVE SMOOTH",
"269.22 902.58 OFFCURVE",
"164 877.74 OFFCURVE",
"156.66 837.93 CURVE SMOOTH",
"126.59 674.98 OFFCURVE",
"96.8 511.97 OFFCURVE",
"67.19 348.93 CURVE",
"63.22 343.7 OFFCURVE",
"59.03 338.54 OFFCURVE",
"55.18 333.29 CURVE SMOOTH",
"40.85 313.77 OFFCURVE",
"45.38 303.09 OFFCURVE",
"58.1 298.65 CURVE",
"41.53 207.24 OFFCURVE",
"24.92 115.84 OFFCURVE",
"8.52 24.41 CURVE SMOOTH",
"0.01 -23.04 OFFCURVE",
"109.32 1.3 OFFCURVE",
"117.22 45.17 CURVE SMOOTH",
"135.49 146.55 OFFCURVE",
"153.53 247.97 OFFCURVE",
"171.58 349.39 CURVE",
"224.99 407.23 OFFCURVE",
"278.81 462.18 OFFCURVE",
"335.77 514.9 CURVE",
"318.86 359.7 OFFCURVE",
"300.11 204.72 OFFCURVE",
"265.3 52.25 CURVE SMOOTH",
"255.2 8.01 OFFCURVE",
"362.87 27.02 OFFCURVE",
"371.09 72.1 CURVE SMOOTH",
"404.87 257.35 OFFCURVE",
"433.45 443.31 OFFCURVE",
"452.59 630.69 CURVE SMOOTH",
"453.77 642.2 OFFCURVE",
"447.7 649.02 OFFCURVE",
"437.98 652.18 CURVE"
);
}
);
width = 495;
},
{
layerId = "AF926F6A-8B43-44FC-95BD-7483A33A85BE";
paths = (
{
closed = 1;
nodes = (
"252 481 OFFCURVE",
"249 388 OFFCURVE",
"247 295 CURVE",
"237 294 OFFCURVE",
"228 292 OFFCURVE",
"218 291 CURVE SMOOTH",
"207 290 OFFCURVE",
"187 296 OFFCURVE",
"176 293 CURVE",
"177 347 OFFCURVE",
"177 401 OFFCURVE",
"174 455 CURVE SMOOTH",
"173 493 OFFCURVE",
"183 568 OFFCURVE",
"149 597 CURVE SMOOTH",
"118 624 OFFCURVE",
"74 606 OFFCURVE",
"45 590 CURVE SMOOTH",
"13 573 OFFCURVE",
"2 526 OFFCURVE",
"50 529 CURVE",
"70 490 OFFCURVE",
"57 299 OFFCURVE",
"57 273 CURVE SMOOTH",
"54 188 OFFCURVE",
"47 104 OFFCURVE",
"38 21 CURVE SMOOTH",
"32 -31 OFFCURVE",
"155 -3 OFFCURVE",
"160 46 CURVE SMOOTH",
"167 102 OFFCURVE",
"171 159 OFFCURVE",
"174 216 CURVE",
"193 221 OFFCURVE",
"224 214 OFFCURVE",
"244 217 CURVE",
"243 162 OFFCURVE",
"241 108 OFFCURVE",
"240 53 CURVE SMOOTH",
"239 -2 OFFCURVE",
"359 27 OFFCURVE",
"361 77 CURVE SMOOTH",
"365 250 OFFCURVE",
"366 424 OFFCURVE",
"370 598 CURVE SMOOTH",
"372 649 OFFCURVE",
"254 620 OFFCURVE",
"254 574 CURVE SMOOTH"
);
}
);
width = 401;
}
);
unicode = 0068;
},
{
glyphname = i;
layers = (
{
layerId = "4E44DDC3-06E7-48B7-B703-88785A848E58";
paths = (
{
closed = 1;
nodes = (
"208.27 811.67 OFFCURVE",
"217.14 802.21 OFFCURVE",
"214.91 793.87 CURVE SMOOTH",
"209.55 773.83 OFFCURVE",
"205.23 752.99 OFFCURVE",
"197.89 733.58 CURVE SMOOTH",
"190.09 712.95 OFFCURVE",
"159.35 701.84 OFFCURVE",
"139.74 699.36 CURVE SMOOTH",
"130.3 698.17 OFFCURVE",
"120.72 698.26 OFFCURVE",
"111.74 701.78 CURVE SMOOTH",
"104.92 704.46 OFFCURVE",
"96.97 712.81 OFFCURVE",
"98.91 721.06 CURVE SMOOTH",
"103.8 741.86 OFFCURVE",
"109.96 762.36 OFFCURVE",
"115.88 782.88 CURVE SMOOTH",
"118.98 793.6 OFFCURVE",
"131.56 801.77 OFFCURVE",
"140.59 807.25 CURVE SMOOTH",
"150.34 813.16 OFFCURVE",
"162.2 816.46 OFFCURVE",
"173.45 817.71 CURVE SMOOTH",
"183.02 818.77 OFFCURVE",
"192.62 818.37 OFFCURVE",
"201.6 814.52 CURVE SMOOTH"
);
},
{
closed = 1;
nodes = (
"202.65 673.15 OFFCURVE",
"99.55 648.64 OFFCURVE",
"93.48 609.32 CURVE SMOOTH",
"65.18 426.26 OFFCURVE",
"38.35 242.86 OFFCURVE",
"7.77 60.17 CURVE SMOOTH",
"-0.01 13.7 OFFCURVE",
"107.35 35.22 OFFCURVE",
"113.31 79.95 CURVE SMOOTH",
"137.83 263.75 OFFCURVE",
"168.62 446.79 OFFCURVE",
"196.19 630.15 CURVE SMOOTH"
);
}
);
width = 187;
},
{
layerId = "AF926F6A-8B43-44FC-95BD-7483A33A85BE";
paths = (
{
closed = 1;
nodes = (
"56 392 OFFCURVE",
"46 211 OFFCURVE",
"36 31 CURVE SMOOTH",
"33 -24 OFFCURVE",
"154 8 OFFCURVE",
"157 54 CURVE SMOOTH",
"167 235 OFFCURVE",
"176 416 OFFCURVE",
"186 597 CURVE SMOOTH",
"188 649 OFFCURVE",
"69 617 OFFCURVE",
"66 573 CURVE SMOOTH"
);
},
{
closed = 1;
nodes = (
"68 729 OFFCURVE",
"72 754 OFFCURVE",
"76 779 CURVE SMOOTH",
"81 822 OFFCURVE",
"202 852 OFFCURVE",
"194 803 CURVE SMOOTH",
"191 778 OFFCURVE",
"187 753 OFFCURVE",
"183 728 CURVE SMOOTH",
"177 682 OFFCURVE",
"57 653 OFFCURVE",
"64 705 CURVE SMOOTH"
);
}
);
width = 201;
}
);
unicode = 0069;
},
{
glyphname = idotless;
layers = (
{
layerId = "4E44DDC3-06E7-48B7-B703-88785A848E58";
paths = (
{
closed = 1;
nodes = (
"203 673 OFFCURVE",
"100 649 OFFCURVE",
"93 609 CURVE SMOOTH",
"65 426 OFFCURVE",
"38 243 OFFCURVE",
"8 60 CURVE SMOOTH",
"0 14 OFFCURVE",
"107 35 OFFCURVE",
"113 80 CURVE SMOOTH",
"138 264 OFFCURVE",
"169 447 OFFCURVE",
"196 630 CURVE SMOOTH"
);
}
);
width = 187;
},
{
layerId = "AF926F6A-8B43-44FC-95BD-7483A33A85BE";
paths = (
{
closed = 1;
nodes = (
"31 65 OFFCURVE",
"33 61 OFFCURVE",
"35 55 CURVE",
"61 5 OFFCURVE",
"172 50 OFFCURVE",
"165 102 CURVE",
"137 299 OFFCURVE",
"161 498 OFFCURVE",
"146 696 CURVE",
"144 730 OFFCURVE",
"18 698 OFFCURVE",
"20 650 CURVE",
"33 464 OFFCURVE",
"12 280 OFFCURVE",
"31 96 CURVE",
"27 87 OFFCURVE",
"25 78 OFFCURVE",
"29 70 CURVE"
);
}
);
width = 185;
}
);
unicode = 0131;
},
{
glyphname = ibreve;
layers = (
{
components = (
{
name = breve;
}
);
layerId = "AF926F6A-8B43-44FC-95BD-7483A33A85BE";
paths = (
{
closed = 1;
nodes = (
"343 216 OFFCURVE",
"336 386 OFFCURVE",
"336 459 CURVE SMOOTH",
"336 497 OFFCURVE",
"347 604 OFFCURVE",
"275 554 CURVE SMOOTH",
"249 536 OFFCURVE",
"232 504 OFFCURVE",
"225 473 CURVE SMOOTH",
"218 442 OFFCURVE",
"226 423 OFFCURVE",
"229 395 CURVE SMOOTH",
"236 334 OFFCURVE",
"232 169 OFFCURVE",
"232 91 CURVE SMOOTH",
"232 57 OFFCURVE",
"227 -6 OFFCURVE",
"279 10 CURVE SMOOTH",
"325 24 OFFCURVE",
"359 104 OFFCURVE",
"353 147 CURVE SMOOTH"
);
}
);
width = 600;
},
{
components = (
{
name = idotless;
},
{
name = breve;
transform = "{1, 0, 0, 1, -143, 133}";
}
);
layerId = "4E44DDC3-06E7-48B7-B703-88785A848E58";
width = 329;
}
);
unicode = 012D;
},
{
glyphname = imacron;
layers = (
{
components = (
{
name = macron;
transform = "{1, 0, 0, 1, -79, 29}";
}
);
layerId = "AF926F6A-8B43-44FC-95BD-7483A33A85BE";
paths = (
{
closed = 1;
nodes = (
"271 216 OFFCURVE",
"264 386 OFFCURVE",
"264 459 CURVE SMOOTH",
"264 497 OFFCURVE",
"275 604 OFFCURVE",
"203 554 CURVE SMOOTH",
"177 536 OFFCURVE",
"160 504 OFFCURVE",
"153 473 CURVE SMOOTH",
"146 442 OFFCURVE",
"154 423 OFFCURVE",
"157 395 CURVE SMOOTH",
"164 334 OFFCURVE",
"160 169 OFFCURVE",
"160 91 CURVE SMOOTH",
"160 57 OFFCURVE",
"155 -6 OFFCURVE",
"207 10 CURVE SMOOTH",
"253 24 OFFCURVE",
"287 104 OFFCURVE",
"281 147 CURVE SMOOTH"
);
}
);
width = 451;
},
{
components = (
{
name = idotless;
},
{
name = macron;
transform = "{0.9848, 0.1736, -0.1736, 0.9848, -7, 142}";
}
);
layerId = "4E44DDC3-06E7-48B7-B703-88785A848E58";
width = 187;
}
);
unicode = 012B;
},
{
glyphname = itilde;
layers = (
{
components = (
{
name = tilde;
transform = "{1, 0, 0, 1, -169, 0}";
}
);
layerId = "AF926F6A-8B43-44FC-95BD-7483A33A85BE";
paths = (
{
closed = 1;
nodes = (
"202 216 OFFCURVE",
"195 386 OFFCURVE",
"195 459 CURVE SMOOTH",
"195 497 OFFCURVE",
"206 604 OFFCURVE",
"134 554 CURVE SMOOTH",
"108 536 OFFCURVE",
"91 504 OFFCURVE",
"84 473 CURVE SMOOTH",
"77 442 OFFCURVE",
"85 423 OFFCURVE",
"88 395 CURVE SMOOTH",
"95 334 OFFCURVE",
"91 169 OFFCURVE",
"91 91 CURVE SMOOTH",
"91 57 OFFCURVE",
"86 -6 OFFCURVE",
"138 10 CURVE SMOOTH",
"184 24 OFFCURVE",
"218 104 OFFCURVE",
"212 147 CURVE SMOOTH"
);
}
);
width = 308;
},
{
components = (
{
name = idotless;
},
{
name = tildecomb;
transform = "{1, 0, 0, 1, -180, 168}";
}
);
layerId = "4E44DDC3-06E7-48B7-B703-88785A848E58";
width = 362;
}
);
unicode = 0129;
},
{
glyphname = j;
layers = (
{
layerId = "4E44DDC3-06E7-48B7-B703-88785A848E58";
paths = (
{
closed = 1;
nodes = (
"106.15 411.49 OFFCURVE",
"85.48 214.73 OFFCURVE",
"48.98 20 CURVE SMOOTH",
"30.67 -77.67 OFFCURVE",
"12.34 -178.29 OFFCURVE",
"-18.53 -272.85 CURVE SMOOTH",
"-26.97 -298.7 OFFCURVE",
"-40.55 -360.78 OFFCURVE",
"-76.67 -342.4 CURVE SMOOTH",
"-116.4 -322.18 OFFCURVE",
"-123 -228.16 OFFCURVE",
"-127.32 -192.74 CURVE SMOOTH",
"-133.94 -138.42 OFFCURVE",
"-242.85 -173.21 OFFCURVE",
"-235.47 -223.1 CURVE SMOOTH",
"-221.88 -314.92 OFFCURVE",
"-191.71 -443.46 OFFCURVE",
"-71.26 -428.87 CURVE SMOOTH",
"29.19 -416.7 OFFCURVE",
"72.39 -321.91 OFFCURVE",
"95.67 -235.25 CURVE SMOOTH",
"171.25 46.16 OFFCURVE",
"212.26 339.02 OFFCURVE",
"220.24 630.13 CURVE SMOOTH",
"221.56 678.2 OFFCURVE",
"116.61 650.64 OFFCURVE",
"114.8 609.33 CURVE SMOOTH"
);
},
{
closed = 1;
nodes = (
"91.72 732.7 OFFCURVE",
"88.71 745.82 OFFCURVE",
"85.7 758.94 CURVE SMOOTH",
"80.31 782.44 OFFCURVE",
"107.21 798.32 OFFCURVE",
"125.45 805.58 CURVE SMOOTH",
"136.67 810.05 OFFCURVE",
"151.87 812.53 OFFCURVE",
"163.94 810.42 CURVE SMOOTH",
"171.09 809.18 OFFCURVE",
"184.02 804.68 OFFCURVE",
"185.97 795.94 CURVE SMOOTH",
"188.9 782.79 OFFCURVE",
"191.83 769.64 OFFCURVE",
"194.77 756.49 CURVE SMOOTH",
"200.04 732.83 OFFCURVE",
"173.85 716.94 OFFCURVE",
"155.27 709.54 CURVE SMOOTH",
"144.07 705.08 OFFCURVE",
"128.87 702.66 OFFCURVE",
"116.83 704.83 CURVE SMOOTH",
"109.54 706.15 OFFCURVE",
"96.77 710.77 OFFCURVE",
"94.75 719.57 CURVE SMOOTH"
);
}
);
width = 251;
},
{
layerId = "AF926F6A-8B43-44FC-95BD-7483A33A85BE";
paths = (
{
closed = 1;
nodes = (
"175.06 675.06 OFFCURVE",
"58.92 635.91 OFFCURVE",
"69.98 586.71 CURVE SMOOTH",
"125.09 341.62 OFFCURVE",
"108 45 OFFCURVE",
"30 -191 CURVE",
"-9 -162 OFFCURVE",
"-43 -128 OFFCURVE",
"-72 -85 CURVE SMOOTH",
"-97 -48 OFFCURVE",
"-214 -101 OFFCURVE",
"-181 -146 CURVE SMOOTH",
"-135 -209 OFFCURVE",
"-74 -273 OFFCURVE",
"2 -301 CURVE",
"22 -323 OFFCURVE",
"104 -300 OFFCURVE",
"118 -269 CURVE SMOOTH",
"236 -7 OFFCURVE",
"249.8 353.14 OFFCURVE",
"185.66 629.4 CURVE SMOOTH"
);
},
{
closed = 1;
nodes = (
"21.19 801.57 OFFCURVE",
"54.87 819.66 OFFCURVE",
"74.07 827.27 CURVE SMOOTH",
"86.89 832.35 OFFCURVE",
"104.12 835.42 OFFCURVE",
"117.96 833.35 CURVE SMOOTH",
"125.71 832.19 OFFCURVE",
"140.56 827.74 OFFCURVE",
"142.71 818.07 CURVE SMOOTH",
"148.03 794.15 OFFCURVE",
"153.68 770.3 OFFCURVE",
"159.53 746.5 CURVE SMOOTH",
"166.17 719.51 OFFCURVE",
"135.09 700.87 OFFCURVE",
"114.2 692.54 CURVE SMOOTH",
"101.33 687.42 OFFCURVE",
"83.88 684.65 OFFCURVE",
"70.06 687.15 CURVE SMOOTH",
"61.63 688.68 OFFCURVE",
"47.06 694 OFFCURVE",
"44.69 704.11 CURVE SMOOTH",
"39.09 727.97 OFFCURVE",
"34 751.94 OFFCURVE",
"27.87 775.68 CURVE SMOOTH"
);
}
);
width = 269;
}
);
unicode = 006A;
},
{
glyphname = uni0237;
layers = (
{
layerId = "AF926F6A-8B43-44FC-95BD-7483A33A85BE";
paths = (
{
closed = 1;
nodes = (
"255 675 OFFCURVE",
"139 636 OFFCURVE",
"150 587 CURVE SMOOTH",
"205 342 OFFCURVE",
"188 92 OFFCURVE",
"110 -144 CURVE",
"71 -115 OFFCURVE",
"37 -81 OFFCURVE",
"8 -38 CURVE SMOOTH",
"-17 -1 OFFCURVE",
"-134 -54 OFFCURVE",
"-101 -99 CURVE SMOOTH",
"-54 -162 OFFCURVE",
"6 -226 OFFCURVE",
"82 -254 CURVE",
"102 -276 OFFCURVE",
"184 -253 OFFCURVE",
"198 -222 CURVE SMOOTH",
"320 38 OFFCURVE",
"330 353 OFFCURVE",
"266 629 CURVE SMOOTH"
);
}
);
width = 349;
},
{
layerId = "4E44DDC3-06E7-48B7-B703-88785A848E58";
paths = (
{
closed = 1;
nodes = (
"106 411 OFFCURVE",
"85 215 OFFCURVE",
"49 20 CURVE SMOOTH",
"31 -78 OFFCURVE",
"12 -178 OFFCURVE",
"-19 -273 CURVE SMOOTH",
"-27 -299 OFFCURVE",
"-41 -361 OFFCURVE",
"-77 -342 CURVE SMOOTH",
"-116 -322 OFFCURVE",
"-123 -228 OFFCURVE",
"-127 -193 CURVE SMOOTH",
"-134 -138 OFFCURVE",
"-243 -173 OFFCURVE",
"-235 -223 CURVE SMOOTH",
"-222 -315 OFFCURVE",
"-192 -443 OFFCURVE",
"-71 -429 CURVE SMOOTH",
"29 -417 OFFCURVE",
"72 -322 OFFCURVE",
"96 -235 CURVE SMOOTH",
"171 46 OFFCURVE",
"212 339 OFFCURVE",
"220 630 CURVE SMOOTH",
"222 678 OFFCURVE",
"117 651 OFFCURVE",
"115 609 CURVE SMOOTH"
);
}
);
width = 251;
}
);
unicode = 0237;
},
{
glyphname = jcircumflex;
layers = (
{
components = (
{
name = circumflex;
transform = "{1, 0, 0, 1, -161, 150}";
}
);
layerId = "AF926F6A-8B43-44FC-95BD-7483A33A85BE";
paths = (
{
closed = 1;
nodes = (
"175 675 OFFCURVE",
"59 636 OFFCURVE",
"70 587 CURVE SMOOTH",
"125 342 OFFCURVE",
"108 92 OFFCURVE",
"30 -144 CURVE",
"-9 -115 OFFCURVE",
"-43 -81 OFFCURVE",
"-72 -38 CURVE SMOOTH",
"-97 -1 OFFCURVE",
"-214 -54 OFFCURVE",
"-181 -99 CURVE SMOOTH",
"-134 -162 OFFCURVE",
"-74 -226 OFFCURVE",
"2 -254 CURVE",
"22 -276 OFFCURVE",
"104 -253 OFFCURVE",
"118 -222 CURVE SMOOTH",
"240 38 OFFCURVE",
"250 353 OFFCURVE",
"186 629 CURVE SMOOTH"
);
}
);
width = 269;
},
{
components = (
{
name = uni0237;
},
{
name = circumflex;
transform = "{1, 0, 0, 1, -111, 160}";
}
);
layerId = "4E44DDC3-06E7-48B7-B703-88785A848E58";
width = 251;
}
);
unicode = 0135;
},
{
glyphname = k;
layers = (
{
layerId = "4E44DDC3-06E7-48B7-B703-88785A848E58";
paths = (
{
closed = 1;
nodes = (
"400.07 505.68 OFFCURVE",
"341.14 493.85 OFFCURVE",
"294.94 481.42 CURVE",
"349.46 530.01 OFFCURVE",
"404.09 578.48 OFFCURVE",
"458.16 627.65 CURVE SMOOTH",
"509.59 674.42 OFFCURVE",
"423.52 682.17 OFFCURVE",
"391.2 656.74 CURVE SMOOTH",
"314.44 596.33 OFFCURVE",
"240.42 531.87 OFFCURVE",
"167.82 465.97 CURVE",
"177.22 597.1 OFFCURVE",
"187.11 728.19 OFFCURVE",
"198.41 859.11 CURVE SMOOTH",
"202.37 904.92 OFFCURVE",
"96 879.46 OFFCURVE",
"93.33 838.08 CURVE SMOOTH",
"83.16 680.24 OFFCURVE",
"70.85 522.49 OFFCURVE",
"58.13 364.78 CURVE",
"49.82 357.03 OFFCURVE",
"41.51 349.28 OFFCURVE",
"33.22 341.53 CURVE SMOOTH",
"-0.01 310.45 OFFCURVE",
"22.47 294.68 OFFCURVE",
"52.4 293.65 CURVE",
"46.64 222.83 OFFCURVE",
"40.85 152.03 OFFCURVE",
"35.15 81.23 CURVE SMOOTH",
"31.21 32.36 OFFCURVE",
"139.23 58.03 OFFCURVE",
"142.3 101.78 CURVE SMOOTH",
"148.25 186.46 OFFCURVE",
"154.12 271.18 OFFCURVE",
"160.05 355.89 CURVE",
"196.04 375.83 OFFCURVE",
"232.29 394.58 OFFCURVE",
"272.02 407.03 CURVE SMOOTH",
"297.21 414.92 OFFCURVE",
"349.31 434.08 OFFCURVE",
"369.59 402.43 CURVE SMOOTH",
"380.85 384.85 OFFCURVE",
"368.67 338.83 OFFCURVE",
"364.5 322.39 CURVE SMOOTH",
"341.6 232.1 OFFCURVE",
"314.8 144.03 OFFCURVE",
"296.5 52.48 CURVE SMOOTH",
"287.56 7.76 OFFCURVE",
"392.53 28.88 OFFCURVE",
"400.23 72.02 CURVE SMOOTH",
"415.44 157.27 OFFCURVE",
"439.02 239.49 OFFCURVE",
"462 322.82 CURVE SMOOTH",
"475.95 373.41 OFFCURVE",
"491.26 441.67 OFFCURVE",
"440.46 477.34 CURVE SMOOTH"
);
}
);
width = 520;
},
{
layerId = "AF926F6A-8B43-44FC-95BD-7483A33A85BE";
paths = (
{
closed = 1;
nodes = (
"433.06 326.69 OFFCURVE",
"431.45 375.01 OFFCURVE",
"403.49 410.69 CURVE SMOOTH",
"362.68 462.77 OFFCURVE",
"296.41 464.52 OFFCURVE",
"235.25 452.36 CURVE",
"302.27 503.68 OFFCURVE",
"365.03 561.05 OFFCURVE",
"413.4 628.69 CURVE SMOOTH",
"428.23 649.43 OFFCURVE",
"399.95 659.44 OFFCURVE",
"385.18 660.61 CURVE SMOOTH",
"358.81 662.7 OFFCURVE",
"330.82 648.84 OFFCURVE",
"312.27 631.14 CURVE SMOOTH",
"278.51 598.9 OFFCURVE",
"247.17 565.24 OFFCURVE",
"212.03 534.64 CURVE",
"216.02 619.86 OFFCURVE",
"215.27 705.71 OFFCURVE",
"209.61 792.65 CURVE SMOOTH",
"206.14 845.91 OFFCURVE",
"87.54 811.69 OFFCURVE",
"89.85 767.89 CURVE SMOOTH",
"95.75 656.32 OFFCURVE",
"94.06 546.62 OFFCURVE",
"84.58 437.86 CURVE",
"71.54 428.53 OFFCURVE",
"58.51 419.19 OFFCURVE",
"45.57 409.73 CURVE SMOOTH",
"2.37 378.14 OFFCURVE",
"38.4 354.58 OFFCURVE",
"75.92 355.37 CURVE",
"62.74 249.41 OFFCURVE",
"41.98 144.13 OFFCURVE",
"13.31 38.66 CURVE SMOOTH",
"-0.01 -10.33 OFFCURVE",
"126.6 15.28 OFFCURVE",
"139.37 63.79 CURVE SMOOTH",
"166.35 166.23 OFFCURVE",
"185.94 268.48 OFFCURVE",
"198.38 371.28 CURVE",
"223.54 376.7 OFFCURVE",
"253.34 382.85 OFFCURVE",
"275.34 371.55 CURVE SMOOTH",
"305.66 355.98 OFFCURVE",
"312.62 316.26 OFFCURVE",
"317.8 286.17 CURVE SMOOTH",
"330.94 209.9 OFFCURVE",
"339.29 132.56 OFFCURVE",
"349.34 55.83 CURVE SMOOTH",
"357.24 -4.49 OFFCURVE",
"474.93 33.11 OFFCURVE",
"466.69 88.49 CURVE SMOOTH",
"457.03 153.47 OFFCURVE",
"447.84 218.52 OFFCURVE",
"438.94 283.61 CURVE SMOOTH"
);
}
);
width = 480;
}
);
unicode = 006B;
},
{
glyphname = kgreenlandic;
layers = (
{
layerId = "AF926F6A-8B43-44FC-95BD-7483A33A85BE";
paths = (
{
closed = 1;
nodes = (
"408 209 OFFCURVE",
"406 240 OFFCURVE",
"382 263 CURVE SMOOTH",
"347 296 OFFCURVE",
"289 297 OFFCURVE",
"235 289 CURVE",
"294 322 OFFCURVE",
"350 358 OFFCURVE",
"391 403 CURVE SMOOTH",
"403 416 OFFCURVE",
"379 422 OFFCURVE",
"366 423 CURVE SMOOTH",
"344 425 OFFCURVE",
"319 415 OFFCURVE",
"303 404 CURVE SMOOTH",
"273 384 OFFCURVE",
"246 362 OFFCURVE",
"215 342 CURVE",
"219 397 OFFCURVE",
"217 452 OFFCURVE",
"214 508 CURVE SMOOTH",
"212 542 OFFCURVE",
"107 520 OFFCURVE",
"109 492 CURVE SMOOTH",
"114 420 OFFCURVE",
"112 350 OFFCURVE",
"105 280 CURVE",
"93 274 OFFCURVE",
"82 268 OFFCURVE",
"71 262 CURVE SMOOTH",
"33 241 OFFCURVE",
"64 227 OFFCURVE",
"97 227 CURVE",
"85 159 OFFCURVE",
"68 91 OFFCURVE",
"42 24 CURVE SMOOTH",
"30 -7 OFFCURVE",
"141 9 OFFCURVE",
"152 40 CURVE SMOOTH",
"175 105 OFFCURVE",
"193 171 OFFCURVE",
"203 237 CURVE",
"226 241 OFFCURVE",
"251 245 OFFCURVE",
"270 238 CURVE SMOOTH",
"297 228 OFFCURVE",
"303 202 OFFCURVE",
"308 183 CURVE SMOOTH",
"321 134 OFFCURVE",
"326 84 OFFCURVE",
"335 35 CURVE SMOOTH",
"342 -4 OFFCURVE",
"445 20 OFFCURVE",
"438 55 CURVE SMOOTH",
"430 97 OFFCURVE",
"420 140 OFFCURVE",
"413 181 CURVE SMOOTH"
);
}
);
width = 480;
},
{
layerId = "4E44DDC3-06E7-48B7-B703-88785A848E58";
paths = (
{
closed = 1;
nodes = (
"518 -7 OFFCURVE",
"552 4 OFFCURVE",
"571 19 CURVE",
"581 27 OFFCURVE",
"592 38 OFFCURVE",
"591 52 CURVE",
"589 68 OFFCURVE",
"574 73 OFFCURVE",
"561 80 CURVE",
"502 113 OFFCURVE",
"441 145 OFFCURVE",
"381 178 CURVE",
"347 197 OFFCURVE",
"313 215 OFFCURVE",
"279 234 CURVE",
"366 284 OFFCURVE",
"444 356 OFFCURVE",
"495 443 CURVE",
"501 453 OFFCURVE",
"510 465 OFFCURVE",
"511 476 CURVE",
"511 487 OFFCURVE",
"503 494 OFFCURVE",
"493 496 CURVE",
"473 501 OFFCURVE",
"450 495 OFFCURVE",
"433 486 CURVE",
"410 474 OFFCURVE",
"400 453 OFFCURVE",
"387 433 CURVE",
"371 410 OFFCURVE",
"355 390 OFFCURVE",
"336 370 CURVE",
"296 327 OFFCURVE",
"246 289 OFFCURVE",
"192 266 CURVE",
"192 344 OFFCURVE",
"192 423 OFFCURVE",
"192 502 CURVE",
"192 517 OFFCURVE",
"192 529 OFFCURVE",
"176 535 CURVE",
"161 541 OFFCURVE",
"145 538 OFFCURVE",
"130 533 CURVE",
"115 528 OFFCURVE",
"101 520 OFFCURVE",
"90 508 CURVE",
"78 494 OFFCURVE",
"82 476 OFFCURVE",
"82 459 CURVE",
"81 379 OFFCURVE",
"81 299 OFFCURVE",
"81 219 CURVE",
"81 180 OFFCURVE",
"81 141 OFFCURVE",
"80 102 CURVE",
"80 83 OFFCURVE",
"80 63 OFFCURVE",
"80 44 CURVE",
"80 28 OFFCURVE",
"80 14 OFFCURVE",
"97 8 CURVE",
"126 -4 OFFCURVE",
"172 14 OFFCURVE",
"188 41 CURVE",
"192 49 OFFCURVE",
"191 59 OFFCURVE",
"191 68 CURVE",
"192 79 OFFCURVE",
"192 90 OFFCURVE",
"192 101 CURVE",
"192 124 OFFCURVE",
"192 147 OFFCURVE",
"192 170 CURVE",
"243 142 OFFCURVE",
"294 114 OFFCURVE",
"345 86 CURVE",
"395 59 OFFCURVE",
"444 30 OFFCURVE",
"495 5 CURVE"
);
}
);
width = 600;
}
);
unicode = 0138;
},
{
glyphname = l;
layers = (
{
layerId = "4E44DDC3-06E7-48B7-B703-88785A848E58";
paths = (
{
closed = 1;
nodes = (
"77 577 OFFCURVE",
"48 316 OFFCURVE",
"16 55 CURVE SMOOTH",
"10 6 OFFCURVE",
"119 32 OFFCURVE",
"124 76 CURVE SMOOTH",
"154 337 OFFCURVE",
"186 598 OFFCURVE",
"214 859 CURVE SMOOTH",
"219 906 OFFCURVE",
"114 879 OFFCURVE",
"109 838 CURVE SMOOTH"
);
}
);
width = 202;
},
{
layerId = "AF926F6A-8B43-44FC-95BD-7483A33A85BE";
paths = (
{
closed = 1;
nodes = (
"101 591 OFFCURVE",
"66 293 OFFCURVE",
"42 56 CURVE SMOOTH",
"37 0 OFFCURVE",
"162 33 OFFCURVE",
"167 81 CURVE SMOOTH",
"192 318 OFFCURVE",
"231 617 OFFCURVE",
"251 854 CURVE SMOOTH",
"255 902 OFFCURVE",
"136 868 OFFCURVE",
"131 828 CURVE SMOOTH"
);
}
);
width = 239;
}
);
unicode = 006C;
},
{
glyphname = lslash;
layers = (
{
components = (
{
alignment = -1;
name = l;
transform = "{1, 0, 0, 1, 70, 0}";
},
{
name = slash;
transform = "{0.5302, -0.4143, 0.4143, 0.5302, -42, 349}";
}
);
layerId = "AF926F6A-8B43-44FC-95BD-7483A33A85BE";
width = 429;
},
{
components = (
{
name = l;
transform = "{1, 0, 0, 1, 95, 0}";
}
);
layerId = "4E44DDC3-06E7-48B7-B703-88785A848E58";
paths = (
{
closed = 1;
nodes = (
"193 581 OFFCURVE",
"99 449 OFFCURVE",
"27 319 CURVE",
"-5 269 OFFCURVE",
"90 278 OFFCURVE",
"111 312 CURVE",
"176 413 OFFCURVE",
"267 559 OFFCURVE",
"378 671 CURVE",
"415 715 OFFCURVE",
"323 699 OFFCURVE",
"304 682 CURVE"
);
}
);
width = 407;
}
);
unicode = 0142;
},
{
glyphname = m;
layers = (
{
layerId = "4E44DDC3-06E7-48B7-B703-88785A848E58";
paths = (
{
closed = 1;
nodes = (
"627.08 700.87 OFFCURVE",
"541.11 677.6 OFFCURVE",
"525.77 652.33 CURVE SMOOTH",
"473.12 565.6 OFFCURVE",
"430.55 474.36 OFFCURVE",
"393.36 380.79 CURVE",
"390.01 457.59 OFFCURVE",
"385.48 534.32 OFFCURVE",
"378.96 610.76 CURVE SMOOTH",
"374.81 659.39 OFFCURVE",
"277.38 634.5 OFFCURVE",
"271.73 595.71 CURVE",
"254.33 570.16 OFFCURVE",
"238.07 543.84 OFFCURVE",
"222.51 517.06 CURVE",
"221.93 536.35 OFFCURVE",
"220.85 555.66 OFFCURVE",
"219.06 574.96 CURVE SMOOTH",
"214.79 620.91 OFFCURVE",
"111.14 589.97 OFFCURVE",
"114.11 552.85 CURVE SMOOTH",
"120.84 468.63 OFFCURVE",
"116.18 387.43 OFFCURVE",
"101.42 308.08 CURVE",
"99.98 305.89 OFFCURVE",
"98.65 303.64 OFFCURVE",
"97.2 301.46 CURVE SMOOTH",
"87.35 286.66 OFFCURVE",
"87.49 276.12 OFFCURVE",
"93.38 269.22 CURVE",
"77.48 199.85 OFFCURVE",
"53.9 131.78 OFFCURVE",
"23.35 64.23 CURVE SMOOTH",
"0 12.62 OFFCURVE",
"107.99 29.05 OFFCURVE",
"125.66 66.06 CURVE SMOOTH",
"163.16 144.64 OFFCURVE",
"190.42 227.5 OFFCURVE",
"206.41 312.4 CURVE",
"233.68 354.43 OFFCURVE",
"257.91 398.17 OFFCURVE",
"281.88 442.02 CURVE",
"284.52 393.05 OFFCURVE",
"286.66 344.06 OFFCURVE",
"289.27 295 CURVE SMOOTH",
"292.52 233.98 OFFCURVE",
"302.21 169.41 OFFCURVE",
"297.74 108 CURVE",
"293.12 92.47 OFFCURVE",
"298.77 82.93 OFFCURVE",
"309.43 78.11 CURVE",
"331.42 66.64 OFFCURVE",
"376.8 77.51 OFFCURVE",
"394.1 100.23 CURVE",
"396.89 103.59 OFFCURVE",
"399.21 107.12 OFFCURVE",
"400.45 110.95 CURVE SMOOTH",
"435.47 218.98 OFFCURVE",
"470.68 326.89 OFFCURVE",
"514.73 431 CURVE",
"517.66 309.85 OFFCURVE",
"528.75 189.08 OFFCURVE",
"545.21 68.54 CURVE SMOOTH",
"552.57 14.61 OFFCURVE",
"656.12 47.16 OFFCURVE",
"647.77 96.81 CURVE SMOOTH",
"616.94 280.21 OFFCURVE",
"614.75 466.44 OFFCURVE",
"624.5 651.74 CURVE SMOOTH"
);
}
);
width = 657;
},
{
layerId = "AF926F6A-8B43-44FC-95BD-7483A33A85BE";
paths = (
{
closed = 1;
nodes = (
"472.27 649.99 OFFCURVE",
"380.13 629.02 OFFCURVE",
"365.98 591.71 CURVE SMOOTH",
"340.34 524.1 OFFCURVE",
"312.86 457.8 OFFCURVE",
"283.56 392.24 CURVE",
"258.19 459.3 OFFCURVE",
"237.75 527.98 OFFCURVE",
"221.97 598.53 CURVE SMOOTH",
"218.55 613.81 OFFCURVE",
"201.26 618.79 OFFCURVE",
"180.71 616.76 CURVE",
"146.56 617.65 OFFCURVE",
"95.37 594.33 OFFCURVE",
"90.13 565.29 CURVE SMOOTH",
"59.18 393.79 OFFCURVE",
"32.58 221.2 OFFCURVE",
"7.22 48.8 CURVE SMOOTH",
"0.01 -0.21 OFFCURVE",
"124.87 31.33 OFFCURVE",
"132.29 75.78 CURVE SMOOTH",
"145.87 157.08 OFFCURVE",
"159.1 238.52 OFFCURVE",
"171.76 320.05 CURVE",
"183 291.08 OFFCURVE",
"194.97 262.34 OFFCURVE",
"207.8 233.86 CURVE SMOOTH",
"223.55 198.9 OFFCURVE",
"289.55 212.67 OFFCURVE",
"319.43 240.2 CURVE",
"326.08 244.93 OFFCURVE",
"331.35 250.18 OFFCURVE",
"334.36 255.81 CURVE SMOOTH",
"353.23 291.05 OFFCURVE",
"371.16 326.83 OFFCURVE",
"388.27 363.01 CURVE",
"398.7 267.46 OFFCURVE",
"408.87 171.87 OFFCURVE",
"418.02 76.19 CURVE SMOOTH",
"423.73 16.48 OFFCURVE",
"549.62 52.13 OFFCURVE",
"544.02 100.65 CURVE SMOOTH",
"524.69 268.24 OFFCURVE",
"504.67 435.78 OFFCURVE",
"487.74 603.63 CURVE SMOOTH",
"487.27 608.25 OFFCURVE",
"485.74 612 OFFCURVE",
"483.78 615.38 CURVE"
);
}
);
width = 555;
}
);
unicode = 006D;
},
{
glyphname = n;
layers = (
{
layerId = "4E44DDC3-06E7-48B7-B703-88785A848E58";
paths = (
{
closed = 1;
nodes = (
"354.68 688.33 OFFCURVE",
"275.11 609.49 OFFCURVE",
"228.47 562.08 CURVE SMOOTH",
"213.96 547.33 OFFCURVE",
"200 532.18 OFFCURVE",
"186.37 516.79 CURVE",
"190.98 545.28 OFFCURVE",
"195.51 573.78 OFFCURVE",
"200.16 602.26 CURVE SMOOTH",
"207.42 646.79 OFFCURVE",
"102.15 622.72 OFFCURVE",
"95.5 581.56 CURVE SMOOTH",
"82.51 501.12 OFFCURVE",
"69.33 420.71 OFFCURVE",
"56.08 340.31 CURVE",
"52.78 334.94 OFFCURVE",
"49.41 329.62 OFFCURVE",
"46.18 324.19 CURVE SMOOTH",
"39.85 313.55 OFFCURVE",
"42.71 305.3 OFFCURVE",
"49.34 299.35 CURVE",
"35.55 215.86 OFFCURVE",
"21.68 132.39 OFFCURVE",
"7.78 48.92 CURVE SMOOTH",
"0.01 2.25 OFFCURVE",
"108.06 25.98 OFFCURVE",
"114.93 69.5 CURVE SMOOTH",
"129.08 159.15 OFFCURVE",
"143.29 248.79 OFFCURVE",
"157.6 338.41 CURVE",
"191.11 391.86 OFFCURVE",
"228.23 442.91 OFFCURVE",
"269.91 490.34 CURVE SMOOTH",
"279.84 501.64 OFFCURVE",
"329.16 568.57 OFFCURVE",
"344.68 567.03 CURVE SMOOTH",
"376.34 563.89 OFFCURVE",
"355.63 489.22 OFFCURVE",
"353.74 474.97 CURVE SMOOTH",
"333.57 322.89 OFFCURVE",
"313.37 170.82 OFFCURVE",
"292.22 18.88 CURVE SMOOTH",
"288.63 -6.96 OFFCURVE",
"326.42 -12.36 OFFCURVE",
"343.34 -8.81 CURVE SMOOTH",
"383.63 -0.34 OFFCURVE",
"413.04 19.84 OFFCURVE",
"420.52 61.43 CURVE SMOOTH",
"422.95 74.94 OFFCURVE",
"415.82 82.7 OFFCURVE",
"404.44 86.09 CURVE",
"417.86 189.84 OFFCURVE",
"431.59 293.55 OFFCURVE",
"445.55 397.23 CURVE SMOOTH",
"453.85 458.9 OFFCURVE",
"502.52 604.92 OFFCURVE",
"428.8 646.52 CURVE SMOOTH"
);
}
);
width = 473;
},
{
layerId = "AF926F6A-8B43-44FC-95BD-7483A33A85BE";
paths = (
{
closed = 1;
nodes = (
"407.86 656.71 OFFCURVE",
"286.38 626.43 OFFCURVE",
"279.63 581.01 CURVE SMOOTH",
"270.17 517.3 OFFCURVE",
"263.47 453.52 OFFCURVE",
"259.25 389.64 CURVE",
"225.34 463.5 OFFCURVE",
"192.08 537.63 OFFCURVE",
"163.96 613.97 CURVE SMOOTH",
"147.81 657.82 OFFCURVE",
"37.36 619.67 OFFCURVE",
"41.82 575.87 CURVE",
"41.39 574.45 OFFCURVE",
"40.77 573.05 OFFCURVE",
"40.58 571.59 CURVE SMOOTH",
"18.32 400.79 OFFCURVE",
"6.19 228.94 OFFCURVE",
"1.53 56.79 CURVE SMOOTH",
"0 0.24 OFFCURVE",
"125.76 32.23 OFFCURVE",
"126.24 81.42 CURVE SMOOTH",
"127.1 170.17 OFFCURVE",
"130.44 259.01 OFFCURVE",
"136.38 347.68 CURVE",
"179.28 252.67 OFFCURVE",
"223.09 158.04 OFFCURVE",
"258.55 59.91 CURVE SMOOTH",
"264.91 42.3 OFFCURVE",
"285.03 36.9 OFFCURVE",
"307.36 39.44 CURVE",
"338.26 41.84 OFFCURVE",
"373.31 59.46 OFFCURVE",
"381.52 82.78 CURVE",
"381.8 83.39 OFFCURVE",
"382.02 84.01 OFFCURVE",
"382.26 84.63 CURVE",
"382.38 85.06 OFFCURVE",
"382.62 85.47 OFFCURVE",
"382.73 85.91 CURVE",
"384.82 91.97 OFFCURVE",
"385.08 98.31 OFFCURVE",
"382.93 104.72 CURVE",
"371.45 272.87 OFFCURVE",
"378.92 439 OFFCURVE",
"401.14 606.07 CURVE SMOOTH"
);
}
);
width = 413;
}
);
unicode = 006E;
},
{
glyphname = eng;
layers = (
{
components = (
{
name = n;
}
);
layerId = "AF926F6A-8B43-44FC-95BD-7483A33A85BE";
paths = (
{
closed = 1;
nodes = (
"347 343 OFFCURVE",
"231 158 OFFCURVE",
"239 121 CURVE",
"295 -11 OFFCURVE",
"296 -96 OFFCURVE",
"239 -274 CURVE",
"210 -252 OFFCURVE",
"184 -227 OFFCURVE",
"162 -195 CURVE SMOOTH",
"143 -167 OFFCURVE",
"55 -207 OFFCURVE",
"80 -241 CURVE SMOOTH",
"115 -288 OFFCURVE",
"161 -336 OFFCURVE",
"218 -357 CURVE",
"233 -373 OFFCURVE",
"295 -357 OFFCURVE",
"305 -333 CURVE SMOOTH",
"388 -134 OFFCURVE",
"412 70 OFFCURVE",
"355 308 CURVE SMOOTH"
);
}
);
width = 436;
},
{
layerId = "4E44DDC3-06E7-48B7-B703-88785A848E58";
paths = (
{
closed = 1;
nodes = (
"563 355 OFFCURVE",
"558 390 OFFCURVE",
"550 426 CURVE",
"547 442 OFFCURVE",
"543 460 OFFCURVE",
"539 476 CURVE",
"536 485 OFFCURVE",
"534 493 OFFCURVE",
"531 502 CURVE",
"529 509 OFFCURVE",
"528 517 OFFCURVE",
"525 524 CURVE",
"517 537 OFFCURVE",
"500 541 OFFCURVE",
"486 546 CURVE",
"469 553 OFFCURVE",
"452 557 OFFCURVE",
"434 558 CURVE",
"401 563 OFFCURVE",
"368 559 OFFCURVE",
"335 552 CURVE",
"299 544 OFFCURVE",
"265 529 OFFCURVE",
"234 506 CURVE",
"239 536 OFFCURVE",
"244 565 OFFCURVE",
"248 593 CURVE",
"250 604 OFFCURVE",
"256 616 OFFCURVE",
"246 625 CURVE",
"238 633 OFFCURVE",
"227 637 OFFCURVE",
"216 638 CURVE",
"193 642 OFFCURVE",
"163 639 OFFCURVE",
"145 622 CURVE",
"134 613 OFFCURVE",
"135 598 OFFCURVE",
"133 585 CURVE",
"130 570 OFFCURVE",
"129 556 OFFCURVE",
"126 542 CURVE",
"107 424 OFFCURVE",
"88 307 OFFCURVE",
"69 190 CURVE",
"64 161 OFFCURVE",
"60 133 OFFCURVE",
"55 104 CURVE",
"54 97 OFFCURVE",
"53 90 OFFCURVE",
"52 83 CURVE",
"51 77 OFFCURVE",
"48 71 OFFCURVE",
"50 66 CURVE",
"52 54 OFFCURVE",
"60 46 OFFCURVE",
"71 43 CURVE",
"91 34 OFFCURVE",
"119 35 OFFCURVE",
"140 45 CURVE",
"151 50 OFFCURVE",
"163 58 OFFCURVE",
"166 72 CURVE",
"167 86 OFFCURVE",
"170 100 OFFCURVE",
"172 115 CURVE",
"181 173 OFFCURVE",
"191 231 OFFCURVE",
"200 289 CURVE",
"205 318 OFFCURVE",
"210 348 OFFCURVE",
"214 378 CURVE",
"215 383 OFFCURVE",
"214 393 OFFCURVE",
"217 397 CURVE",
"219 399 OFFCURVE",
"222 399 OFFCURVE",
"226 399 CURVE",
"229 399 OFFCURVE",
"233 399 OFFCURVE",
"237 400 CURVE",
"248 401 OFFCURVE",
"261 406 OFFCURVE",
"271 412 CURVE",
"282 420 OFFCURVE",
"287 432 OFFCURVE",
"295 441 CURVE",
"304 452 OFFCURVE",
"313 461 OFFCURVE",
"325 468 CURVE",
"346 483 OFFCURVE",
"373 492 OFFCURVE",
"399 490 CURVE",
"404 490 OFFCURVE",
"413 489 OFFCURVE",
"418 487 CURVE",
"421 484 OFFCURVE",
"422 473 OFFCURVE",
"423 469 CURVE",
"427 456 OFFCURVE",
"430 442 OFFCURVE",
"433 429 CURVE",
"439 404 OFFCURVE",
"444 376 OFFCURVE",
"447 351 CURVE",
"463 241 OFFCURVE",
"462 130 OFFCURVE",
"442 21 CURVE",
"432 -36 OFFCURVE",
"416 -93 OFFCURVE",
"395 -148 CURVE",
"385 -173 OFFCURVE",
"372 -196 OFFCURVE",
"354 -218 CURVE",
"341 -233 OFFCURVE",
"317 -255 OFFCURVE",
"296 -241 CURVE",
"275 -228 OFFCURVE",
"250 -226 OFFCURVE",
"226 -232 CURVE",
"209 -237 OFFCURVE",
"179 -251 OFFCURVE",
"190 -274 CURVE",
"194 -284 OFFCURVE",
"208 -291 OFFCURVE",
"218 -296 CURVE",
"230 -301 OFFCURVE",
"242 -306 OFFCURVE",
"255 -309 CURVE",
"280 -315 OFFCURVE",
"307 -315 OFFCURVE",
"332 -310 CURVE",
"381 -302 OFFCURVE",
"424 -280 OFFCURVE",
"457 -243 CURVE",
"492 -203 OFFCURVE",
"512 -149 OFFCURVE",
"527 -98 CURVE",
"560 11 OFFCURVE",
"575 125 OFFCURVE",
"573 238 CURVE",
"572 266 OFFCURVE",
"571 293 OFFCURVE",
"567 320 CURVE"
);
}
);
width = 630;
}
);
unicode = 014B;
},
{
glyphname = o;
layers = (
{
layerId = "4E44DDC3-06E7-48B7-B703-88785A848E58";
paths = (
{
closed = 1;
nodes = (
"393 267 OFFCURVE",
"309 180 OFFCURVE",
"220 128 CURVE SMOOTH",
"75 44 OFFCURVE",
"128 302 OFFCURVE",
"150 361 CURVE SMOOTH",
"166 404 OFFCURVE",
"187 446 OFFCURVE",
"213 484 CURVE SMOOTH",
"221 495 OFFCURVE",
"249 531 OFFCURVE",
"275 553 CURVE",
"347 518 OFFCURVE",
"404 464 OFFCURVE",
"399 375 CURVE SMOOTH"
);
},
{
closed = 1;
nodes = (
"429 571 OFFCURVE",
"430 575 OFFCURVE",
"429 580 CURVE SMOOTH",
"421 654 OFFCURVE",
"346 664 OFFCURVE",
"286 642 CURVE SMOOTH",
"210 614 OFFCURVE",
"149 539 OFFCURVE",
"107 472 CURVE SMOOTH",
"49 379 OFFCURVE",
"-63 123 OFFCURVE",
"78 48 CURVE SMOOTH",
"212 -23 OFFCURVE",
"403 152 OFFCURVE",
"462 259 CURVE SMOOTH",
"528 376 OFFCURVE",
"509 490 OFFCURVE",
"427 567 CURVE"
);
}
);
width = 485;
},
{
layerId = "AF926F6A-8B43-44FC-95BD-7483A33A85BE";
paths = (
{
closed = 1;
nodes = (
"306.75 204.4 OFFCURVE",
"275.48 146.68 OFFCURVE",
"233.27 118.15 CURVE",
"230.97 119.02 OFFCURVE",
"226.78 121.36 OFFCURVE",
"221.38 128.01 CURVE SMOOTH",
"209.78 142.28 OFFCURVE",
"202.5 157.09 OFFCURVE",
"196.39 174.52 CURVE SMOOTH",
"161.6 273.62 OFFCURVE",
"178.05 397.18 OFFCURVE",
"227.15 488.41 CURVE SMOOTH",
"234.76 502.55 OFFCURVE",
"231.21 511.3 OFFCURVE",
"221.69 515.83 CURVE",
"240.25 523.29 OFFCURVE",
"261.16 521.35 OFFCURVE",
"284.45 504.07 CURVE SMOOTH",
"361.58 446.84 OFFCURVE",
"358.61 328.66 OFFCURVE",
"325.41 249.11 CURVE SMOOTH"
);
},
{
closed = 1;
nodes = (
"162.22 627.62 OFFCURVE",
"56.26 489.98 OFFCURVE",
"11.82 367.5 CURVE SMOOTH",
"0 334.91 OFFCURVE",
"31.8 327.46 OFFCURVE",
"64.84 334.3 CURVE",
"54.53 269.18 OFFCURVE",
"57.43 201.66 OFFCURVE",
"75.78 141.06 CURVE SMOOTH",
"106.99 38.01 OFFCURVE",
"199.45 7.64 OFFCURVE",
"291.36 63.74 CURVE SMOOTH",
"395.27 127.17 OFFCURVE",
"472.47 272.31 OFFCURVE",
"466.31 393.83 CURVE SMOOTH",
"461.58 487.11 OFFCURVE",
"408.34 581.34 OFFCURVE",
"310.55 599.72 CURVE SMOOTH"
);
}
);
width = 477;
}
);
unicode = 006F;
},
